<?xml version="1.0" standalone="no"?>
<!DOCTYPE svg PUBLIC "-//W3C//DTD SVG 1.1//EN" "http://www.w3.org/Graphics/SVG/1.1/DTD/svg11.dtd" >
<svg xmlns="http://www.w3.org/2000/svg">
<metadata></metadata>
<defs>
<font id="pt_sans_pro_narrow_lightRg" horiz-adv-x="917" >
<font-face units-per-em="2048" ascent="1577" descent="-471" />
<missing-glyph horiz-adv-x="438" />
<glyph unicode="IJ" horiz-adv-x="944" d="M172 0v1434h133v-1434h-133zM653 330v1104h133v-1129q0 -166 -53.5 -244.5t-177.5 -78.5q-32 0 -75 8t-64 20l26 117q42 -25 101 -25q29 0 49 11t32 28.5t18.5 48.5t8.5 62.5t2 77.5z" />
<glyph unicode="ij" horiz-adv-x="794" d="M158 0v1024h127v-1024h-127zM129 1341q0 46 25 74.5t65 28.5q38 0 65 -28.5t27 -74.5q0 -45 -26.5 -71.5t-65.5 -26.5q-40 0 -65 26.5t-25 71.5zM512 0v1024h127v-1081q0 -208 -63.5 -300t-202.5 -77v115q37 0 62.5 13.5t40.5 36.5t23 65.5t10.5 87.5t2.5 116zM483 1341 q0 46 25 74.5t65 28.5q38 0 65.5 -28.5t27.5 -74.5q0 -45 -27 -71.5t-66 -26.5q-40 0 -65 26.5t-25 71.5z" />
<glyph unicode="&#xf374;`" horiz-adv-x="811" d="M702 150l31 -105q-78 -63 -237 -63q-184 0 -293 138t-109 419q0 147 33.5 257.5t91.5 173.5t127.5 93.5t149.5 30.5q133 0 225 -39l-33 -117q-72 35 -182 35q-109 0 -184.5 -88.5t-88.5 -270.5h390v-120h-392q9 -190 86 -291t207 -101q105 0 178 48zM414 1223l98 303h141 v-39l-164 -264h-75z" />
<glyph unicode="&#xf350;`" horiz-adv-x="788" d="M639 0l-88 289h-324l-84 -289h-129l342 1090h76l342 -1090h-135zM356 711l-92 -301h252l-94 303l-31 166h-2zM373 1223l98 303h141v-39l-163 -264h-76z" />
<glyph unicode="&#xf355;`" horiz-adv-x="772" d="M141 0v1075h516v-121h-383v-344h351v-121h-351v-368h392v-121h-525zM334 1223l98 303h141v-39l-163 -264h-76z" />
<glyph unicode="&#xf358;`" horiz-adv-x="954" d="M680 0v672l12 153h-6l-57 -157l-408 -668h-80v1075h133v-676l-14 -151h8l60 155l407 672h78v-1075h-133zM410 1223l98 303h141v-39l-164 -264h-75z" />
<glyph unicode="&#xf35e;`" horiz-adv-x="946" d="M94 539q0 273 95.5 414t283.5 141q195 0 288 -145t93 -410q0 -273 -96.5 -415t-284.5 -142q-379 0 -379 557zM231 539q0 -127 23 -221.5t78.5 -155t140.5 -60.5q244 0 244 437q0 92 -13.5 168t-41.5 137t-76 95t-113 34q-242 0 -242 -434zM387 1223l98 303h142v-39 l-164 -264h-76z" />
<glyph unicode="&#xf363;`" horiz-adv-x="745" d="M162 1075l217 -549l35 -139h6l24 143l164 545h133l-233 -708q-22 -68 -36 -108.5t-31.5 -86t-31.5 -70t-31 -49t-35.5 -36t-41 -18.5t-49.5 -7q-79 0 -125 35l39 110q40 -24 84 -24q35 0 58.5 42.5t41.5 127.5l-338 792h150zM307 1223l99 303h141v-39l-164 -264h-76z" />
<glyph unicode="&#xf36b;`" horiz-adv-x="1103" d="M829 0v1075h134v-1075h-134zM141 8v1067h133v-409q54 12 113 12q68 0 123.5 -16t101.5 -52t71.5 -102t25.5 -158q0 -182 -92 -273t-261 -91q-129 0 -215 22zM369 106q95 0 148.5 60t53.5 174q0 117 -54.5 167t-151.5 50q-56 0 -91 -14v-426q32 -11 95 -11zM471 1223 l98 303h142v-39l-164 -264h-76z" />
<glyph unicode="&#xf36d;`" horiz-adv-x="802" d="M207 489v121h368q-7 178 -82.5 270.5t-201.5 92.5q-107 0 -191 -49l-37 108q106 62 242 62q91 0 162 -29.5t126.5 -93.5t85.5 -173t30 -259q0 -149 -33 -259t-93 -174t-135 -94t-167 -30q-125 0 -213 43l36 118q77 -41 185 -41q119 0 200.5 96.5t88.5 290.5h-371z M244 1223l98 303h141v-39l-164 -264h-75z" />
<glyph unicode="&#xf36e;`" horiz-adv-x="1243" d="M274 1075v-461h148q9 231 102 355.5t262 124.5q193 0 278 -142.5t85 -412.5q0 -557 -363 -557q-179 0 -269 133t-95 368h-148v-483h-133v1075h133zM559 539q0 -94 12 -170t37.5 -137.5t70.5 -95.5t107 -34q118 0 172 105.5t54 331.5q0 434 -226 434q-114 0 -170.5 -107 t-56.5 -327zM543 1223l98 303h141v-39l-164 -264h-75z" />
<glyph unicode="&#xf36f;`" horiz-adv-x="813" d="M672 1065v-1065h-133v469l-125 -33l-215 -436h-154l199 383l80 68q-97 21 -155 100.5t-58 208.5q0 90 27 155.5t76.5 103t111.5 54.5t139 17q115 0 207 -25zM451 969q-89 0 -146 -50t-57 -165q0 -110 56 -161.5t151 -51.5h84v420q-31 8 -88 8zM389 1223l98 303h142v-39 l-164 -264h-76z" />
<glyph unicode="&#xf371;`" horiz-adv-x="772" d="M141 0v1075h516v-121h-383v-344h351v-121h-351v-368h392v-121h-525zM135 1401q0 41 22 65.5t58 24.5q34 0 55 -24.5t21 -65.5q0 -40 -21 -64t-55 -24q-35 0 -57.5 24t-22.5 64zM508 1401q0 41 21 65.5t55 24.5q36 0 58 -24.5t22 -65.5q0 -40 -22.5 -64t-57.5 -24 q-34 0 -55 24t-21 64zM281 1253l96 283h121v-39l-156 -244h-61z" />
<glyph unicode="&#x404;`" horiz-adv-x="958" d="M846 162l33 -107q-93 -80 -291 -80q-111 0 -199.5 43t-155.5 131t-103 232t-36 336q0 157 27 283.5t73 210.5t110 140.5t135 81.5t151 25q163 0 274 -49l-35 -119q-86 47 -229 47q-69 0 -129.5 -29t-112 -89.5t-85 -168t-40.5 -251.5h506v-121h-508q7 -285 114.5 -433.5 t279.5 -148.5q125 0 221 66zM489 1540l195 242h184v-39l-268 -203h-111z" />
<glyph unicode="&#x406;`" horiz-adv-x="477" d="M172 0v1434h133v-1434h-133zM168 1540l194 242h185v-39l-268 -203h-111z" />
<glyph unicode="&#x407;`" horiz-adv-x="485" d="M184 1741l117 160h178v-39l-209 -121h-86zM45 1624q0 41 24.5 66.5t61.5 25.5t61.5 -25.5t24.5 -66.5q0 -39 -24.5 -64.5t-61.5 -25.5t-61.5 25.5t-24.5 64.5zM266 1624q0 41 24 66.5t60 25.5q38 0 62 -25.5t24 -66.5q0 -40 -24 -65t-62 -25q-36 0 -60 25.5t-24 64.5z M176 0v1434h133v-1434h-133z" />
<glyph unicode="&#x410;`" horiz-adv-x="956" d="M807 0l-123 418h-422l-119 -418h-129l435 1458h57l438 -1458h-137zM432 1001l-131 -462h346l-133 467l-39 213h-2zM446 1540l195 242h184v-39l-268 -203h-111z" />
<glyph unicode="&#x415;`" horiz-adv-x="878" d="M141 0v1434h621v-121h-488v-512h449v-121h-449v-559h498v-121h-631zM317 1540l195 242h184v-39l-268 -203h-111z" />
<glyph unicode="&#x418;`" horiz-adv-x="1118" d="M844 0v977l12 186h-6l-72 -190l-557 -973h-80v1434h133v-998l-14 -180h6l72 186l559 992h80v-1434h-133zM446 1540l195 242h184v-39l-268 -203h-111z" />
<glyph unicode="&#x41e;`" horiz-adv-x="1122" d="M94 717q0 365 116.5 553t348.5 188q469 0 469 -741q0 -365 -117.5 -553.5t-351.5 -188.5q-465 0 -465 742zM231 717q0 -126 19 -235t57 -197t103 -138.5t149 -50.5q163 0 247.5 155t84.5 466q0 127 -18.5 235t-57 196t-104 138.5t-152.5 50.5q-160 0 -244 -155t-84 -465z M496 1540l194 242h184v-39l-268 -203h-110z" />
<glyph unicode="&#x423;`" horiz-adv-x="905" d="M164 1434l295 -758l41 -182h10l33 186l225 754h133l-287 -920q-103 -330 -156.5 -427t-158.5 -97q-92 0 -147 43l41 112q47 -34 110 -34q44 0 75.5 65t57.5 193l-424 1065h152zM354 1540l195 242h184v-39l-268 -203h-111z" />
<glyph unicode="&#x42b;`" horiz-adv-x="1257" d="M983 0v1434h133v-1434h-133zM141 12v1422h133v-566q65 17 144 17q399 0 399 -424q0 -243 -111.5 -360t-316.5 -117q-148 0 -248 28zM401 104q131 0 205 87t74 255q0 92 -21.5 155.5t-62 98.5t-89 49.5t-112.5 14.5q-28 0 -66.5 -6.5t-54.5 -12.5v-626q43 -15 127 -15z M498 1540l194 242h185v-39l-269 -203h-110z" />
<glyph unicode="&#x42d;`" horiz-adv-x="946" d="M248 672v121h471q-10 271 -110.5 407.5t-264.5 136.5q-133 0 -233 -65l-41 108q118 78 290 78q112 0 200 -40.5t154.5 -126.5t102 -230t35.5 -340q0 -158 -26 -283.5t-71.5 -211.5t-111.5 -143t-143.5 -82.5t-169.5 -25.5q-151 0 -256 50l37 122q39 -22 101.5 -36.5 t125.5 -14.5q74 0 138.5 31.5t119 97t88 180.5t37.5 267h-473zM244 1540l194 242h185v-39l-269 -203h-110z" />
<glyph unicode="&#x42e;`" horiz-adv-x="1462" d="M274 1434v-637h205q8 324 119 492.5t328 168.5q99 0 174.5 -34t126 -96t83 -155t46.5 -204.5t14 -251.5q0 -368 -108 -555t-336 -187q-118 0 -204.5 49t-139 143t-78 219.5t-27.5 289.5h-203v-676h-133v1434h133zM612 717q0 -130 16 -236.5t51 -195.5t98 -139t149 -50 q160 0 233.5 151.5t73.5 469.5q0 620 -307 620q-159 0 -236.5 -153t-77.5 -467zM561 1540l195 242h184v-39l-268 -203h-111z" />
<glyph unicode="&#x42f;`" horiz-adv-x="931" d="M793 1419v-1419h-134v641l-172 -45l-288 -596h-154l256 524l98 88q-126 32 -199 135.5t-73 274.5q0 428 422 428q145 0 244 -31zM543 1329q-58 0 -105.5 -14.5t-88 -47.5t-63 -94.5t-22.5 -148.5q0 -156 77 -232.5t204 -76.5h114v602q-37 12 -116 12zM457 1540l194 242 h185v-39l-269 -203h-110z" />
<glyph unicode="&#x401;`" horiz-adv-x="878" d="M141 0v1434h621v-121h-488v-512h449v-121h-449v-559h498v-121h-631zM571 1665q0 40 23.5 64t58.5 24q39 0 62.5 -23.5t23.5 -64.5q0 -39 -23.5 -62.5t-62.5 -23.5q-35 0 -58.5 23.5t-23.5 62.5zM137 1665q0 40 24 64t62 24q36 0 60 -24t24 -64q0 -39 -24 -62.5t-60 -23.5 q-37 0 -61.5 23.5t-24.5 62.5zM291 1540l112 242h162v-39l-174 -203h-100z" />
<glyph unicode="&#x430;`" horiz-adv-x="813" d="M162 864l-45 99q56 36 140.5 56.5t174.5 20.5q66 0 114 -18t75 -45.5t43 -70t21 -82.5t5 -91q0 -89 -4 -248.5t-4 -226.5q0 -180 20 -262h-92l-35 119h-8q-78 -129 -252 -129q-109 0 -179 77.5t-70 208.5q0 85 29 146t85 96t127.5 50.5t165.5 15.5q57 0 88 -2q4 45 4 120 q0 126 -36.5 177t-131.5 51q-56 0 -124 -18t-111 -44zM346 100q85 0 138 41t77 101v227q-47 6 -92 6q-270 0 -270 -192q0 -84 40 -133.5t107 -49.5zM340 1171l98 304h142v-39l-164 -265h-76z" />
<glyph unicode="&#x435;`" horiz-adv-x="837" d="M676 164l47 -96q-49 -44 -122 -68.5t-152 -24.5q-186 0 -276.5 142t-90.5 395q0 258 93 397.5t265 139.5q48 0 88 -8t82 -32.5t71.5 -64.5t48.5 -108.5t20 -159.5q0 -97 -9 -168h-526q0 -98 14 -172.5t45 -130.5t83.5 -85.5t125.5 -29.5q52 0 106.5 21.5t86.5 52.5z M442 934q-207 0 -227 -311h412v28q0 140 -50 211.5t-135 71.5zM373 1171l98 304h141v-39l-163 -265h-76z" />
<glyph unicode="&#x438;`" horiz-adv-x="892" d="M639 0v621l10 155h-6l-72 -172l-362 -604h-82v1024h127v-639l-12 -149h10l67 167l367 621h80v-1024h-127zM393 1171l99 304h141v-39l-164 -265h-76z" />
<glyph unicode="&#x43e;`" horiz-adv-x="878" d="M82 512q0 537 356 537q183 0 271 -132.5t88 -404.5q0 -537 -359 -537q-182 0 -269 132.5t-87 404.5zM215 512q0 -422 223 -422q114 0 170 102.5t56 319.5q0 196 -54 309t-172 113q-112 0 -167.5 -103t-55.5 -319zM373 1171l98 304h141v-39l-163 -265h-76z" />
<glyph unicode="&#x443;`" horiz-adv-x="759" d="M162 1024l205 -682l47 -205h8l35 207l164 680h127l-242 -920q-19 -73 -32 -120.5t-32 -108t-35 -99t-38 -79.5t-44 -64t-49.5 -38t-58.5 -15q-55 0 -90 17l20 122q15 -6 33 -6q117 0 168 287l-328 1024h142zM348 1171l98 304h142v-39l-164 -265h-76z" />
<glyph unicode="&#x44b;`" horiz-adv-x="1077" d="M254 512v-397q70 -13 119 -13q99 0 142.5 54t43.5 161q0 101 -42.5 155t-139.5 54q-77 0 -123 -14zM254 1024v-397q74 14 145 14q293 0 293 -301q0 -186 -82.5 -269t-267.5 -83q-101 0 -215 12v1024h127zM823 0v1024h127v-1024h-127zM434 1171l98 304h142v-39l-164 -265 h-76z" />
<glyph unicode="&#x44d;`" horiz-adv-x="757" d="M197 459v114h348q-6 170 -68.5 265.5t-171.5 95.5t-194 -64l-50 103q102 76 265 76q180 0 266 -133t86 -404q0 -262 -97 -399.5t-276 -137.5q-148 0 -242 48l37 114q37 -21 92 -34t103 -13q238 0 250 369h-348zM250 1171l98 304h141v-39l-163 -265h-76z" />
<glyph unicode="&#x44e;`" horiz-adv-x="1177" d="M762 -20q-172 0 -252 123t-88 366h-168v-469h-127v1024h127v-440h170q11 232 94.5 346t245.5 114q175 0 253.5 -134t78.5 -398q0 -271 -82.5 -401.5t-251.5 -130.5zM547 512q0 -418 217 -418q105 0 152 99t47 319q0 94 -9 165.5t-31 131t-62 90.5t-97 31 q-114 0 -165.5 -103.5t-51.5 -314.5zM496 1171l98 304h141v-39l-164 -265h-75z" />
<glyph unicode="&#x44f;`" horiz-adv-x="778" d="M535 0v432l-132 -24l-219 -408h-151l198 356l66 76q-92 18 -149.5 87.5t-57.5 182.5q0 176 93 260.5t259 84.5h7q90 0 213 -29v-1018h-127zM453 512l82 4v399q-41 17 -97 17q-106 0 -160.5 -54.5t-54.5 -160.5q0 -97 64 -153.5t166 -51.5zM373 1171l98 304h141v-39 l-163 -265h-76z" />
<glyph unicode="&#x451;`" horiz-adv-x="837" d="M676 164l47 -96q-49 -44 -122 -68.5t-152 -24.5q-186 0 -276.5 142t-90.5 395q0 258 93 397.5t265 139.5q48 0 88 -8t82 -32.5t71.5 -64.5t48.5 -108.5t20 -159.5q0 -97 -9 -168h-526q0 -98 14 -172.5t45 -130.5t83.5 -85.5t125.5 -29.5q52 0 106.5 21.5t86.5 52.5z M442 934q-207 0 -227 -311h412v28q0 140 -50 211.5t-135 71.5zM172 1298q0 41 22.5 66t57.5 25q34 0 54 -25t20 -66q0 -40 -20 -64t-54 -24q-35 0 -57.5 24t-22.5 64zM545 1298q0 41 21 66t55 25q35 0 56 -25t21 -66q0 -40 -21 -64t-56 -24q-34 0 -55 24t-21 64zM317 1151 l97 283h121v-39l-156 -244h-62z" />
<glyph unicode="&#x454;`" horiz-adv-x="772" d="M676 152l41 -103q-44 -34 -114 -53t-142 -19q-190 0 -284.5 142t-94.5 393q0 255 105 395t286 140q143 0 229 -48l-36 -112q-77 45 -189 45q-119 0 -189.5 -89.5t-80.5 -260.5h391v-121h-393q5 -76 23.5 -141t52 -117t87 -81.5t121.5 -29.5q55 0 105.5 17t81.5 43z M406 1171l98 304h141v-39l-164 -265h-75z" />
<glyph unicode="&#x456;`" horiz-adv-x="442" d="M158 0v1024h127v-1024h-127zM143 1540l195 242h184v-39l-268 -203h-111zM129 1341q0 46 25 74.5t65 28.5q38 0 65 -28.5t27 -74.5q0 -45 -26.5 -71.5t-65.5 -26.5q-40 0 -65 26.5t-25 71.5z" />
<glyph unicode="&#x457;`" horiz-adv-x="442" d="M158 0v1024h127v-1024h-127zM244 1341q0 41 21.5 66t56.5 25t56 -25t21 -66q0 -40 -21 -64t-56 -24t-56.5 24t-21.5 64zM43 1341q0 41 21.5 66t56.5 25t56.5 -25t21.5 -66q0 -40 -21.5 -64t-56.5 -24t-56.5 24t-21.5 64zM156 1540l194 242h185v-39l-269 -203h-110z" />
<glyph unicode="&#x40e;`" horiz-adv-x="905" d="M164 1434l295 -758l41 -182h10l33 186l225 754h133l-287 -920q-103 -330 -156.5 -427t-158.5 -97q-92 0 -147 43l41 112q47 -34 110 -34q44 0 75.5 65t57.5 193l-424 1065h152zM205 1739l125 41q6 -85 46 -130.5t109 -45.5q66 0 106.5 45.5t49.5 128.5l111 -35 q-21 -111 -88.5 -174.5t-182.5 -63.5q-118 0 -190.5 59.5t-85.5 174.5zM395 1704l187 242h182v-39l-260 -203h-109z" />
<glyph unicode="&#x45e;`" horiz-adv-x="759" d="M162 1024l205 -682l47 -205h8l35 207l164 680h127l-242 -920q-19 -73 -32 -120.5t-32 -108t-35 -99t-38 -79.5t-44 -64t-49.5 -38t-58.5 -15q-55 0 -90 17l20 122q15 -6 33 -6q117 0 168 287l-328 1024h142zM143 1389l109 47q24 -181 154 -181q57 0 99 44t56 135l92 -35 q-13 -113 -82.5 -177.5t-169.5 -64.5q-97 0 -169.5 59.5t-88.5 172.5zM352 1382l97 304h141v-39l-166 -265h-72z" />
<glyph unicode="&#x474;`" horiz-adv-x="978" d="M782 1069l-284 -1094h-58l-442 1459h143l293 -1012l39 -213h2l29 217l125 530q38 162 67.5 256t65 148.5t72.5 71t96 16.5q93 0 147 -41l-41 -111q-47 31 -106 31q-47 0 -80 -62.5t-68 -195.5zM379 1540l194 242h185v-39l-269 -203h-110z" />
<glyph unicode="&#x475;`" horiz-adv-x="829" d="M676 741l-252 -766h-51l-357 1049h146l200 -606l46 -211h2l41 215l55 184q66 222 98 291q54 117 130 136q19 5 38 5q58 0 94 -16l-18 -119q-34 15 -51 15q-32 0 -60.5 -39t-60.5 -138zM352 1171l99 304h141v-39l-164 -265h-76z" />
<glyph unicode="&#x4ae;`" horiz-adv-x="913" d="M393 0v578l-379 856h152l272 -643l27 -119h4l29 123l260 639h141l-373 -854v-580h-133zM360 1540l195 242h184v-39l-268 -203h-111z" />
<glyph unicode="&#x4af;`" horiz-adv-x="792" d="M340 0l-324 1024h148l201 -668l47 -231h2l41 235l182 664h137l-307 -1024v-410h-127v410zM332 1171l98 304h141v-39l-163 -265h-76z" />
<glyph unicode="&#x4b0;`" horiz-adv-x="913" d="M147 471v109h244l-377 854h152l272 -643l27 -119h4l29 123l260 639h141l-373 -854h246v-109h-246v-471h-133v471h-246zM369 1540l194 242h185v-39l-269 -203h-110z" />
<glyph unicode="&#x4b1;`" horiz-adv-x="792" d="M143 -111v111h197l-324 1024h148l201 -668l47 -231h2l41 235l182 664h137l-307 -1024h197v-111h-197v-299h-127v299h-197zM340 1171l98 304h142v-39l-164 -265h-76z" />
<glyph unicode="&#x4d0;`" horiz-adv-x="956" d="M807 0l-123 418h-422l-119 -418h-129l435 1458h57l438 -1458h-137zM432 1001l-131 -462h346l-133 467l-39 213h-2zM203 1739l125 41q6 -85 46 -130.5t109 -45.5q66 0 106.5 45.5t49.5 128.5l111 -35q-21 -111 -88.5 -174.5t-182.5 -63.5q-118 0 -190.5 59.5t-85.5 174.5z M393 1704l187 242h182v-39l-260 -203h-109z" />
<glyph unicode="&#x4d1;`" horiz-adv-x="813" d="M162 864l-45 99q56 36 140.5 56.5t174.5 20.5q66 0 114 -18t75 -45.5t43 -70t21 -82.5t5 -91q0 -89 -4 -248.5t-4 -226.5q0 -180 20 -262h-92l-35 119h-8q-78 -129 -252 -129q-109 0 -179 77.5t-70 208.5q0 85 29 146t85 96t127.5 50.5t165.5 15.5q57 0 88 -2q4 45 4 120 q0 126 -36.5 177t-131.5 51q-56 0 -124 -18t-111 -44zM346 100q85 0 138 41t77 101v227q-47 6 -92 6q-270 0 -270 -192q0 -84 40 -133.5t107 -49.5zM164 1389l108 47q24 -181 154 -181q58 0 100 44t56 135l92 -35q-13 -113 -82.5 -177.5t-169.5 -64.5q-97 0 -169.5 59.5 t-88.5 172.5zM373 1382l96 304h141v-39l-166 -265h-71z" />
<glyph unicode="&#x4d2;`" horiz-adv-x="956" d="M807 0l-123 418h-422l-119 -418h-129l435 1458h57l438 -1458h-137zM432 1001l-131 -462h346l-133 467l-39 213h-2zM608 1665q0 40 23.5 64t58.5 24q39 0 62.5 -23.5t23.5 -64.5q0 -39 -23.5 -62.5t-62.5 -23.5q-35 0 -58.5 23.5t-23.5 62.5zM174 1665q0 40 24 64t62 24 q36 0 60 -24t24 -64q0 -39 -24 -62.5t-60 -23.5q-37 0 -61.5 23.5t-24.5 62.5zM328 1540l112 242h162v-39l-174 -203h-100z" />
<glyph unicode="&#x4d3;`" horiz-adv-x="813" d="M162 864l-45 99q56 36 140.5 56.5t174.5 20.5q66 0 114 -18t75 -45.5t43 -70t21 -82.5t5 -91q0 -89 -4 -248.5t-4 -226.5q0 -180 20 -262h-92l-35 119h-8q-78 -129 -252 -129q-109 0 -179 77.5t-70 208.5q0 85 29 146t85 96t127.5 50.5t165.5 15.5q57 0 88 -2q4 45 4 120 q0 126 -36.5 177t-131.5 51q-56 0 -124 -18t-111 -44zM346 100q85 0 138 41t77 101v227q-47 6 -92 6q-270 0 -270 -192q0 -84 40 -133.5t107 -49.5zM137 1298q0 41 22.5 66t57.5 25q34 0 54 -25t20 -66q0 -40 -20 -64t-54 -24q-35 0 -57.5 24t-22.5 64zM510 1298q0 41 21 66 t55 25q35 0 56.5 -25t21.5 -66q0 -40 -21.5 -64t-56.5 -24q-34 0 -55 24t-21 64zM283 1151l96 283h121v-39l-156 -244h-61z" />
<glyph unicode="&#x4d4;`" horiz-adv-x="1384" d="M645 1235h-4l-53 -201l-230 -493h287v694zM645 0v420h-348l-188 -420h-144l680 1434h623v-121h-490v-512h449v-121h-449v-559h498v-121h-631zM668 1540l194 242h185v-39l-269 -203h-110z" />
<glyph unicode="&#x4d5;`" horiz-adv-x="1310" d="M348 98q86 0 139.5 47t73.5 113v217q-46 4 -69 4q-50 0 -90 -4.5t-79 -17.5t-65.5 -34t-42.5 -55.5t-16 -80.5q0 -78 41.5 -133.5t107.5 -55.5zM618 152h-12q-44 -76 -117 -122t-170 -46q-112 0 -182.5 80t-70.5 212q0 88 28 149.5t82.5 96t124 49.5t162.5 15q28 0 98 -4 q14 199 -18 271.5t-146 72.5q-57 0 -127.5 -21t-115.5 -53l-39 98q121 90 317 90q174 0 221 -137q39 73 110 109.5t150 36.5q47 0 87.5 -9t82.5 -34t71.5 -65.5t48.5 -109.5t20 -159q0 -74 -9 -168h-530q2 -208 64 -311t204 -103q53 0 109.5 21t85.5 49l49 -97 q-109 -88 -281 -88q-101 0 -181 46.5t-116 130.5zM915 934q-99 0 -158 -79.5t-69 -240.5h408v33q0 141 -48.5 214t-132.5 73zM598 1171l98 304h142v-39l-164 -265h-76z" />
<glyph unicode="&#x4d6;`" horiz-adv-x="878" d="M141 0v1434h621v-121h-488v-512h449v-121h-449v-559h498v-121h-631zM193 1739l124 41q6 -85 46.5 -130.5t109.5 -45.5q66 0 106.5 45.5t49.5 128.5l110 -35q-21 -111 -88 -174.5t-182 -63.5q-118 0 -190.5 59.5t-85.5 174.5zM383 1704l186 242h183v-39l-260 -203h-109z " />
<glyph unicode="&#x4d7;`" horiz-adv-x="837" d="M676 164l47 -96q-49 -44 -122 -68.5t-152 -24.5q-186 0 -276.5 142t-90.5 395q0 258 93 397.5t265 139.5q48 0 88 -8t82 -32.5t71.5 -64.5t48.5 -108.5t20 -159.5q0 -97 -9 -168h-526q0 -98 14 -172.5t45 -130.5t83.5 -85.5t125.5 -29.5q52 0 106.5 21.5t86.5 52.5z M442 934q-207 0 -227 -311h412v28q0 140 -50 211.5t-135 71.5zM184 1389l109 47q24 -181 153 -181q58 0 100 44t56 135l92 -35q-13 -113 -82.5 -177.5t-169.5 -64.5q-97 0 -169.5 59.5t-88.5 172.5zM393 1382l96 304h142v-39l-166 -265h-72z" />
<glyph unicode="&#x4d8;`" horiz-adv-x="1048" d="M825 672h-596q-8 -71 -8 -133q0 -196 73 -319.5t210 -123.5q157 0 237.5 147t83.5 429zM106 793h717q-14 281 -98 412.5t-254 131.5q-66 0 -137.5 -25.5t-118.5 -56.5l-41 109q146 94 320 94q232 0 347 -177t115 -564q0 -361 -113.5 -551.5t-340.5 -190.5 q-197 0 -305.5 151t-108.5 409q0 140 18 258zM395 1540l195 242h184v-39l-268 -203h-111z" />
<glyph unicode="&#x4d9;`" horiz-adv-x="831" d="M156 864l-50 97q49 41 125 64.5t158 23.5q182 0 271.5 -139.5t89.5 -397.5q0 -266 -90.5 -401.5t-256.5 -135.5q-156 0 -238.5 114.5t-82.5 328.5q0 62 8 141h533q-6 196 -68 285.5t-203 89.5q-55 0 -109.5 -20.5t-86.5 -49.5zM406 90q100 0 159 92.5t56 261.5h-416v-41 q1 -147 57.5 -230t143.5 -83zM330 1171l98 304h141v-39l-163 -265h-76z" />
<glyph unicode="&#x4da;`" horiz-adv-x="1048" d="M825 672h-596q-8 -71 -8 -133q0 -196 73 -319.5t210 -123.5q157 0 237.5 147t83.5 429zM106 793h717q-14 281 -98 412.5t-254 131.5q-66 0 -137.5 -25.5t-118.5 -56.5l-41 109q146 94 320 94q232 0 347 -177t115 -564q0 -361 -113.5 -551.5t-340.5 -190.5 q-197 0 -305.5 151t-108.5 409q0 140 18 258zM637 1665q0 40 23.5 64t58.5 24q39 0 62.5 -23.5t23.5 -64.5q0 -39 -23.5 -62.5t-62.5 -23.5q-35 0 -58.5 23.5t-23.5 62.5zM203 1665q0 40 24 64t62 24q36 0 60 -24t24 -64q0 -39 -24 -62.5t-60 -23.5q-37 0 -61.5 23.5 t-24.5 62.5zM356 1540l113 242h162v-39l-174 -203h-101z" />
<glyph unicode="&#x4db;`" horiz-adv-x="831" d="M156 864l-50 97q49 41 125 64.5t158 23.5q182 0 271.5 -139.5t89.5 -397.5q0 -266 -90.5 -401.5t-256.5 -135.5q-156 0 -238.5 114.5t-82.5 328.5q0 62 8 141h533q-6 196 -68 285.5t-203 89.5q-55 0 -109.5 -20.5t-86.5 -49.5zM406 90q100 0 159 92.5t56 261.5h-416v-41 q1 -147 57.5 -230t143.5 -83zM139 1298q0 41 22.5 66t57.5 25q34 0 54 -25t20 -66q0 -40 -20 -64t-54 -24q-35 0 -57.5 24t-22.5 64zM512 1298q0 41 21 66t55 25q35 0 56.5 -25t21.5 -66q0 -40 -21.5 -64t-56.5 -24q-34 0 -55 24t-21 64zM285 1151l96 283h121v-39l-156 -244 h-61z" />
<glyph unicode="&#x4e2;`" horiz-adv-x="1118" d="M844 0v977l12 186h-6l-72 -190l-557 -973h-80v1434h133v-998l-14 -180h6l72 186l559 992h80v-1434h-133zM324 1503v115h516v-115h-516zM467 1683l195 242h184v-39l-268 -203h-111z" />
<glyph unicode="&#x4e3;`" horiz-adv-x="892" d="M639 0v621l10 155h-6l-72 -172l-362 -604h-82v1024h127v-639l-12 -149h10l67 167l367 621h80v-1024h-127zM213 1200v111h483v-111h-483zM381 1397l98 303h142v-39l-164 -264h-76z" />
<glyph unicode="&#x4e4;`" horiz-adv-x="1118" d="M844 0v977l12 186h-6l-72 -190l-557 -973h-80v1434h133v-998l-14 -180h6l72 186l559 992h80v-1434h-133zM696 1665q0 40 23.5 64t58.5 24q39 0 62.5 -23.5t23.5 -64.5q0 -39 -23.5 -62.5t-62.5 -23.5q-35 0 -58.5 23.5t-23.5 62.5zM262 1665q0 40 24 64t62 24 q36 0 60 -24t24 -64q0 -39 -24 -62.5t-60 -23.5q-37 0 -61.5 23.5t-24.5 62.5zM416 1540l112 242h162v-39l-174 -203h-100z" />
<glyph unicode="&#x4e5;`" horiz-adv-x="892" d="M639 0v621l10 155h-6l-72 -172l-362 -604h-82v1024h127v-639l-12 -149h10l67 167l367 621h80v-1024h-127zM190 1298q0 41 22.5 66t57.5 25q34 0 54 -25t20 -66q0 -40 -20 -64t-54 -24q-35 0 -57.5 24t-22.5 64zM563 1298q0 41 21 66t55 25q35 0 56.5 -25t21.5 -66 q0 -40 -21.5 -64t-56.5 -24q-34 0 -55 24t-21 64zM336 1151l96 283h121v-39l-156 -244h-61z" />
<glyph unicode="&#x4e6;`" horiz-adv-x="1122" d="M94 717q0 365 116.5 553t348.5 188q469 0 469 -741q0 -365 -117.5 -553.5t-351.5 -188.5q-465 0 -465 742zM231 717q0 -126 19 -235t57 -197t103 -138.5t149 -50.5q163 0 247.5 155t84.5 466q0 127 -18.5 235t-57 196t-104 138.5t-152.5 50.5q-160 0 -244 -155t-84 -465z M690 1665q0 40 23.5 64t58.5 24q39 0 62.5 -23.5t23.5 -64.5q0 -39 -23.5 -62.5t-62.5 -23.5q-35 0 -58.5 23.5t-23.5 62.5zM256 1665q0 40 24 64t62 24q36 0 60 -24t24 -64q0 -39 -24 -62.5t-60 -23.5q-37 0 -61.5 23.5t-24.5 62.5zM410 1540l112 242h162v-39l-174 -203 h-100z" />
<glyph unicode="&#x4e7;`" horiz-adv-x="878" d="M82 512q0 537 356 537q183 0 271 -132.5t88 -404.5q0 -537 -359 -537q-182 0 -269 132.5t-87 404.5zM215 512q0 -422 223 -422q114 0 170 102.5t56 319.5q0 196 -54 309t-172 113q-112 0 -167.5 -103t-55.5 -319zM182 1298q0 41 22.5 66t57.5 25q34 0 54 -25t20 -66 q0 -40 -20 -64t-54 -24q-35 0 -57.5 24t-22.5 64zM555 1298q0 41 21 66t55 25q35 0 56.5 -25t21.5 -66q0 -40 -21.5 -64t-56.5 -24q-34 0 -55 24t-21 64zM328 1151l96 283h121v-39l-156 -244h-61z" />
<glyph unicode="&#x4e8;`" horiz-adv-x="1122" d="M94 717q0 365 116.5 553t348.5 188q469 0 469 -741q0 -365 -117.5 -553.5t-351.5 -188.5q-465 0 -465 742zM559 96q157 0 241.5 143.5t90.5 430.5h-660q4 -119 24.5 -220t59 -181.5t101 -126.5t143.5 -46zM559 1337q-307 0 -328 -546h660q-5 115 -27 210.5t-61 172.5 t-101.5 120t-142.5 43zM496 1540l194 242h184v-39l-268 -203h-110z" />
<glyph unicode="&#x4e9;`" horiz-adv-x="878" d="M82 512q0 265 92 401t264 136q182 0 271.5 -138t89.5 -399q0 -268 -93.5 -402.5t-267.5 -134.5q-180 0 -268 138t-88 399zM215 567h451q-22 367 -228 367q-210 0 -223 -367zM666 453h-451q6 -176 67.5 -269.5t155.5 -93.5q96 0 158.5 85t69.5 278zM393 1171l99 304h141 v-39l-164 -265h-76z" />
<glyph unicode="&#x4ea;`" horiz-adv-x="1122" d="M94 717q0 365 116.5 553t348.5 188q469 0 469 -741q0 -365 -117.5 -553.5t-351.5 -188.5q-465 0 -465 742zM559 96q157 0 241.5 143.5t90.5 430.5h-660q4 -119 24.5 -220t59 -181.5t101 -126.5t143.5 -46zM559 1337q-307 0 -328 -546h660q-5 115 -27 210.5t-61 172.5 t-101.5 120t-142.5 43zM698 1665q0 40 23.5 64t58.5 24q39 0 62.5 -23.5t23.5 -64.5q0 -39 -23.5 -62.5t-62.5 -23.5q-35 0 -58.5 23.5t-23.5 62.5zM264 1665q0 40 24 64t62 24q36 0 60 -24t24 -64q0 -39 -24 -62.5t-60 -23.5q-37 0 -61.5 23.5t-24.5 62.5zM418 1540 l112 242h162v-39l-174 -203h-100z" />
<glyph unicode="&#x4eb;`" horiz-adv-x="878" d="M82 512q0 265 92 401t264 136q182 0 271.5 -138t89.5 -399q0 -268 -93.5 -402.5t-267.5 -134.5q-180 0 -268 138t-88 399zM215 567h451q-22 367 -228 367q-210 0 -223 -367zM666 453h-451q6 -176 67.5 -269.5t155.5 -93.5q96 0 158.5 85t69.5 278zM182 1298q0 41 22.5 66 t57.5 25q34 0 54 -25t20 -66q0 -40 -20 -64t-54 -24q-35 0 -57.5 24t-22.5 64zM555 1298q0 41 21 66t55 25q35 0 56.5 -25t21.5 -66q0 -40 -21.5 -64t-56.5 -24q-34 0 -55 24t-21 64zM328 1151l96 283h121v-39l-156 -244h-61z" />
<glyph unicode="&#x4ec;`" horiz-adv-x="946" d="M248 672v121h471q-10 271 -110.5 407.5t-264.5 136.5q-133 0 -233 -65l-41 108q118 78 290 78q112 0 200 -40.5t154.5 -126.5t102 -230t35.5 -340q0 -158 -26 -283.5t-71.5 -211.5t-111.5 -143t-143.5 -82.5t-169.5 -25.5q-151 0 -256 50l37 122q39 -22 101.5 -36.5 t125.5 -14.5q74 0 138.5 31.5t119 97t88 180.5t37.5 267h-473zM543 1665q0 40 23.5 64t58.5 24q39 0 62.5 -23.5t23.5 -64.5q0 -39 -23.5 -62.5t-62.5 -23.5q-35 0 -58.5 23.5t-23.5 62.5zM109 1665q0 40 24 64t62 24q36 0 60 -24t24 -64q0 -39 -24 -62.5t-60 -23.5 q-37 0 -61.5 23.5t-24.5 62.5zM262 1540l113 242h162v-39l-175 -203h-100z" />
<glyph unicode="&#x4ed;`" horiz-adv-x="757" d="M197 459v114h348q-6 170 -68.5 265.5t-171.5 95.5t-194 -64l-50 103q102 76 265 76q180 0 266 -133t86 -404q0 -262 -97 -399.5t-276 -137.5q-148 0 -242 48l37 114q37 -21 92 -34t103 -13q238 0 250 369h-348zM82 1298q0 41 22.5 66t57.5 25q34 0 54 -25t20 -66 q0 -40 -20 -64t-54 -24q-35 0 -57.5 24t-22.5 64zM455 1298q0 41 20.5 66t54.5 25q35 0 56.5 -25t21.5 -66q0 -40 -21.5 -64t-56.5 -24q-34 0 -54.5 24t-20.5 64zM227 1151l97 283h120v-39l-155 -244h-62z" />
<glyph unicode="&#x4ee;`" horiz-adv-x="905" d="M164 1434l295 -758l41 -182h10l33 186l225 754h133l-287 -920q-103 -330 -156.5 -427t-158.5 -97q-92 0 -147 43l41 112q47 -34 110 -34q44 0 75.5 65t57.5 193l-424 1065h152zM209 1503v115h516v-115h-516zM358 1683l195 242h184v-39l-268 -203h-111z" />
<glyph unicode="&#x4ef;`" horiz-adv-x="759" d="M162 1024l205 -682l47 -205h8l35 207l164 680h127l-242 -920q-19 -73 -32 -120.5t-32 -108t-35 -99t-38 -79.5t-44 -64t-49.5 -38t-58.5 -15q-55 0 -90 17l20 122q15 -6 33 -6q117 0 168 287l-328 1024h142zM158 1200v111h483v-111h-483zM328 1397l98 303h141v-39 l-164 -264h-75z" />
<glyph unicode="&#x4f0;`" horiz-adv-x="905" d="M164 1434l295 -758l41 -182h10l33 186l225 754h133l-287 -920q-103 -330 -156.5 -427t-158.5 -97q-92 0 -147 43l41 112q47 -34 110 -34q44 0 75.5 65t57.5 193l-424 1065h152zM602 1665q0 40 23.5 64t58.5 24q39 0 62.5 -23.5t23.5 -64.5q0 -39 -23.5 -62.5t-62.5 -23.5 q-35 0 -58.5 23.5t-23.5 62.5zM168 1665q0 40 24 64t62 24q36 0 60 -24t24 -64q0 -39 -24 -62.5t-60 -23.5q-37 0 -61.5 23.5t-24.5 62.5zM322 1540l112 242h162v-39l-174 -203h-100z" />
<glyph unicode="&#x4f1;`" horiz-adv-x="759" d="M162 1024l205 -682l47 -205h8l35 207l164 680h127l-242 -920q-19 -73 -32 -120.5t-32 -108t-35 -99t-38 -79.5t-44 -64t-49.5 -38t-58.5 -15q-55 0 -90 17l20 122q15 -6 33 -6q117 0 168 287l-328 1024h142zM129 1298q0 41 22.5 66t57.5 25q34 0 54 -25t20 -66 q0 -40 -20 -64t-54 -24q-35 0 -57.5 24t-22.5 64zM502 1298q0 41 21 66t55 25q35 0 56 -25t21 -66q0 -40 -21 -64t-56 -24q-34 0 -55 24t-21 64zM274 1151l97 283h121v-39l-156 -244h-62z" />
<glyph unicode="&#x4f2;`" horiz-adv-x="905" d="M164 1434l295 -758l41 -182h10l33 186l225 754h133l-287 -920q-103 -330 -156.5 -427t-158.5 -97q-92 0 -147 43l41 112q47 -34 110 -34q44 0 75.5 65t57.5 193l-424 1065h152zM217 1497l41 182h133v-32l-98 -150h-76zM506 1497l217 182h162v-32l-283 -150h-96zM367 1540 l165 242h177v-39l-226 -203h-116z" />
<glyph unicode="&#x4f3;`" horiz-adv-x="759" d="M162 1024l205 -682l47 -205h8l35 207l164 680h127l-242 -920q-19 -73 -32 -120.5t-32 -108t-35 -99t-38 -79.5t-44 -64t-49.5 -38t-58.5 -15q-55 0 -90 17l20 122q15 -6 33 -6q117 0 168 287l-328 1024h142zM209 1169l24 265h123v-33l-82 -232h-65zM438 1169l170 265h135 v-33l-235 -232h-70zM367 1274l98 303h137v-39l-162 -264h-73z" />
<glyph unicode="&#x4f8;`" horiz-adv-x="1257" d="M983 0v1434h133v-1434h-133zM141 12v1422h133v-566q65 17 144 17q399 0 399 -424q0 -243 -111.5 -360t-316.5 -117q-148 0 -248 28zM401 104q131 0 205 87t74 255q0 92 -21.5 155.5t-62 98.5t-89 49.5t-112.5 14.5q-28 0 -66.5 -6.5t-54.5 -12.5v-626q43 -15 127 -15z M748 1665q0 40 23 64t58 24q39 0 62.5 -23.5t23.5 -64.5q0 -39 -23.5 -62.5t-62.5 -23.5q-35 0 -58 23.5t-23 62.5zM313 1665q0 40 24 64t62 24q36 0 60 -24t24 -64q0 -39 -24 -62.5t-60 -23.5q-37 0 -61.5 23.5t-24.5 62.5zM467 1540l113 242h161v-39l-174 -203h-100z" />
<glyph unicode="&#x4f9;`" horiz-adv-x="1077" d="M254 512v-397q70 -13 119 -13q99 0 142.5 54t43.5 161q0 101 -42.5 155t-139.5 54q-77 0 -123 -14zM254 1024v-397q74 14 145 14q293 0 293 -301q0 -186 -82.5 -269t-267.5 -83q-101 0 -215 12v1024h127zM823 0v1024h127v-1024h-127zM274 1298q0 41 22.5 66t57.5 25 q34 0 54 -25t20 -66q0 -40 -20 -64t-54 -24q-35 0 -57.5 24t-22.5 64zM647 1298q0 41 21 66t55 25q35 0 56.5 -25t21.5 -66q0 -40 -21.5 -64t-56.5 -24q-34 0 -55 24t-21 64zM420 1151l96 283h121v-39l-156 -244h-61z" />
<glyph unicode="&#xf376;`" horiz-adv-x="477" d="M172 0v1075h133v-1075h-133zM186 1223l99 303h141v-39l-164 -264h-76z" />
<glyph unicode="&#xf377;`" horiz-adv-x="557" d="M213 0v1075h133v-1075h-133zM14 1401q0 41 22 65.5t58 24.5q34 0 55 -24.5t21 -65.5q0 -40 -21 -64t-55 -24q-35 0 -57.5 24t-22.5 64zM387 1401q0 41 21 65.5t55 24.5q36 0 58 -24.5t22 -65.5q0 -40 -22.5 -64t-57.5 -24q-34 0 -55 24t-21 64zM160 1253l96 283h121v-39 l-156 -244h-61z" />
<glyph unicode="&#xf37e;`" horiz-adv-x="745" d="M162 1075l217 -549l35 -139h6l24 143l164 545h133l-233 -708q-22 -68 -36 -108.5t-31.5 -86t-31.5 -70t-31 -49t-35.5 -36t-41 -18.5t-49.5 -7q-79 0 -125 35l39 110q40 -24 84 -24q35 0 58.5 42.5t41.5 127.5l-338 792h150zM129 1440l109 47q24 -180 153 -180 q58 0 100 43.5t56 134.5l92 -35q-13 -113 -82.5 -177.5t-169.5 -64.5q-97 0 -169.5 59.5t-88.5 172.5zM338 1434l96 303h141v-39l-165 -264h-72z" />
<glyph unicode="&#xf38a;`" horiz-adv-x="780" d="M651 795l-229 -809h-74l-350 1089h143l221 -715l29 -167h4l21 172l98 383q38 145 70 216t70 97t100 26q72 0 127 -32l-37 -115q-42 23 -86 23q-34 0 -57.5 -39t-49.5 -129zM315 1223l99 303h141v-39l-164 -264h-76z" />
<glyph unicode="&#xf3a2;`" horiz-adv-x="759" d="M315 0v420l-301 655h152l201 -463l22 -98h2l23 100l194 461h140l-299 -653v-422h-134zM328 1223l98 303h141v-39l-164 -264h-75z" />
<glyph unicode="&#xf3a3;`" horiz-adv-x="759" d="M123 313v109h190l-299 653h152l201 -463l22 -98h2l23 100l194 461h140l-299 -653h192v-109h-192v-313h-134v313h-192zM338 1223l98 303h142v-39l-164 -264h-76z" />
<glyph unicode="&#xf3b2;`" horiz-adv-x="788" d="M639 0l-88 289h-324l-84 -289h-129l342 1090h76l342 -1090h-135zM356 711l-92 -301h252l-94 303l-31 166h-2zM137 1440l109 47q24 -180 153 -180q58 0 100 43.5t56 134.5l92 -35q-13 -113 -82.5 -177.5t-169.5 -64.5q-97 0 -169.5 59.5t-88.5 172.5zM346 1434l96 303h142 v-39l-166 -264h-72z" />
<glyph unicode="&#xf3b3;`" horiz-adv-x="788" d="M639 0l-88 289h-324l-84 -289h-129l342 1090h76l342 -1090h-135zM356 711l-92 -301h252l-94 303l-31 166h-2zM127 1401q0 41 22 65.5t58 24.5q34 0 55 -24.5t21 -65.5q0 -40 -21 -64t-55 -24q-35 0 -57.5 24t-22.5 64zM500 1401q0 41 20.5 65.5t54.5 24.5q36 0 58 -24.5 t22 -65.5q0 -40 -22.5 -64t-57.5 -24q-34 0 -54.5 24t-20.5 64zM272 1253l97 283h120v-39l-155 -244h-62z" />
<glyph unicode="&#xf3b4;`" horiz-adv-x="1146" d="M516 891h-6l-43 -156l-162 -319h211v475zM516 0v295h-268l-144 -295h-139l549 1075h518v-121h-383v-344h350v-121h-350v-368h389v-121h-522zM541 1223l98 303h141v-39l-164 -264h-75z" />
<glyph unicode="&#xf3b5;`" horiz-adv-x="772" d="M141 0v1075h516v-121h-383v-344h351v-121h-351v-368h392v-121h-525zM150 1440l108 47q24 -180 154 -180q58 0 99.5 43.5t55.5 134.5l92 -35q-13 -113 -82 -177.5t-169 -64.5q-97 0 -169.5 59.5t-88.5 172.5zM358 1434l97 303h141v-39l-166 -264h-72z" />
<glyph unicode="&#xf3b6;`" horiz-adv-x="884" d="M659 487h-432q-4 -66 -4 -100q2 -121 53 -203t150 -82q230 0 233 385zM102 608h557q-11 185 -74 275t-192 90q-55 0 -109.5 -18t-90.5 -42l-37 109q46 30 116 51t144 21q187 0 282 -133t95 -422q0 -271 -91.5 -414t-277.5 -143q-162 0 -248 117.5t-86 320.5q0 109 12 188 zM365 1223l98 303h141v-39l-164 -264h-75z" />
<glyph unicode="&#xf3b7;`" horiz-adv-x="884" d="M659 487h-432q-4 -66 -4 -100q2 -121 53 -203t150 -82q230 0 233 385zM102 608h557q-11 185 -74 275t-192 90q-55 0 -109.5 -18t-90.5 -42l-37 109q46 30 116 51t144 21q187 0 282 -133t95 -422q0 -271 -91.5 -414t-277.5 -143q-162 0 -248 117.5t-86 320.5q0 109 12 188 zM156 1401q0 41 22 65.5t58 24.5q34 0 54.5 -24.5t20.5 -65.5q0 -40 -20.5 -64t-54.5 -24q-35 0 -57.5 24t-22.5 64zM528 1401q0 41 21 65.5t55 24.5q36 0 58 -24.5t22 -65.5q0 -40 -22.5 -64t-57.5 -24q-34 0 -55 24t-21 64zM301 1253l96 283h121v-39l-156 -244h-61z" />
<glyph unicode="&#xf3bb;`" horiz-adv-x="954" d="M680 0v672l12 153h-6l-57 -157l-408 -668h-80v1075h133v-676l-14 -151h8l60 155l407 672h78v-1075h-133zM248 1251v111h483v-111h-483zM416 1448l98 303h141v-39l-163 -264h-76z" />
<glyph unicode="&#xf3bc;`" horiz-adv-x="954" d="M680 0v672l12 153h-6l-57 -157l-408 -668h-80v1075h133v-676l-14 -151h8l60 155l407 672h78v-1075h-133zM219 1401q0 41 22 65.5t58 24.5q34 0 55 -24.5t21 -65.5q0 -40 -21 -64t-55 -24q-35 0 -57.5 24t-22.5 64zM592 1401q0 41 21 65.5t55 24.5q36 0 58 -24.5t22 -65.5 q0 -40 -22.5 -64t-57.5 -24q-34 0 -55 24t-21 64zM365 1253l96 283h121v-39l-156 -244h-61z" />
<glyph unicode="&#xf3bd;`" horiz-adv-x="946" d="M94 539q0 273 95.5 414t283.5 141q195 0 288 -145t93 -410q0 -273 -96.5 -415t-284.5 -142q-379 0 -379 557zM231 539q0 -127 23 -221.5t78.5 -155t140.5 -60.5q244 0 244 437q0 92 -13.5 168t-41.5 137t-76 95t-113 34q-242 0 -242 -434zM215 1401q0 41 22 65.5t58 24.5 q34 0 55 -24.5t21 -65.5q0 -40 -21 -64t-55 -24q-35 0 -57.5 24t-22.5 64zM588 1401q0 41 21 65.5t55 24.5q35 0 57 -24.5t22 -65.5q0 -40 -22 -64t-57 -24q-34 0 -55 24t-21 64zM360 1253l97 283h121v-39l-156 -244h-62z" />
<glyph unicode="&#xf3be;`" horiz-adv-x="946" d="M94 539q0 273 95.5 414t283.5 141q195 0 288 -145t93 -410q0 -273 -96.5 -415t-284.5 -142q-379 0 -379 557zM473 102q229 0 244 383h-486q5 -114 30 -196.5t79 -134.5t133 -52zM473 973q-225 0 -242 -367h486q-10 166 -69.5 266.5t-174.5 100.5zM410 1223l98 303h141 v-39l-164 -264h-75z" />
<glyph unicode="&#xf3bf;`" horiz-adv-x="946" d="M94 539q0 273 95.5 414t283.5 141q195 0 288 -145t93 -410q0 -273 -96.5 -415t-284.5 -142q-379 0 -379 557zM473 102q229 0 244 383h-486q5 -114 30 -196.5t79 -134.5t133 -52zM473 973q-225 0 -242 -367h486q-10 166 -69.5 266.5t-174.5 100.5zM209 1401q0 41 22 65.5 t58 24.5q34 0 55 -24.5t21 -65.5q0 -40 -21 -64t-55 -24q-35 0 -57.5 24t-22.5 64zM582 1401q0 41 20.5 65.5t54.5 24.5q36 0 58 -24.5t22 -65.5q0 -40 -22.5 -64t-57.5 -24q-34 0 -54.5 24t-20.5 64zM354 1253l97 283h120v-39l-155 -244h-62z" />
<glyph unicode="&#xf3c0;`" horiz-adv-x="802" d="M207 489v121h368q-7 178 -82.5 270.5t-201.5 92.5q-107 0 -191 -49l-37 108q106 62 242 62q91 0 162 -29.5t126.5 -93.5t85.5 -173t30 -259q0 -149 -33 -259t-93 -174t-135 -94t-167 -30q-125 0 -213 43l36 118q77 -41 185 -41q119 0 200.5 96.5t88.5 290.5h-371z M70 1401q0 41 22 65.5t58 24.5q34 0 54.5 -24.5t20.5 -65.5q0 -40 -20.5 -64t-54.5 -24q-35 0 -57.5 24t-22.5 64zM442 1401q0 41 21 65.5t55 24.5q36 0 58 -24.5t22 -65.5q0 -40 -22.5 -64t-57.5 -24q-34 0 -55 24t-21 64zM215 1253l96 283h121v-39l-156 -244h-61z" />
<glyph unicode="&#xf3c1;`" horiz-adv-x="745" d="M162 1075l217 -549l35 -139h6l24 143l164 545h133l-233 -708q-22 -68 -36 -108.5t-31.5 -86t-31.5 -70t-31 -49t-35.5 -36t-41 -18.5t-49.5 -7q-79 0 -125 35l39 110q40 -24 84 -24q35 0 58.5 42.5t41.5 127.5l-338 792h150zM143 1251v111h484v-111h-484zM309 1448 l99 303h141v-39l-164 -264h-76z" />
<glyph unicode="&#xf3c2;`" horiz-adv-x="745" d="M162 1075l217 -549l35 -139h6l24 143l164 545h133l-233 -708q-22 -68 -36 -108.5t-31.5 -86t-31.5 -70t-31 -49t-35.5 -36t-41 -18.5t-49.5 -7q-79 0 -125 35l39 110q40 -24 84 -24q35 0 58.5 42.5t41.5 127.5l-338 792h150zM131 1401q0 41 22 65.5t58 24.5 q34 0 55 -24.5t21 -65.5q0 -40 -21 -64t-55 -24q-35 0 -57.5 24t-22.5 64zM504 1401q0 41 21 65.5t55 24.5q35 0 57 -24.5t22 -65.5q0 -40 -22 -64t-57 -24q-34 0 -55 24t-21 64zM276 1253l97 283h121v-39l-156 -244h-62z" />
<glyph unicode="&#xf3c3;`" horiz-adv-x="745" d="M162 1075l217 -549l35 -139h6l24 143l164 545h133l-233 -708q-22 -68 -36 -108.5t-31.5 -86t-31.5 -70t-31 -49t-35.5 -36t-41 -18.5t-49.5 -7q-79 0 -125 35l39 110q40 -24 84 -24q35 0 58.5 42.5t41.5 127.5l-338 792h150zM201 1221l24 264h123v-33l-82 -231h-65z M430 1221l170 264h135v-33l-235 -231h-70zM358 1325l99 303h137v-39l-162 -264h-74z" />
<glyph unicode="&#xf3c6;`" horiz-adv-x="1103" d="M829 0v1075h134v-1075h-134zM141 8v1067h133v-409q54 12 113 12q68 0 123.5 -16t101.5 -52t71.5 -102t25.5 -158q0 -182 -92 -273t-261 -91q-129 0 -215 22zM369 106q95 0 148.5 60t53.5 174q0 117 -54.5 167t-151.5 50q-56 0 -91 -14v-426q32 -11 95 -11zM281 1401 q0 41 22 65.5t57 24.5q34 0 55 -24.5t21 -65.5q0 -40 -21 -64t-55 -24q-35 0 -57 24t-22 64zM653 1401q0 41 21 65.5t55 24.5q36 0 58 -24.5t22 -65.5q0 -40 -22.5 -64t-57.5 -24q-34 0 -55 24t-21 64zM426 1253l96 283h121v-39l-156 -244h-61z" />
<glyph unicode="&#xf769;&#xf76a;" horiz-adv-x="868" d="M172 0v1075h133v-1075h-133zM580 274v801h133v-827q0 -126 -49 -195t-150 -69q-80 0 -129 24l27 113q39 -17 80 -17q52 0 70 42t18 128z" />
<glyph unicode="ff" horiz-adv-x="989" d="M631 909h-340v-909h-127v909h-127v115h127v57q0 194 52.5 279.5t182.5 85.5q93 0 168 -33l-28 -108q-55 26 -129 26q-18 0 -32.5 -3t-25.5 -10.5t-20 -15t-15.5 -23t-11 -26.5t-7 -34.5t-4 -38t-2.5 -45t-1 -48v-54.5v-9h340v57q0 194 52.5 279.5t182.5 85.5 q98 0 174 -35l-30 -108q-55 28 -133 28q-18 0 -32.5 -3t-25.5 -10.5t-20 -15t-15.5 -23t-11 -26.5t-7 -34.5t-4 -38t-2.5 -45t-1 -48v-54.5v-9h221v-115h-221v-909h-127v909z" />
<glyph unicode="fi" horiz-adv-x="882" d="M291 1024h463v-1024h-127v909h-336v-909h-127v909h-127v115h127v57q0 188 75 276.5t224 88.5q170 0 280 -62l-43 -106q-90 53 -231 53q-47 0 -80 -14t-52 -37.5t-29.5 -65t-13.5 -83.5t-3 -107z" />
<glyph unicode="fl" horiz-adv-x="950" d="M616 190v1135q-74 18 -159 18q-37 0 -65 -9t-46 -29.5t-29 -45t-16.5 -64t-7.5 -77.5t-2 -94h172v-115h-172v-909h-127v909h-127v115h127v57q0 194 68 285.5t221 91.5q65 0 155 -11t135 -26v-1210q0 -121 78 -121q53 0 105 23l10 -103q-25 -16 -69 -25.5t-83 -9.5 q-78 0 -123 51.5t-45 163.5z" />
<glyph unicode="ffi" horiz-adv-x="1347" d="M629 909h-338v-909h-127v909h-127v115h127v57q0 194 52.5 279.5t182.5 85.5q95 0 168 -33l-28 -108q-55 26 -129 26q-18 0 -32.5 -3t-25.5 -10.5t-20 -15t-15.5 -23t-11 -26.5t-7 -34.5t-4 -38t-2.5 -45t-1 -48v-54.5v-9h338v57q0 194 75 279.5t226 85.5q188 0 287 -70 l-43 -106q-85 61 -234 61q-48 0 -81 -12.5t-53.5 -34.5t-31.5 -62.5t-14.5 -85t-3.5 -112.5h465v-1024h-127v909h-338v-909h-127v909z" />
<glyph unicode="ffl" horiz-adv-x="1415" d="M631 909h-340v-909h-127v909h-127v115h127v57q0 194 52.5 279.5t182.5 85.5q93 0 168 -33l-28 -108q-55 26 -129 26q-18 0 -32.5 -3t-25.5 -10.5t-20 -15t-15.5 -23t-11 -26.5t-7 -34.5t-4 -38t-2.5 -45t-1 -48v-54.5v-9h340v57q0 194 68 285.5t221 91.5q71 0 158 -11 t134 -26v-1198q0 -133 76 -133q51 0 103 23l10 -105q-24 -16 -67.5 -24.5t-80.5 -8.5q-78 0 -123 55.5t-45 174.5v1122q-66 16 -163 16q-45 0 -75.5 -15.5t-48 -40t-26.5 -69t-11.5 -86t-2.5 -108.5h180v-115h-180v-909h-127v909z" />
<glyph unicode=" "  horiz-adv-x="438" />
<glyph unicode="&#x09;" horiz-adv-x="438" />
<glyph unicode="&#xa0;" horiz-adv-x="438" />
<glyph unicode="!" horiz-adv-x="503" d="M215 715v719h133v-719l-29 -367h-77zM186 82q0 53 24.5 79.5t68.5 26.5t69 -26.5t25 -79.5t-25 -80t-69 -27t-68.5 27t-24.5 80z" />
<glyph unicode="&#x22;" horiz-adv-x="555" d="M348 1049v385h127l-53 -385h-74zM147 1049v385h127l-53 -385h-74z" />
<glyph unicode="#" d="M406 123l65 348h-174l-66 -348h-108l65 348h-129l23 107h127l57 299h-125l23 106h123l63 328h109l-64 -328h174l64 328h110l-63 -328h127l-25 -106h-123l-57 -299h123l-25 -107h-118l-66 -348h-110zM375 877l-58 -299h175l57 299h-174z" />
<glyph unicode="$" d="M408 -205v180q-176 3 -273 62l43 121q91 -63 230 -68v610q-50 34 -80 56.5t-71 63t-63 79.5t-38.5 96.5t-16.5 124.5q0 131 69.5 221t199.5 111v186h108v-180q134 -5 234 -49l-43 -117q-78 40 -191 45v-551q54 -38 83.5 -60.5t73 -65t66.5 -81t40.5 -96.5t17.5 -123 q0 -146 -73 -247t-208 -127v-191h-108zM664 352q0 66 -24.5 121.5t-57.5 90.5t-86 75v-541q76 20 122 85t46 169zM272 1124q0 -87 39.5 -150t114.5 -122v483q-80 -16 -117 -76t-37 -135z" />
<glyph unicode="%" horiz-adv-x="1267" d="M119 1110q0 180 68 264t182 84q252 0 252 -348t-252 -348q-250 0 -250 348zM233 1110q0 -248 136 -248q69 0 103 53t34 195q0 140 -34.5 194t-102.5 54q-67 0 -101.5 -54.5t-34.5 -193.5zM696 348q0 180 68 264t182 84q252 0 252 -348t-252 -348q-250 0 -250 348z M811 348q0 -248 135 -248q69 0 103 53t34 195q0 140 -34.5 194t-102.5 54q-67 0 -101 -54.5t-34 -193.5zM193 27l841 1433l86 -49l-841 -1436z" />
<glyph unicode="&#x26;" horiz-adv-x="1335" d="M197 381q0 275 282 500q-32 63 -50.5 104.5t-35 102t-16.5 114.5q0 107 59 181.5t178 74.5q124 0 182 -67t58 -164q0 -89 -57 -182t-168 -181q56 -120 138 -256.5t163 -242.5q67 93 125 311l102 -39q-19 -70 -68.5 -184.5t-87.5 -176.5q118 -145 211 -210l-84 -91 q-94 61 -198 197q-71 -89 -156.5 -143t-202.5 -54q-78 0 -145 25.5t-118.5 74.5t-81 127.5t-29.5 178.5zM854 256q-89 119 -179.5 271.5t-137.5 260.5q-104 -97 -158.5 -189t-54.5 -218q0 -136 77 -213.5t187 -77.5q78 0 152 50t114 116zM504 1204q0 -115 71 -254 q152 127 152 248q0 150 -109 150q-114 0 -114 -144z" />
<glyph unicode="'" horiz-adv-x="356" d="M147 1049v385h127l-53 -385h-74z" />
<glyph unicode="(" horiz-adv-x="458" d="M453 -395l-80 -56q-142 183 -208.5 438.5t-66.5 510.5q0 161 25.5 320.5t90 332.5t163.5 307l76 -47q-122 -195 -175 -434t-53 -479q0 -223 57.5 -474t170.5 -419z" />
<glyph unicode=")" horiz-adv-x="458" d="M4 1407l84 51q140 -183 206 -438t66 -510q0 -161 -25 -320.5t-90 -333t-163 -307.5l-74 50q225 359 225 911q0 225 -57.5 477t-171.5 420z" />
<glyph unicode="*" horiz-adv-x="579" d="M131 1382l82 48l41 -76l33 -103l35 105l40 71l80 -45l-43 -75l-77 -90l112 18h82v-94h-76l-108 20l76 -88l41 -69l-80 -50l-43 76l-39 111l-33 -107l-41 -73l-84 47l45 75l70 78l-97 -20h-86v94h86l105 -18l-76 81z" />
<glyph unicode="+" horiz-adv-x="835" d="M72 635v119h286v325h119v-325h287v-119h-287v-324h-119v324h-286z" />
<glyph unicode="," horiz-adv-x="366" d="M76 78q0 46 27.5 75t68.5 29q53 0 83 -42.5t30 -127.5q0 -117 -53.5 -201t-122.5 -112l-43 63q55 27 88.5 91.5t31.5 128.5q-18 -7 -28 -7q-35 0 -58.5 28.5t-23.5 74.5z" />
<glyph unicode="-" horiz-adv-x="593" d="M98 524v119h398v-119h-398z" />
<glyph unicode="." horiz-adv-x="350" d="M82 82q0 106 92 106q44 0 69 -26.5t25 -79.5t-25 -80t-69 -27t-68 27t-24 80z" />
<glyph unicode="/" horiz-adv-x="577" d="M-61 -250l600 1708l100 -39l-598 -1706z" />
<glyph unicode="0" d="M84 717q0 386 93.5 563.5t281.5 177.5q196 0 285.5 -175t89.5 -566q0 -386 -93.5 -564t-279.5 -178q-198 0 -287.5 176.5t-89.5 565.5zM217 717q0 -627 246 -627q124 0 180.5 149.5t56.5 477.5q0 152 -12.5 264.5t-40.5 195t-75 124.5t-113 42q-125 0 -183.5 -149 t-58.5 -477z" />
<glyph unicode="1" d="M201 0v121h229v1038l16 117l-65 -92l-180 -148l-70 82l367 340h59v-1337h223v-121h-579z" />
<glyph unicode="2" d="M741 1126q0 -142 -59 -321t-138 -326.5t-171 -279.5l-80 -90v-7l104 19h369v-121h-651v49q52 65 109.5 147.5t128 201t125.5 233t92.5 242.5t37.5 231q0 111 -49.5 175t-142.5 64q-117 0 -217 -77l-49 92q55 46 132.5 73t159.5 27q144 0 221.5 -92t77.5 -240z" />
<glyph unicode="3" d="M395 90q114 0 188 91.5t74 232.5q0 153 -67 228t-189 75h-122v41l245 485l74 84l-106 -14h-332v121h581v-41l-268 -512l-57 -60v-4l55 14q136 0 224.5 -105t88.5 -292q0 -213 -112 -336t-281 -123q-135 0 -233 45l35 117q83 -47 202 -47z" />
<glyph unicode="4" d="M872 565v-114h-194v-451h-127v451h-504v49l545 958h86v-893h194zM551 565v490l24 174h-8l-59 -154l-240 -418l-78 -106l115 14h246z" />
<glyph unicode="5" d="M354 90q122 0 196.5 92t74.5 252t-72.5 241t-202.5 81l-137 -11v689h508v-125h-389v-443l71 4q163 0 256 -111t93 -313q0 -220 -112.5 -345.5t-281.5 -125.5q-129 0 -219 35l31 113q67 -33 184 -33z" />
<glyph unicode="6" d="M819 430q0 -207 -92 -331t-258 -124q-170 0 -263 127t-93 373q0 171 28 319.5t78 260t119 196t150.5 135.5t173.5 72l36 -102q-183 -52 -302.5 -228.5t-147.5 -425.5q27 60 92.5 101t155.5 41q152 0 237.5 -105.5t85.5 -308.5zM686 414q0 159 -54.5 237t-168.5 78 q-78 0 -138 -49.5t-83 -118.5q-2 -19 -2 -102q0 -97 24 -178.5t78 -136t129 -54.5q97 0 156 88t59 236z" />
<glyph unicode="7" d="M330 0h-129l422 1231l71 100l-96 -18h-477v121h682v-50z" />
<glyph unicode="8" d="M125 328q0 133 55 231.5t172 181.5q-62 44 -102 87.5t-69 115t-29 160.5q0 164 84.5 259t232.5 95q136 0 216.5 -87t80.5 -234q0 -117 -44.5 -209t-143.5 -180q48 -34 82 -66.5t67 -79t49.5 -108t16.5 -136.5q0 -174 -90.5 -278.5t-251.5 -104.5q-153 0 -239.5 98 t-86.5 255zM666 350q0 52 -13 96.5t-31.5 76.5t-52 64.5t-60 53t-69.5 49.5q-96 -68 -142 -158.5t-46 -185.5q0 -112 53.5 -184t151.5 -72q90 0 149.5 65.5t59.5 194.5zM276 1110q0 -56 16 -103t48.5 -85t65.5 -65.5t83 -61.5q154 154 154 311q0 113 -51 175t-127 62 q-87 0 -138 -67t-51 -166z" />
<glyph unicode="9" d="M100 1004q0 214 91.5 334t263.5 120q169 0 260.5 -129t91.5 -383q0 -223 -41 -398.5t-116 -292t-173.5 -186t-220.5 -94.5l-35 105q195 52 308.5 212.5t140.5 409.5q-42 -62 -96.5 -87t-143.5 -25q-141 0 -235.5 109t-94.5 305zM233 1020q0 -149 60.5 -232t163.5 -83 q79 0 137 35.5t84 93.5q2 19 2 100q0 113 -23.5 203t-77.5 148t-133 58q-100 0 -156.5 -87t-56.5 -236z" />
<glyph unicode=":" horiz-adv-x="368" d="M156 926q0 106 92 106q44 0 69 -26.5t25 -79.5t-25 -80t-69 -27t-68 27t-24 80zM156 106q0 53 24 80t68 27t69 -27t25 -80t-25 -79.5t-69 -26.5q-92 0 -92 106z" />
<glyph unicode=";" horiz-adv-x="393" d="M156 78q0 46 27.5 75t68.5 29q53 0 83 -42.5t30 -127.5q0 -117 -54 -201t-123 -112l-43 63q55 27 89 91.5t32 128.5q-18 -7 -28 -7q-35 0 -58.5 28.5t-23.5 74.5zM180 926q0 106 92 106q44 0 69.5 -27t25.5 -79q0 -53 -25.5 -80t-69.5 -27t-68 27t-24 80z" />
<glyph unicode="&#x3c;" horiz-adv-x="835" d="M692 193l-618 440v41l608 456l74 -96l-396 -301l-149 -78l147 -65l404 -299z" />
<glyph unicode="=" horiz-adv-x="835" d="M72 799v119h692v-119h-692zM72 471v119h692v-119h-692z" />
<glyph unicode="&#x3e;" horiz-adv-x="835" d="M147 1130l615 -436v-41l-606 -456l-76 96l397 301l150 78l-148 65l-405 299z" />
<glyph unicode="?" horiz-adv-x="720" d="M358 348h-104q-6 98 19.5 184t66.5 151t83 128t72.5 143t30.5 168q0 221 -190 221q-110 0 -217 -73l-49 98q66 44 136 67t163 23q142 0 216 -85t74 -234q0 -95 -31 -181.5t-75.5 -153.5t-88.5 -133t-75 -149t-31 -174zM223 82q0 106 92 106q44 0 69.5 -27t25.5 -79 q0 -53 -25.5 -80t-69.5 -27t-68 27t-24 80z" />
<glyph unicode="@" horiz-adv-x="1742" d="M1108 950l53 60h51l-84 -604q-16 -122 -16 -181q0 -110 64 -110q57 0 112 39t99 108t71 175.5t27 230.5q0 287 -157.5 443.5t-426.5 156.5q-133 0 -250.5 -56t-204.5 -155t-137.5 -244t-50.5 -315q0 -178 47.5 -316.5t133.5 -225.5t201 -131t255 -44q52 0 115.5 13 t107.5 36l33 -102q-122 -56 -274 -56q-120 0 -227 29.5t-200.5 93.5t-161 157.5t-106.5 229t-39 301.5q0 165 39.5 308t110.5 249t166.5 182.5t210 115t239.5 38.5q151 0 276.5 -46t218 -133t144 -222.5t51.5 -306.5q0 -186 -61 -340t-163.5 -241t-223.5 -87 q-83 0 -119 48.5t-22 166.5h-6q-52 -92 -128 -153.5t-161 -61.5q-88 0 -146.5 80t-58.5 221q0 202 58.5 369t157 260.5t214.5 93.5q54 0 91.5 -18.5t76.5 -55.5zM1014 389l55 445q-28 41 -57 58t-72 17q-83 0 -154 -83.5t-110 -216.5t-39 -279q0 -215 123 -215 q61 0 131.5 82.5t122.5 191.5z" />
<glyph unicode="A" horiz-adv-x="956" d="M807 0l-123 418h-422l-119 -418h-129l435 1458h57l438 -1458h-137zM432 1001l-131 -462h346l-133 467l-39 213h-2z" />
<glyph unicode="B" horiz-adv-x="956" d="M829 1108q0 -72 -21.5 -139.5t-73 -125.5t-124.5 -81v-8q111 -23 182.5 -105.5t71.5 -238.5q0 -108 -34.5 -191.5t-94 -133.5t-135.5 -75.5t-164 -25.5q-208 0 -295 26v1411q145 29 316 29q372 0 372 -342zM451 104q119 0 197.5 77t78.5 212q0 67 -18 118t-46 81 t-69.5 48.5t-82.5 25t-91 6.5h-146v-551q53 -17 177 -17zM274 786h88q72 0 136 11q83 33 138.5 107t55.5 173q0 133 -68 192.5t-180 59.5q-124 0 -170 -12v-531z" />
<glyph unicode="C" horiz-adv-x="937" d="M840 162l34 -107q-93 -80 -286 -80q-111 0 -199.5 43t-155.5 131t-103 232t-36 336q0 157 27 283.5t73 210.5t110 140.5t135 81.5t151 25q161 0 268 -49l-35 -119q-83 47 -223 47q-74 0 -137.5 -32.5t-117 -102t-84 -193.5t-30.5 -292q0 -305 106.5 -463t283.5 -158 q127 0 219 66z" />
<glyph unicode="D" horiz-adv-x="1073" d="M141 -2v1436q98 16 301 16q537 0 537 -723q0 -123 -17 -229t-57 -202.5t-102 -165t-157.5 -108.5t-217.5 -40q-56 0 -153.5 5t-133.5 11zM446 1329q-133 0 -172 -10v-1208q14 -3 75.5 -6t84.5 -3q92 0 163 33t117 89t75 137.5t41 170.5t12 195q0 97 -10 179t-37.5 162.5 t-71 136t-114.5 90t-163 34.5z" />
<glyph unicode="E" horiz-adv-x="878" d="M141 0v1434h621v-121h-488v-512h449v-121h-449v-559h498v-121h-631z" />
<glyph unicode="F" horiz-adv-x="845" d="M141 0v1434h621v-121h-488v-533h455v-121h-455v-659h-133z" />
<glyph unicode="G" horiz-adv-x="1003" d="M526 633v76h385v-631q-52 -47 -139.5 -75t-177.5 -28q-236 0 -368 184t-132 558q0 192 43 339t116 232.5t161.5 127.5t189.5 42q167 0 270 -49l-34 -119q-83 47 -226 47q-59 0 -112.5 -19.5t-103.5 -65.5t-86.5 -115.5t-58.5 -177t-22 -242.5q0 -309 100.5 -465 t282.5 -156q110 0 183 51v447z" />
<glyph unicode="H" horiz-adv-x="1103" d="M829 0v676h-555v-676h-133v1434h133v-637h555v637h134v-1434h-134z" />
<glyph unicode="I" horiz-adv-x="477" d="M172 0v1434h133v-1434h-133z" />
<glyph unicode="J" horiz-adv-x="475" d="M180 330v1104h133v-1129q0 -166 -53.5 -244.5t-177.5 -78.5q-32 0 -75 8t-64 20l26 117q42 -25 101 -25q29 0 49 11t32 28.5t18.5 48.5t8.5 62.5t2 77.5z" />
<glyph unicode="K" horiz-adv-x="999" d="M774 0l-424 674h-76v-674h-133v1434h133v-674l74 28l389 646h152l-385 -621l-68 -65l82 -82l422 -666h-166z" />
<glyph unicode="L" horiz-adv-x="847" d="M817 121v-121h-676v1434h133v-1313h543z" />
<glyph unicode="M" horiz-adv-x="1296" d="M1022 0v987l18 205h-8l-63 -195l-299 -647h-43l-318 647l-59 195h-8l26 -205v-987h-127v1434h105l354 -723l53 -166h2l50 168l339 721h111v-1434h-133z" />
<glyph unicode="N" horiz-adv-x="1103" d="M893 -25l-553 979l-88 220h-6l22 -220v-954h-127v1458h70l557 -975l82 -209h8l-20 209v951h127v-1459h-72z" />
<glyph unicode="O" horiz-adv-x="1122" d="M94 717q0 365 116.5 553t348.5 188q469 0 469 -741q0 -365 -117.5 -553.5t-351.5 -188.5q-465 0 -465 742zM231 717q0 -126 19 -235t57 -197t103 -138.5t149 -50.5q163 0 247.5 155t84.5 466q0 127 -18.5 235t-57 196t-104 138.5t-152.5 50.5q-160 0 -244 -155t-84 -465z " />
<glyph unicode="P" horiz-adv-x="915" d="M141 0v1419q104 31 275 31q67 0 126 -11.5t117.5 -42t100 -78t67 -125t25.5 -177.5q0 -124 -36.5 -216.5t-100.5 -146t-141.5 -79t-167.5 -25.5q-101 0 -132 8v-557h-133zM418 1329q-105 0 -144 -10v-639q25 -10 127 -10q314 0 314 346q0 85 -24 148t-66.5 98t-93.5 51 t-113 16z" />
<glyph unicode="Q" horiz-adv-x="1122" d="M1155 -209v-119q-71 -24 -156 -24q-74 0 -159.5 21.5t-150 47t-138.5 47t-127 21.5q-45 0 -74 -10v119q46 12 92 12q60 -1 134.5 -22.5t136 -47t143 -46.5t152.5 -21q67 0 147 22zM94 717q0 365 116.5 553t348.5 188q469 0 469 -741q0 -365 -117.5 -553.5t-351.5 -188.5 q-465 0 -465 742zM231 717q0 -126 19 -235t57 -197t103 -138.5t149 -50.5q163 0 247.5 155t84.5 466q0 127 -18.5 235t-57 196t-104 138.5t-152.5 50.5q-160 0 -244 -155t-84 -465z" />
<glyph unicode="R" horiz-adv-x="974" d="M141 0v1419q136 31 287 31q82 0 147.5 -20t118.5 -64.5t82 -122.5t29 -186q0 -163 -69.5 -266t-190.5 -136l78 -80l284 -575h-151l-320 637l-162 33v-670h-133zM434 1329q-114 0 -160 -12v-561h127q126 0 196.5 76t70.5 225q0 121 -61.5 196.5t-172.5 75.5z" />
<glyph unicode="S" horiz-adv-x="870" d="M659 346q0 68 -30.5 126.5t-79.5 103t-107.5 87.5t-117.5 89.5t-108 97.5t-79.5 123t-30.5 157q0 158 97.5 243t265.5 85q193 0 303 -63l-41 -119q-41 26 -111.5 43.5t-156.5 17.5q-112 0 -167.5 -56t-55.5 -146q0 -61 30.5 -115.5t79.5 -98t107.5 -87.5t117.5 -92 t108 -102t79.5 -128t30.5 -160q0 -173 -106 -275t-294 -102q-204 0 -319 72l45 127q46 -31 118 -54.5t156 -23.5q121 0 193.5 63t72.5 187z" />
<glyph unicode="T" horiz-adv-x="911" d="M881 1434v-121h-359v-1313h-133v1313h-358v121h850z" />
<glyph unicode="U" horiz-adv-x="1064" d="M801 520v914h127v-967q0 -250 -97 -366.5t-284 -116.5q-211 0 -310.5 110t-99.5 340v1000h133v-914q0 -229 63.5 -322.5t215.5 -93.5q140 0 196 96.5t56 319.5z" />
<glyph unicode="V" horiz-adv-x="929" d="M141 1434l293 -1012l41 -213h2l43 217l279 1008h133l-434 -1459h-58l-442 1459h143z" />
<glyph unicode="W" horiz-adv-x="1353" d="M154 1434l206 -983l29 -238h2l25 242l237 979h68l237 -983l27 -238h2l29 242l194 979h131l-321 -1459h-74l-233 979l-29 217h-6l-31 -219l-231 -977h-74l-328 1459h140z" />
<glyph unicode="X" horiz-adv-x="1011" d="M45 0l383 729l-350 705h155l238 -502l41 -113l41 113l248 502h145l-360 -691l377 -743h-152l-260 530l-47 119l-43 -119l-268 -530h-148z" />
<glyph unicode="Y" horiz-adv-x="913" d="M393 0v578l-379 856h152l272 -643l27 -119h4l29 123l260 639h141l-373 -854v-580h-133z" />
<glyph unicode="Z" horiz-adv-x="897" d="M63 0v121l588 1112l66 80h-654v121h771v-121l-590 -1118l-64 -74h654v-121h-771z" />
<glyph unicode="[" horiz-adv-x="499" d="M141 -471v1905h295v-115h-168v-1675h168v-115h-295z" />
<glyph unicode="\" horiz-adv-x="624" d="M49 1458l606 -1704l-106 -41l-610 1704z" />
<glyph unicode="]" horiz-adv-x="499" d="M358 1434v-1905h-295v115h168v1675h-168v115h295z" />
<glyph unicode="^" horiz-adv-x="835" d="M92 901l305 557h43l277 -557h-131l-131 283l-39 139l-51 -141l-152 -281h-121z" />
<glyph unicode="_" horiz-adv-x="665" d="M0 -412v113h666v-113h-666z" />
<glyph unicode="`" horiz-adv-x="505" d="M274 1475l109 -304h-72l-188 265v39h151z" />
<glyph unicode="a" horiz-adv-x="813" d="M162 864l-45 99q56 36 140.5 56.5t174.5 20.5q66 0 114 -18t75 -45.5t43 -70t21 -82.5t5 -91q0 -89 -4 -248.5t-4 -226.5q0 -180 20 -262h-92l-35 119h-8q-78 -129 -252 -129q-109 0 -179 77.5t-70 208.5q0 85 29 146t85 96t127.5 50.5t165.5 15.5q57 0 88 -2q4 45 4 120 q0 126 -36.5 177t-131.5 51q-56 0 -124 -18t-111 -44zM346 100q85 0 138 41t77 101v227q-47 6 -92 6q-270 0 -270 -192q0 -84 40 -133.5t107 -49.5z" />
<glyph unicode="b" horiz-adv-x="884" d="M127 57v1377h127v-490h6q84 105 225 105q161 0 240.5 -128t79.5 -395q0 -268 -103.5 -405t-295.5 -137q-87 0 -163.5 21t-115.5 52zM254 758v-623q61 -37 170 -37q117 0 182.5 109t65.5 323q0 404 -213 404q-76 0 -128 -46t-77 -130z" />
<glyph unicode="c" horiz-adv-x="731" d="M643 152l41 -101q-98 -76 -252 -76q-350 0 -350 537q0 258 92 397.5t262 139.5q147 0 234 -52l-39 -110q-80 47 -182 47q-119 0 -176.5 -103t-57.5 -319q0 -91 13 -164t41 -132.5t78 -92.5t118 -33q105 0 178 62z" />
<glyph unicode="d" horiz-adv-x="880" d="M754 1434v-1084q0 -252 16 -354h-86l-33 123h-6q-31 -63 -94 -103.5t-143 -40.5q-167 0 -246.5 131.5t-79.5 405.5q0 254 99 391t272 137q61 0 96.5 -6.5t77.5 -23.5v424h127zM426 90q160 0 201 189v600q-31 26 -69 36.5t-101 10.5q-115 0 -178.5 -105.5t-63.5 -308.5 q0 -422 211 -422z" />
<glyph unicode="e" horiz-adv-x="837" d="M676 164l47 -96q-49 -44 -122 -68.5t-152 -24.5q-186 0 -276.5 142t-90.5 395q0 258 93 397.5t265 139.5q48 0 88 -8t82 -32.5t71.5 -64.5t48.5 -108.5t20 -159.5q0 -97 -9 -168h-526q0 -98 14 -172.5t45 -130.5t83.5 -85.5t125.5 -29.5q52 0 106.5 21.5t86.5 52.5z M442 934q-207 0 -227 -311h412v28q0 140 -50 211.5t-135 71.5z" />
<glyph unicode="f" horiz-adv-x="522" d="M37 909v115h127v57q0 194 52.5 279.5t182.5 85.5q103 0 174 -35l-32 -106q-64 26 -131 26q-29 0 -49 -6.5t-33 -25.5t-20.5 -38.5t-11 -60.5t-4.5 -76t-1 -100h221v-115h-221v-909h-127v909h-127z" />
<glyph unicode="g" horiz-adv-x="880" d="M754 979v-1036q0 -377 -334 -377q-168 0 -266 55l39 111q104 -51 208 -51q129 0 177.5 71t48.5 248v80h-6q-68 -105 -218 -105q-165 0 -243 131t-78 406q0 258 100 393t293 135q154 0 279 -61zM428 90q157 0 199 180v621q-62 35 -166 35q-116 0 -181 -103t-65 -311 q0 -422 213 -422z" />
<glyph unicode="h" horiz-adv-x="894" d="M782 0h-127v623q0 163 -37.5 237t-140.5 74q-76 0 -139.5 -55t-83.5 -138v-741h-127v1434h127v-506h6q99 121 254 121q142 0 205 -86.5t63 -303.5v-659z" />
<glyph unicode="i" horiz-adv-x="442" d="M158 0v1024h127v-1024h-127zM127 1341q0 46 25 74.5t65 28.5q38 0 65 -28.5t27 -74.5q0 -45 -26.5 -71.5t-65.5 -26.5q-40 0 -65 26.5t-25 71.5z" />
<glyph unicode="j" horiz-adv-x="436" d="M156 0v1024h127v-1081q0 -208 -64 -300t-203 -77v115q37 0 62.5 13.5t41 36.5t23.5 65.5t10.5 88t2.5 115.5zM127 1341q0 46 25 74.5t65 28.5q38 0 65 -28.5t27 -74.5q0 -45 -26.5 -71.5t-65.5 -26.5q-40 0 -65 26.5t-25 71.5z" />
<glyph unicode="k" horiz-adv-x="782" d="M610 0l-276 469h-80v-469h-127v1434h127v-879l72 29l256 440h147l-254 -416l-65 -65l82 -82l274 -461h-156z" />
<glyph unicode="l" horiz-adv-x="475" d="M270 1434v-1211q0 -129 76 -129q54 0 103 19l12 -101q-23 -14 -69 -23t-81 -9q-168 0 -168 215v1239h127z" />
<glyph unicode="m" horiz-adv-x="1327" d="M735 0h-127v612q0 180 -30.5 251t-126.5 71q-70 0 -122.5 -56t-74.5 -137v-741h-127v1024h88l25 -106h6q47 64 107.5 97.5t146.5 33.5q81 0 129.5 -34.5t75.5 -119.5q38 72 107.5 113t150.5 41q93 0 146 -33.5t79 -116t26 -229.5v-670h-127v659q0 148 -30 211.5 t-123 63.5q-155 0 -199 -193v-741z" />
<glyph unicode="n" horiz-adv-x="894" d="M782 0h-127v625q0 167 -38 238t-136 71q-83 0 -141 -49.5t-86 -130.5v-754h-127v1024h88l25 -106h6q43 58 111 94.5t153 36.5q94 0 151.5 -33.5t89 -120.5t31.5 -236v-659z" />
<glyph unicode="o" horiz-adv-x="878" d="M82 512q0 537 356 537q183 0 271 -132.5t88 -404.5q0 -537 -359 -537q-182 0 -269 132.5t-87 404.5zM215 512q0 -422 223 -422q114 0 170 102.5t56 319.5q0 196 -54 309t-172 113q-112 0 -167.5 -103t-55.5 -319z" />
<glyph unicode="p" horiz-adv-x="886" d="M127 -410v1434h88l23 -109h8q37 65 98 99.5t137 34.5q165 0 244.5 -123.5t79.5 -393.5q0 -257 -102.5 -407t-274.5 -150q-58 0 -94.5 8t-79.5 29v-422h-127zM457 934q-159 0 -203 -197v-590q67 -57 170 -57q115 0 181.5 118t66.5 324q0 402 -215 402z" />
<glyph unicode="q" horiz-adv-x="880" d="M754 977v-1387h-127v496h-6q-73 -111 -218 -111q-164 0 -242.5 131.5t-78.5 405.5q0 259 101 393.5t296 134.5q79 0 156.5 -19.5t118.5 -43.5zM424 90q157 0 203 193v606q-56 37 -170 37q-116 0 -179 -105t-63 -309q0 -92 11 -166t34.5 -133t65 -91t98.5 -32z" />
<glyph unicode="r" horiz-adv-x="552" d="M539 1024l-29 -129q-52 18 -94 18q-66 0 -108 -39t-54 -104v-770h-127v1024h88l25 -106h6q64 122 186 122q55 0 107 -16z" />
<glyph unicode="s" horiz-adv-x="688" d="M489 248q0 55 -22 97.5t-57 71.5t-77 55t-84.5 54.5t-77.5 62t-57 86t-22 118.5q0 125 69 190.5t193 65.5q145 0 242 -56l-33 -110q-90 51 -192 51q-78 0 -115 -34t-37 -105q0 -44 22 -80t57 -62.5t77.5 -52.5t84.5 -57t77 -68.5t57 -95.5t22 -129q0 -116 -76 -195.5 t-216 -79.5q-157 0 -258 62l36 115q101 -62 213 -62q77 0 125.5 40t48.5 118z" />
<glyph unicode="t" horiz-adv-x="555" d="M20 909v115h127v205l127 41v-246h226v-115h-226v-645q0 -90 23 -130t74 -40q55 0 139 31l29 -98q-89 -47 -211 -47q-97 0 -139 65.5t-42 212.5v651h-127z" />
<glyph unicode="u" horiz-adv-x="882" d="M113 1024h127v-631q0 -165 33.5 -234t121.5 -69q84 0 142 62t90 155v717h127v-737q0 -170 18 -287h-88l-33 145h-6q-39 -75 -106.5 -122.5t-159.5 -47.5q-54 0 -94 10t-73.5 36t-54.5 69.5t-32.5 111t-11.5 160.5v662z" />
<glyph unicode="v" horiz-adv-x="788" d="M158 1024l202 -614l46 -211h4l41 215l190 610h131l-348 -1049h-53l-355 1049h142z" />
<glyph unicode="w" horiz-adv-x="1206" d="M565 1024h90l191 -614l41 -203h4l31 207l151 610h119l-277 -1049h-61l-217 695l-31 180h-4l-31 -182l-211 -693h-59l-287 1049h136l167 -614l27 -203h4l39 207z" />
<glyph unicode="x" horiz-adv-x="831" d="M45 0l297 524l-276 500h151l162 -305l43 -111l43 111l166 305h139l-278 -492l294 -532h-143l-184 334l-45 117l-47 -117l-183 -334h-139z" />
<glyph unicode="y" horiz-adv-x="759" d="M162 1024l205 -682l47 -205h8l35 207l164 680h127l-242 -920q-19 -73 -32 -120.5t-32 -108t-35 -99t-38 -79.5t-44 -64t-49.5 -38t-58.5 -15q-55 0 -90 17l20 122q15 -6 33 -6q117 0 168 287l-328 1024h142z" />
<glyph unicode="z" horiz-adv-x="729" d="M70 0v115l391 706l67 88h-458v115h579v-115l-395 -712l-66 -82h461v-115h-579z" />
<glyph unicode="{" horiz-adv-x="565" d="M223 -272v514q0 100 -32.5 141t-98.5 41v115q131 0 131 174v522q0 201 156 201h137v-115h-82q-46 0 -65 -26t-19 -91v-518q0 -85 -32 -134.5t-82 -59.5v-13q48 -8 81 -64t33 -139v-516q0 -64 18.5 -90t67.5 -26h80v-115h-137q-156 0 -156 199z" />
<glyph unicode="|" horiz-adv-x="391" d="M141 -266v1700h109v-1700h-109z" />
<glyph unicode="}" horiz-adv-x="565" d="M377 1237v-514q0 -100 32.5 -141t98.5 -41v-115q-131 0 -131 -174v-522q0 -95 -38.5 -148t-115.5 -53h-139v115h82q47 0 65.5 25t18.5 91v519q0 85 32.5 134.5t84.5 59.5v12q-49 8 -83 63.5t-34 139.5v516q0 65 -18 91t-68 26h-80v115h139q154 0 154 -199z" />
<glyph unicode="~" horiz-adv-x="835" d="M113 629l-64 102q127 119 240 119q54 0 110.5 -28t107.5 -55.5t91 -27.5q58 0 125 70l63 -102q-113 -97 -211 -97q-41 0 -83 17.5t-71.5 38t-68.5 38t-73 17.5q-74 0 -166 -92z" />
<glyph unicode="&#xa1;" horiz-adv-x="503" d="M297 309v-719h-133v719l26 367h78zM131 934q0 106 92 106q44 0 69 -26.5t25 -79.5t-25 -80t-69 -27t-68 27t-24 80z" />
<glyph unicode="&#xa2;" d="M561 932v-842q98 5 170 66l41 -101q-76 -62 -199 -75v-185h-112v185q-299 43 -299 532q0 234 77 370.5t222 159.5v187h112v-182q111 -6 183 -50l-37 -112q-74 41 -158 47zM477 98v830q-93 -20 -137.5 -122.5t-44.5 -293.5q0 -362 182 -414z" />
<glyph unicode="&#xa3;" d="M88 662v114h109q-45 140 -45 289q0 196 89.5 294.5t250.5 98.5q178 0 290 -55l-43 -109q-96 49 -250 49q-98 0 -151 -71t-53 -203q0 -146 53 -293h266v-114h-227q41 -132 41 -250q0 -63 -18 -132.5t-46 -109.5l-78 -72v-8l119 25h422v-115h-729v117q66 2 112 46.5 t65.5 106t19.5 131.5q0 118 -47 261h-150z" />
<glyph unicode="&#xa4;" d="M16 1098l76 76l141 -138l39 -61q77 59 187 59q103 0 184 -59l41 61l141 138l74 -76l-137 -140l-62 -43q60 -79 60 -182q0 -108 -60 -186l62 -39l137 -141l-74 -76l-141 139l-39 59q-82 -57 -186 -57q-108 0 -187 57l-39 -59l-141 -139l-76 76l140 141l59 39 q-57 79 -57 186q0 106 57 185l-59 40zM266 733q0 -86 54 -142t139 -56q83 0 137.5 56t54.5 142q0 84 -54.5 141.5t-137.5 57.5q-84 0 -138.5 -57.5t-54.5 -141.5z" />
<glyph unicode="&#xa5;" d="M199 553v111h157l-340 770h152l272 -643l27 -119h4l29 123l260 639h141l-336 -770h160v-111h-197v-135h197v-111h-197v-307h-133v307h-196v111h196v135h-196z" />
<glyph unicode="&#xa6;" horiz-adv-x="391" d="M141 0v563h109v-563h-109zM250 1434v-564h-109v564h109z" />
<glyph unicode="&#xa7;" horiz-adv-x="811" d="M96 723q0 63 27 126t74 109l69 31q-52 39 -81 89t-29 130q0 110 70.5 180t193.5 70q143 0 244 -55l-33 -111q-97 51 -201 51q-72 0 -109.5 -36.5t-37.5 -94.5q0 -45 24 -80t62 -58t84.5 -44.5t93 -47.5t84.5 -59t62 -87.5t24 -124.5q0 -64 -25.5 -130t-70.5 -112l-76 -29 q110 -80 110 -215q0 -119 -74 -184.5t-194 -65.5q-146 0 -240 56l35 110q84 -51 193 -51q75 0 114 34.5t39 100.5q0 43 -24 76t-62 55.5t-84 44.5t-92 48.5t-84 60t-62 88.5t-24 125zM590 707q0 25 -6 47t-14 38t-25.5 33t-29 26.5t-38.5 24t-39.5 21t-45 21t-44.5 20.5 q-125 -70 -125 -211q0 -30 7.5 -56t25.5 -47.5t34 -36.5t47 -32.5t49.5 -26.5t55.5 -26q4 -2 11.5 -5t11.5 -5q51 30 88 89t37 126z" />
<glyph unicode="&#xa8;" horiz-adv-x="716" d="M123 1339q0 41 22.5 66t57.5 25q34 0 56 -25t22 -66q0 -39 -22 -63.5t-56 -24.5q-35 0 -57.5 24t-22.5 64zM436 1339q0 41 22 66t56 25q35 0 57.5 -25t22.5 -66q0 -40 -22.5 -64t-57.5 -24q-34 0 -56 24.5t-22 63.5z" />
<glyph unicode="&#xa9;" horiz-adv-x="1404" d="M100 598q0 139 48 253.5t130 190t191.5 117t232.5 41.5q124 0 233.5 -41.5t191.5 -117t130 -190t48 -253.5t-47.5 -254t-130 -190.5t-192 -116.5t-233.5 -41q-275 0 -438.5 160t-163.5 442zM213 598q0 -157 66 -272t175.5 -171.5t247.5 -56.5q103 0 192 33t156 95 t105.5 158t38.5 214t-38.5 214t-105.5 157t-156 94t-192 33q-138 0 -247.5 -56t-175.5 -170.5t-66 -271.5zM868 416l33 -101q-79 -45 -199 -45q-136 0 -211 87.5t-75 240.5t77.5 239.5t208.5 86.5q58 0 93.5 -9.5t93.5 -35.5l-41 -103q-73 37 -137 37q-168 0 -168 -215 q0 -106 46.5 -161.5t135.5 -55.5q78 0 143 35z" />
<glyph unicode="&#xaa;" horiz-adv-x="632" d="M434 1188q8 91 -11.5 126.5t-84.5 35.5q-120 0 -197 -43l-30 90q104 53 256 53q98 0 137 -50t39 -153q0 -55 -2 -151.5t-2 -137.5q0 -116 12 -180h-84l-23 86h-6q-56 -94 -168 -94q-89 0 -140.5 52t-51.5 141q0 66 28 113t78 72t112 34.5t138 5.5zM285 870q109 0 149 99 v121q-20 2 -63 2q-183 0 -183 -121q0 -44 26 -72.5t71 -28.5z" />
<glyph unicode="&#xab;" horiz-adv-x="782" d="M633 78l-271 452l261 471l90 -61l-170 -324l-78 -84l78 -73l180 -316zM336 78l-273 452l263 471l92 -61l-172 -324l-78 -84l78 -73l182 -316z" />
<glyph unicode="&#xac;" horiz-adv-x="835" d="M72 670v118h692v-372h-113v254h-579z" />
<glyph unicode="&#xad;" horiz-adv-x="589" d="M96 524v131h398v-131h-398z" />
<glyph unicode="&#xae;" horiz-adv-x="1208" d="M156 1006q0 210 127.5 329t320.5 119q195 0 322 -118.5t127 -329.5q0 -141 -62 -244.5t-162.5 -154t-224.5 -50.5q-128 0 -228 50.5t-160 154t-60 244.5zM254 1006q0 -174 98.5 -266.5t251.5 -92.5q159 0 254.5 90.5t95.5 268.5q0 174 -98 266t-252 92 q-159 0 -254.5 -90.5t-95.5 -267.5zM426 782v447q63 18 172 18q78 0 127 -33t49 -102q0 -53 -34.5 -84t-88.5 -33l49 -24l131 -189h-106l-127 181l-82 26v-207h-90zM580 1169q-50 0 -64 -8v-121h57q105 0 105 68q0 61 -98 61z" />
<glyph unicode="&#xaf;" horiz-adv-x="729" d="M123 1200v111h483v-111h-483z" />
<glyph unicode="&#xb0;" horiz-adv-x="692" d="M135 1180q0 124 63.5 201t166.5 77t166 -74t63 -204t-64 -204.5t-168 -74.5q-103 0 -165 74.5t-62 204.5zM236 1180q0 -82 36 -133.5t93 -51.5q56 0 92.5 52t36.5 133t-36.5 132.5t-92.5 51.5q-57 0 -93 -51t-36 -133z" />
<glyph unicode="&#xb1;" horiz-adv-x="835" d="M72 827v119h286v324h119v-324h287v-119h-287v-221h-119v221h-286zM72 383v119h692v-119h-692z" />
<glyph unicode="&#xb2;" horiz-adv-x="663" d="M530 1427q0 -122 -57.5 -240.5t-165.5 -264.5l-76 -70v-2l95 31h239v-103h-475v49q49 52 99.5 115.5t106 145.5t90 169.5t34.5 157.5q0 61 -32 96t-81 35q-91 0 -160 -51l-36 92q37 31 95 48.5t120 17.5q99 0 151.5 -59t52.5 -167z" />
<glyph unicode="&#xb3;" horiz-adv-x="663" d="M287 864q79 0 121.5 45t42.5 127q0 74 -39 116t-121 42h-92v39l166 262l55 55l-80 -12h-219v100h418v-53l-174 -272l-39 -35v-4l41 6q90 0 142 -66t52 -176q0 -122 -72.5 -198t-193.5 -76q-90 0 -174 35l22 100q72 -35 144 -35z" />
<glyph unicode="&#xb4;" horiz-adv-x="485" d="M123 1171l98 304h141v-39l-163 -265h-76z" />
<glyph unicode="&#xb6;" horiz-adv-x="806" d="M557 -266v1700h109v-1700h-109zM303 -266v909q-105 0 -173.5 117.5t-68.5 279.5q0 164 76 279t203 115h72v-1700h-109z" />
<glyph unicode="&#xb7;" horiz-adv-x="438" d="M127 594q0 106 92 106q44 0 69 -26.5t25 -79.5t-25 -80t-69 -27t-68 27t-24 80z" />
<glyph unicode="&#xb8;" horiz-adv-x="516" d="M303 0l-39 -88q67 -17 98 -54.5t31 -99.5q0 -80 -54.5 -131t-148.5 -51q-30 0 -67 6l14 76q12 -2 35 -2q34 0 56.5 8t32 22t12.5 26t3 28q0 60 -141 78l78 182h90z" />
<glyph unicode="&#xb9;" horiz-adv-x="663" d="M129 778v101h176v565l10 69l-45 -55l-127 -86l-47 72l254 209h66v-774h155v-101h-442z" />
<glyph unicode="&#xba;" horiz-adv-x="649" d="M74 1110q0 180 68 264t182 84q251 0 251 -348t-251 -348q-250 0 -250 348zM188 1110q0 -248 136 -248q69 0 103 53t34 195q0 140 -34.5 194t-102.5 54q-67 0 -101.5 -54.5t-34.5 -193.5z" />
<glyph unicode="&#xbb;" horiz-adv-x="782" d="M150 1001l270 -452l-260 -471l-90 59l170 326l77 84l-77 74l-181 319zM446 1001l273 -452l-262 -471l-92 59l172 326l77 84l-77 74l-183 319z" />
<glyph unicode="&#xbc;" horiz-adv-x="1368" d="M227 27l809 1433l84 -49l-805 -1436zM1270 305v-100h-135v-205h-111v205h-334v55l373 623h72v-578h135zM1024 305v277l14 106h-6l-37 -102l-129 -226l-55 -63l82 8h131zM274 573v668l11 70l-43 -60l-129 -86l-45 78l251 205h66v-875h-111z" />
<glyph unicode="&#xbd;" horiz-adv-x="1404" d="M227 27l809 1433l84 -49l-805 -1436zM1274 649q0 -122 -57.5 -241t-165.5 -265l-76 -69v-2l94 30h240v-102h-475v49q49 51 99.5 115t105.5 146t89.5 169.5t34.5 157.5q0 61 -31.5 96t-80.5 35q-91 0 -160 -51l-37 92q77 65 215 65q99 0 152 -58.5t53 -166.5zM274 573v668 l11 70l-43 -60l-129 -86l-45 78l251 205h66v-875h-111z" />
<glyph unicode="&#xbe;" horiz-adv-x="1429" d="M289 27l809 1433l84 -49l-805 -1436zM1329 305v-100h-135v-205h-111v205h-333v55l372 623h72v-578h135zM1083 305v277l15 106h-6l-37 -102l-129 -226l-56 -63l82 8h131zM264 659q79 0 121.5 45t42.5 127q0 74 -39 116t-121 42h-92v39l166 262l55 56l-80 -13h-219v101h418 v-54l-174 -272l-39 -35v-4l41 6q90 0 142.5 -65.5t52.5 -175.5q0 -122 -73 -198.5t-194 -76.5q-90 0 -174 35l23 100q72 -35 143 -35z" />
<glyph unicode="&#xbf;" horiz-adv-x="720" d="M371 676h102q5 -77 -7 -144.5t-35.5 -119.5t-53 -99.5t-60.5 -92.5t-56.5 -90t-41.5 -102t-16 -118q0 -102 46.5 -165.5t147.5 -63.5q126 0 224 73l38 -102q-123 -86 -290 -86q-145 0 -222 91.5t-77 233.5q0 82 22.5 156.5t55.5 127.5t72.5 112.5t72.5 111.5t55.5 124.5 t22.5 152.5zM324 934q0 106 92 106q44 0 69 -26.5t25 -79.5t-25 -80t-69 -27t-68 27t-24 80z" />
<glyph unicode="&#xc0;" horiz-adv-x="956" d="M807 0l-123 418h-422l-119 -418h-129l435 1458h57l438 -1458h-137zM432 1001l-131 -462h346l-133 467l-39 213h-2zM311 1782l195 -242h-119l-258 203v39h182z" />
<glyph unicode="&#xc1;" horiz-adv-x="956" d="M807 0l-123 418h-422l-119 -418h-129l435 1458h57l438 -1458h-137zM432 1001l-131 -462h346l-133 467l-39 213h-2zM444 1540l195 242h184v-39l-268 -203h-111z" />
<glyph unicode="&#xc2;" horiz-adv-x="956" d="M807 0l-123 418h-422l-119 -418h-129l435 1458h57l438 -1458h-137zM432 1001l-131 -462h346l-133 467l-39 213h-2zM221 1571l217 211h88l207 -213v-35h-127l-96 104l-29 72l-30 -70l-107 -106h-123v37z" />
<glyph unicode="&#xc3;" horiz-adv-x="956" d="M807 0l-123 418h-422l-119 -418h-129l435 1458h57l438 -1458h-137zM432 1001l-131 -462h346l-133 467l-39 213h-2zM262 1530l-49 59q97 117 197 117q40 0 106.5 -31.5t97.5 -32.5q43 0 84 44l54 -64q-86 -98 -174 -98q-38 0 -106.5 30.5t-100.5 30.5q-57 0 -109 -55z" />
<glyph unicode="&#xc4;" horiz-adv-x="956" d="M807 0l-123 418h-422l-119 -418h-129l435 1458h57l438 -1458h-137zM432 1001l-131 -462h346l-133 467l-39 213h-2zM236 1624q0 41 24.5 66.5t63.5 25.5q36 0 60 -25.5t24 -66.5q0 -39 -24 -64.5t-60 -25.5q-38 0 -63 25t-25 65zM549 1624q0 41 24 66.5t60 25.5 q38 0 62 -25.5t24 -66.5q0 -40 -24 -65t-62 -25q-36 0 -60 25.5t-24 64.5z" />
<glyph unicode="&#xc5;" horiz-adv-x="956" d="M305 1571q0 78 44 125t130 47q80 0 127 -44.5t47 -127.5q0 -65 -34.5 -109.5t-98.5 -56.5l424 -1405h-137l-123 420h-422l-119 -420h-129l418 1407q-60 11 -93.5 54t-33.5 110zM432 1001l-131 -460h346l-133 465l-39 213h-2zM408 1571q0 -40 17.5 -65t53.5 -25 q35 0 54.5 24t19.5 66q0 44 -19 69t-55 25q-71 0 -71 -94z" />
<glyph unicode="&#xc6;" horiz-adv-x="1384" d="M645 1235h-4l-53 -201l-230 -493h287v694zM645 0v420h-348l-188 -420h-144l680 1434h623v-121h-490v-512h449v-121h-449v-559h498v-121h-631z" />
<glyph unicode="&#xc7;" horiz-adv-x="937" d="M840 164l34 -109q-79 -68 -239 -78l-29 -65q67 -17 98 -54.5t31 -99.5q0 -80 -54.5 -131t-148.5 -51q-30 0 -67 6l14 76q12 -2 35 -2q34 0 56.5 8t32 22t12.5 26t3 28q0 60 -141 78l68 159q-210 16 -330.5 198t-120.5 542q0 157 27 283.5t73 210.5t110 140.5t135 81.5 t151 25q161 0 268 -49l-35 -119q-83 47 -223 47q-74 0 -137.5 -32.5t-117 -102t-84 -193.5t-30.5 -292q0 -304 106.5 -461.5t283.5 -157.5q127 0 219 66z" />
<glyph unicode="&#xc8;" horiz-adv-x="878" d="M141 0v1434h621v-121h-488v-512h449v-121h-449v-559h498v-121h-631zM338 1782l194 -242h-118l-258 203v39h182z" />
<glyph unicode="&#xc9;" horiz-adv-x="878" d="M141 0v1434h621v-121h-488v-512h449v-121h-449v-559h498v-121h-631zM346 1540l195 242h184v-39l-268 -203h-111z" />
<glyph unicode="&#xca;" horiz-adv-x="878" d="M141 0v1434h621v-121h-488v-512h449v-121h-449v-559h498v-121h-631zM184 1571l217 211h88l207 -213v-35h-127l-96 104l-29 72l-30 -70l-107 -106h-123v37z" />
<glyph unicode="&#xcb;" horiz-adv-x="878" d="M141 0v1434h621v-121h-488v-512h449v-121h-449v-559h498v-121h-631zM201 1624q0 41 24.5 66.5t63.5 25.5q36 0 60 -25.5t24 -66.5q0 -39 -24 -64.5t-60 -25.5q-38 0 -63 25t-25 65zM514 1624q0 41 24 66.5t60 25.5q38 0 62 -25.5t24 -66.5q0 -40 -24 -65t-62 -25 q-36 0 -60 25.5t-24 64.5z" />
<glyph unicode="&#xcc;" horiz-adv-x="477" d="M172 0v1434h133v-1434h-133zM123 1782l194 -242h-118l-258 203v39h182z" />
<glyph unicode="&#xcd;" horiz-adv-x="477" d="M172 0v1434h133v-1434h-133zM166 1540l194 242h185v-39l-269 -203h-110z" />
<glyph unicode="&#xce;" horiz-adv-x="477" d="M172 0v1434h133v-1434h-133zM-18 1571l217 211h88l207 -213v-35h-127l-97 104l-28 72l-31 -70l-107 -106h-122v37z" />
<glyph unicode="&#xcf;" horiz-adv-x="477" d="M172 0v1434h133v-1434h-133zM-4 1624q0 41 24.5 66.5t63.5 25.5q36 0 60 -25.5t24 -66.5q0 -39 -24 -64.5t-60 -25.5q-38 0 -63 25t-25 65zM309 1624q0 41 24 66.5t60 25.5q38 0 62 -25.5t24 -66.5q0 -40 -24 -65t-62 -25q-36 0 -60 25.5t-24 64.5z" />
<glyph unicode="&#xd0;" horiz-adv-x="1075" d="M-2 688v111h145v635q98 16 301 16q537 0 537 -723q0 -123 -17 -229t-57 -202.5t-102 -165t-157.5 -108.5t-217.5 -40q-56 0 -153.5 5t-133.5 11v690h-145zM276 1319v-520h244v-111h-244v-577q14 -3 75.5 -6t84.5 -3q92 0 163 33t117 89t75 137.5t41 170.5t12 195 q0 602 -395 602q-134 0 -173 -10z" />
<glyph unicode="&#xd1;" horiz-adv-x="1103" d="M893 -25l-553 979l-88 220h-6l22 -220v-954h-127v1458h70l557 -975l82 -209h8l-20 209v951h127v-1459h-72zM342 1530l-49 59q97 117 196 117q40 0 107 -31.5t98 -32.5q43 0 84 44l53 -64q-86 -98 -174 -98q-38 0 -106 30.5t-100 30.5q-57 0 -109 -55z" />
<glyph unicode="&#xd2;" horiz-adv-x="1122" d="M94 717q0 365 116.5 553t348.5 188q469 0 469 -741q0 -365 -117.5 -553.5t-351.5 -188.5q-465 0 -465 742zM231 717q0 -126 19 -235t57 -197t103 -138.5t149 -50.5q163 0 247.5 155t84.5 466q0 127 -18.5 235t-57 196t-104 138.5t-152.5 50.5q-160 0 -244 -155t-84 -465z M481 1782l195 -242h-119l-258 203v39h182z" />
<glyph unicode="&#xd3;" horiz-adv-x="1122" d="M94 717q0 365 116.5 553t348.5 188q469 0 469 -741q0 -365 -117.5 -553.5t-351.5 -188.5q-465 0 -465 742zM231 717q0 -126 19 -235t57 -197t103 -138.5t149 -50.5q163 0 247.5 155t84.5 466q0 127 -18.5 235t-57 196t-104 138.5t-152.5 50.5q-160 0 -244 -155t-84 -465z M506 1540l194 242h185v-39l-269 -203h-110z" />
<glyph unicode="&#xd4;" horiz-adv-x="1122" d="M94 717q0 365 116.5 553t348.5 188q469 0 469 -741q0 -365 -117.5 -553.5t-351.5 -188.5q-465 0 -465 742zM231 717q0 -126 19 -235t57 -197t103 -138.5t149 -50.5q163 0 247.5 155t84.5 466q0 127 -18.5 235t-57 196t-104 138.5t-152.5 50.5q-160 0 -244 -155t-84 -465z M301 1571l217 211h88l207 -213v-35h-127l-96 104l-29 72l-31 -70l-106 -106h-123v37z" />
<glyph unicode="&#xd5;" horiz-adv-x="1122" d="M94 717q0 365 116.5 553t348.5 188q469 0 469 -741q0 -365 -117.5 -553.5t-351.5 -188.5q-465 0 -465 742zM231 717q0 -126 19 -235t57 -197t103 -138.5t149 -50.5q163 0 247.5 155t84.5 466q0 127 -18.5 235t-57 196t-104 138.5t-152.5 50.5q-160 0 -244 -155t-84 -465z M346 1530l-49 59q97 117 197 117q40 0 106.5 -31.5t97.5 -32.5q43 0 84 44l54 -64q-86 -98 -174 -98q-38 0 -106.5 30.5t-100.5 30.5q-57 0 -109 -55z" />
<glyph unicode="&#xd6;" horiz-adv-x="1122" d="M94 717q0 365 116.5 553t348.5 188q469 0 469 -741q0 -365 -117.5 -553.5t-351.5 -188.5q-465 0 -465 742zM231 717q0 -126 19 -235t57 -197t103 -138.5t149 -50.5q163 0 247.5 155t84.5 466q0 127 -18.5 235t-57 196t-104 138.5t-152.5 50.5q-160 0 -244 -155t-84 -465z M319 1624q0 41 25 66.5t64 25.5q36 0 60 -25.5t24 -66.5q0 -39 -24 -64.5t-60 -25.5q-38 0 -63.5 25t-25.5 65zM633 1624q0 41 24 66.5t60 25.5q38 0 62 -25.5t24 -66.5q0 -40 -24 -65t-62 -25q-36 0 -60 25.5t-24 64.5z" />
<glyph unicode="&#xd7;" horiz-adv-x="835" d="M119 956l90 80l211 -248l211 248l88 -80l-219 -262l219 -264l-88 -80l-211 248l-213 -250l-90 78l223 268z" />
<glyph unicode="&#xd8;" horiz-adv-x="1122" d="M94 717q0 365 116.5 553t348.5 188q183 0 299 -119l68 121l86 -49l-90 -158q106 -185 106 -536q0 -365 -117.5 -553.5t-351.5 -188.5q-182 0 -293 111l-61 -111l-88 52l84 149q-107 179 -107 541zM289 330l493 876q-81 131 -223 131q-160 0 -244 -155t-84 -465 q0 -225 58 -387zM836 1098l-494 -879q80 -123 217 -123q163 0 247.5 155t84.5 466q0 219 -55 381z" />
<glyph unicode="&#xd9;" horiz-adv-x="1064" d="M801 520v914h127v-967q0 -250 -97 -366.5t-284 -116.5q-211 0 -310.5 110t-99.5 340v1000h133v-914q0 -229 63.5 -322.5t215.5 -93.5q140 0 196 96.5t56 319.5zM469 1782l195 -242h-119l-258 203v39h182z" />
<glyph unicode="&#xda;" horiz-adv-x="1064" d="M801 520v914h127v-967q0 -250 -97 -366.5t-284 -116.5q-211 0 -310.5 110t-99.5 340v1000h133v-914q0 -229 63.5 -322.5t215.5 -93.5q140 0 196 96.5t56 319.5zM446 1540l195 242h184v-39l-268 -203h-111z" />
<glyph unicode="&#xdb;" horiz-adv-x="1064" d="M801 520v914h127v-967q0 -250 -97 -366.5t-284 -116.5q-211 0 -310.5 110t-99.5 340v1000h133v-914q0 -229 63.5 -322.5t215.5 -93.5q140 0 196 96.5t56 319.5zM279 1571l217 211h88l207 -213v-35h-127l-97 104l-28 72l-31 -70l-107 -106h-122v37z" />
<glyph unicode="&#xdc;" horiz-adv-x="1064" d="M801 520v914h127v-967q0 -250 -97 -366.5t-284 -116.5q-211 0 -310.5 110t-99.5 340v1000h133v-914q0 -229 63.5 -322.5t215.5 -93.5q140 0 196 96.5t56 319.5zM291 1624q0 41 24.5 66.5t63.5 25.5q36 0 60 -25.5t24 -66.5q0 -39 -24 -64.5t-60 -25.5q-38 0 -63 25 t-25 65zM604 1624q0 41 24 66.5t60 25.5q38 0 62 -25.5t24 -66.5q0 -40 -24 -65t-62 -25q-36 0 -60 25.5t-24 64.5z" />
<glyph unicode="&#xdd;" horiz-adv-x="913" d="M393 0v578l-379 856h152l272 -643l27 -119h4l29 123l260 639h141l-373 -854v-580h-133zM389 1540l195 242h184v-39l-268 -203h-111z" />
<glyph unicode="&#xde;" horiz-adv-x="915" d="M141 0v1638h133v-194q71 6 142 6q67 0 126 -11.5t117.5 -42t100 -78t67 -125t25.5 -177.5q0 -124 -36.5 -216.5t-100.5 -146t-141.5 -79t-167.5 -25.5q-101 0 -132 8v-557h-133zM274 1319v-639q25 -10 127 -10q314 0 314 346q0 85 -24 148t-66.5 98t-93.5 51t-113 16 q-105 0 -144 -10z" />
<glyph unicode="&#xdf;" horiz-adv-x="976" d="M37 1024h127v57q0 191 77 278t224 87q131 0 217 -74t86 -201q0 -50 -21.5 -94.5t-52 -76.5t-61.5 -62t-52.5 -65t-21.5 -72q0 -40 19 -73.5t49.5 -58t67.5 -49t74 -55t67.5 -67.5t49.5 -95t19 -129q0 -117 -82.5 -208t-220.5 -91q-73 0 -118 11.5t-89 38.5l37 112 q46 -28 76 -37.5t86 -9.5q75 0 129.5 51.5t54.5 130.5q0 55 -19 98t-49.5 71.5t-67.5 54.5t-74 53t-67.5 58.5t-49.5 80t-19 109.5q0 49 21.5 93.5t52 77t61.5 63.5t52.5 66.5t21.5 71.5q0 69 -54.5 115.5t-119.5 46.5q-66 0 -103 -25.5t-55 -92t-18 -189.5v-1024h-127v909 h-127v115z" />
<glyph unicode="&#xe0;" horiz-adv-x="813" d="M162 864l-45 99q56 36 140.5 56.5t174.5 20.5q66 0 114 -18t75 -45.5t43 -70t21 -82.5t5 -91q0 -89 -4 -248.5t-4 -226.5q0 -180 20 -262h-92l-35 119h-8q-78 -129 -252 -129q-109 0 -179 77.5t-70 208.5q0 85 29 146t85 96t127.5 50.5t165.5 15.5q57 0 88 -2q4 45 4 120 q0 126 -36.5 177t-131.5 51q-56 0 -124 -18t-111 -44zM346 100q85 0 138 41t77 101v227q-47 6 -92 6q-270 0 -270 -192q0 -84 40 -133.5t107 -49.5zM383 1475l109 -304h-72l-189 265v39h152z" />
<glyph unicode="&#xe1;" horiz-adv-x="813" d="M162 864l-45 99q56 36 140.5 56.5t174.5 20.5q66 0 114 -18t75 -45.5t43 -70t21 -82.5t5 -91q0 -89 -4 -248.5t-4 -226.5q0 -180 20 -262h-92l-35 119h-8q-78 -129 -252 -129q-109 0 -179 77.5t-70 208.5q0 85 29 146t85 96t127.5 50.5t165.5 15.5q57 0 88 -2q4 45 4 120 q0 126 -36.5 177t-131.5 51q-56 0 -124 -18t-111 -44zM346 100q85 0 138 41t77 101v227q-47 6 -92 6q-270 0 -270 -192q0 -84 40 -133.5t107 -49.5zM299 1171l98 304h142v-39l-164 -265h-76z" />
<glyph unicode="&#xe2;" horiz-adv-x="813" d="M162 864l-45 99q56 36 140.5 56.5t174.5 20.5q66 0 114 -18t75 -45.5t43 -70t21 -82.5t5 -91q0 -89 -4 -248.5t-4 -226.5q0 -180 20 -262h-92l-35 119h-8q-78 -129 -252 -129q-109 0 -179 77.5t-70 208.5q0 85 29 146t85 96t127.5 50.5t165.5 15.5q57 0 88 -2q4 45 4 120 q0 126 -36.5 177t-131.5 51q-56 0 -124 -18t-111 -44zM346 100q85 0 138 41t77 101v227q-47 6 -92 6q-270 0 -270 -192q0 -84 40 -133.5t107 -49.5zM195 1126l202 373h47l183 -373h-115l-66 136l-34 122l-35 -122l-76 -136h-106z" />
<glyph unicode="&#xe3;" horiz-adv-x="813" d="M162 864l-45 99q56 36 140.5 56.5t174.5 20.5q66 0 114 -18t75 -45.5t43 -70t21 -82.5t5 -91q0 -89 -4 -248.5t-4 -226.5q0 -180 20 -262h-92l-35 119h-8q-78 -129 -252 -129q-109 0 -179 77.5t-70 208.5q0 85 29 146t85 96t127.5 50.5t165.5 15.5q57 0 88 -2q4 45 4 120 q0 126 -36.5 177t-131.5 51q-56 0 -124 -18t-111 -44zM346 100q85 0 138 41t77 101v227q-47 6 -92 6q-270 0 -270 -192q0 -84 40 -133.5t107 -49.5zM221 1276l-49 61q94 117 172 117q37 0 94.5 -39t87.5 -39q32 0 70 41l47 -61q-81 -103 -156 -103q-35 0 -90 37.5t-78 38.5 q-54 0 -98 -53z" />
<glyph unicode="&#xe4;" horiz-adv-x="813" d="M162 864l-45 99q56 36 140.5 56.5t174.5 20.5q66 0 114 -18t75 -45.5t43 -70t21 -82.5t5 -91q0 -89 -4 -248.5t-4 -226.5q0 -180 20 -262h-92l-35 119h-8q-78 -129 -252 -129q-109 0 -179 77.5t-70 208.5q0 85 29 146t85 96t127.5 50.5t165.5 15.5q57 0 88 -2q4 45 4 120 q0 126 -36.5 177t-131.5 51q-56 0 -124 -18t-111 -44zM346 100q85 0 138 41t77 101v227q-47 6 -92 6q-270 0 -270 -192q0 -84 40 -133.5t107 -49.5zM172 1339q0 41 22.5 66t57.5 25q34 0 56 -25t22 -66q0 -39 -22 -63.5t-56 -24.5q-35 0 -57.5 24t-22.5 64zM485 1339 q0 41 22 66t56 25q35 0 57.5 -25t22.5 -66q0 -40 -22.5 -64t-57.5 -24q-34 0 -56 24.5t-22 63.5z" />
<glyph unicode="&#xe5;" horiz-adv-x="813" d="M162 864l-45 99q56 36 140.5 56.5t174.5 20.5q66 0 114 -18t75 -45.5t43 -70t21 -82.5t5 -91q0 -89 -4 -248.5t-4 -226.5q0 -180 20 -262h-92l-35 119h-8q-78 -129 -252 -129q-109 0 -179 77.5t-70 208.5q0 85 29 146t85 96t127.5 50.5t165.5 15.5q57 0 88 -2q4 45 4 120 q0 126 -36.5 177t-131.5 51q-56 0 -124 -18t-111 -44zM346 100q85 0 138 41t77 101v227q-47 6 -92 6q-270 0 -270 -192q0 -84 40 -133.5t107 -49.5zM246 1315q0 84 44 132t118 48q73 0 117 -44.5t44 -135.5q0 -80 -44.5 -129t-116.5 -49q-74 0 -118 46t-44 132zM336 1315 q0 -46 20 -72t52 -26q71 0 71 98q0 50 -20 75t-51 25q-72 0 -72 -100z" />
<glyph unicode="&#xe6;" horiz-adv-x="1310" d="M348 98q86 0 139.5 47t73.5 113v217q-46 4 -69 4q-50 0 -90 -4.5t-79 -17.5t-65.5 -34t-42.5 -55.5t-16 -80.5q0 -78 41.5 -133.5t107.5 -55.5zM618 152h-12q-44 -76 -117 -122t-170 -46q-112 0 -182.5 80t-70.5 212q0 88 28 149.5t82.5 96t124 49.5t162.5 15q28 0 98 -4 q14 199 -18 271.5t-146 72.5q-57 0 -127.5 -21t-115.5 -53l-39 98q121 90 317 90q174 0 221 -137q39 73 110 109.5t150 36.5q47 0 87.5 -9t82.5 -34t71.5 -65.5t48.5 -109.5t20 -159q0 -74 -9 -168h-530q2 -208 64 -311t204 -103q53 0 109.5 21t85.5 49l49 -97 q-109 -88 -281 -88q-101 0 -181 46.5t-116 130.5zM915 934q-99 0 -158 -79.5t-69 -240.5h408v33q0 141 -48.5 214t-132.5 73z" />
<glyph unicode="&#xe7;" horiz-adv-x="731" d="M643 154l41 -103q-75 -58 -195 -71l-28 -68q67 -17 98 -54.5t31 -99.5q0 -80 -54.5 -131t-148.5 -51q-31 0 -68 6l15 76q12 -2 35 -2q34 0 56.5 8t32 22t12.5 26t3 28q0 60 -141 78l67 159q-317 22 -317 535q0 258 92 397.5t262 139.5q147 0 234 -52l-39 -110 q-80 47 -182 47q-119 0 -176.5 -103t-57.5 -319q0 -91 13 -164t41 -132t78 -91.5t118 -32.5q105 0 178 62z" />
<glyph unicode="&#xe8;" horiz-adv-x="837" d="M676 164l47 -96q-49 -44 -122 -68.5t-152 -24.5q-186 0 -276.5 142t-90.5 395q0 258 93 397.5t265 139.5q48 0 88 -8t82 -32.5t71.5 -64.5t48.5 -108.5t20 -159.5q0 -97 -9 -168h-526q0 -98 14 -172.5t45 -130.5t83.5 -85.5t125.5 -29.5q52 0 106.5 21.5t86.5 52.5z M442 934q-207 0 -227 -311h412v28q0 140 -50 211.5t-135 71.5zM420 1475l108 -304h-71l-189 265v39h152z" />
<glyph unicode="&#xe9;" horiz-adv-x="837" d="M676 164l47 -96q-49 -44 -122 -68.5t-152 -24.5q-186 0 -276.5 142t-90.5 395q0 258 93 397.5t265 139.5q48 0 88 -8t82 -32.5t71.5 -64.5t48.5 -108.5t20 -159.5q0 -97 -9 -168h-526q0 -98 14 -172.5t45 -130.5t83.5 -85.5t125.5 -29.5q52 0 106.5 21.5t86.5 52.5z M442 934q-207 0 -227 -311h412v28q0 140 -50 211.5t-135 71.5zM381 1171l98 304h142v-39l-164 -265h-76z" />
<glyph unicode="&#xea;" horiz-adv-x="837" d="M676 164l47 -96q-49 -44 -122 -68.5t-152 -24.5q-186 0 -276.5 142t-90.5 395q0 258 93 397.5t265 139.5q48 0 88 -8t82 -32.5t71.5 -64.5t48.5 -108.5t20 -159.5q0 -97 -9 -168h-526q0 -98 14 -172.5t45 -130.5t83.5 -85.5t125.5 -29.5q52 0 106.5 21.5t86.5 52.5z M442 934q-207 0 -227 -311h412v28q0 140 -50 211.5t-135 71.5zM209 1126l203 373h47l182 -373h-115l-65 136l-35 122l-35 -122l-76 -136h-106z" />
<glyph unicode="&#xeb;" horiz-adv-x="837" d="M676 164l47 -96q-49 -44 -122 -68.5t-152 -24.5q-186 0 -276.5 142t-90.5 395q0 258 93 397.5t265 139.5q48 0 88 -8t82 -32.5t71.5 -64.5t48.5 -108.5t20 -159.5q0 -97 -9 -168h-526q0 -98 14 -172.5t45 -130.5t83.5 -85.5t125.5 -29.5q52 0 106.5 21.5t86.5 52.5z M442 934q-207 0 -227 -311h412v28q0 140 -50 211.5t-135 71.5zM205 1339q0 41 22.5 66t57.5 25q34 0 55.5 -25t21.5 -66q0 -39 -21.5 -63.5t-55.5 -24.5q-35 0 -57.5 24t-22.5 64zM518 1339q0 41 22 66t56 25q35 0 57.5 -25t22.5 -66q0 -40 -22.5 -64t-57.5 -24 q-34 0 -56 24.5t-22 63.5z" />
<glyph unicode="&#xec;" horiz-adv-x="442" d="M158 0v1024h127v-1024h-127zM166 1475l108 -304h-71l-189 265v39h152z" />
<glyph unicode="&#xed;" horiz-adv-x="442" d="M158 0v1024h127v-1024h-127zM164 1171l98 304h141v-39l-163 -265h-76z" />
<glyph unicode="&#xee;" horiz-adv-x="442" d="M158 0v1024h127v-1024h-127zM-2 1126l203 373h47l182 -373h-115l-65 136l-35 122l-35 -122l-76 -136h-106z" />
<glyph unicode="&#xef;" horiz-adv-x="442" d="M158 0v1024h127v-1024h-127zM-14 1339q0 41 22.5 66t57.5 25q34 0 55.5 -25t21.5 -66q0 -39 -21.5 -63.5t-55.5 -24.5q-35 0 -57.5 24t-22.5 64zM299 1339q0 41 22 66t56 25q35 0 57.5 -25t22.5 -66q0 -40 -22.5 -64t-57.5 -24q-34 0 -56 24.5t-22 63.5z" />
<glyph unicode="&#xf0;" d="M416 1137l-78 37l70 151q-77 30 -177 27v106q124 0 222 -33l51 115l78 -39l-52 -110q297 -161 297 -791q0 -169 -28.5 -293t-80.5 -195t-115.5 -104t-141.5 -33q-97 0 -169.5 39.5t-116 112.5t-64.5 170t-21 219q0 154 41.5 273.5t125.5 189.5t200 70q73 0 134.5 -24.5 t88.5 -61.5q-47 220 -197 323zM223 516q0 -216 66.5 -321t179.5 -105q104 0 167.5 124t63.5 384q0 155 -14 221q-28 55 -88 85t-127 30q-125 0 -186.5 -113t-61.5 -305z" />
<glyph unicode="&#xf1;" horiz-adv-x="894" d="M782 0h-127v625q0 167 -38 238t-136 71q-83 0 -141 -49.5t-86 -130.5v-754h-127v1024h88l25 -106h6q43 58 111 94.5t153 36.5q94 0 151.5 -33.5t89 -120.5t31.5 -236v-659zM266 1276l-49 61q94 117 172 117q37 0 94.5 -39t87.5 -39q32 0 70 41l47 -61q-81 -103 -156 -103 q-35 0 -89.5 37.5t-77.5 38.5q-55 0 -99 -53z" />
<glyph unicode="&#xf2;" horiz-adv-x="878" d="M82 512q0 537 356 537q183 0 271 -132.5t88 -404.5q0 -537 -359 -537q-182 0 -269 132.5t-87 404.5zM215 512q0 -422 223 -422q114 0 170 102.5t56 319.5q0 196 -54 309t-172 113q-112 0 -167.5 -103t-55.5 -319zM403 1475l109 -304h-72l-188 265v39h151z" />
<glyph unicode="&#xf3;" horiz-adv-x="878" d="M82 512q0 537 356 537q183 0 271 -132.5t88 -404.5q0 -537 -359 -537q-182 0 -269 132.5t-87 404.5zM215 512q0 -422 223 -422q114 0 170 102.5t56 319.5q0 196 -54 309t-172 113q-112 0 -167.5 -103t-55.5 -319zM369 1171l98 304h141v-39l-164 -265h-75z" />
<glyph unicode="&#xf4;" horiz-adv-x="878" d="M82 512q0 537 356 537q183 0 271 -132.5t88 -404.5q0 -537 -359 -537q-182 0 -269 132.5t-87 404.5zM215 512q0 -422 223 -422q114 0 170 102.5t56 319.5q0 196 -54 309t-172 113q-112 0 -167.5 -103t-55.5 -319zM229 1126l203 373h47l183 -373h-115l-66 136l-35 122 l-34 -122l-76 -136h-107z" />
<glyph unicode="&#xf5;" horiz-adv-x="878" d="M82 512q0 537 356 537q183 0 271 -132.5t88 -404.5q0 -537 -359 -537q-182 0 -269 132.5t-87 404.5zM215 512q0 -422 223 -422q114 0 170 102.5t56 319.5q0 196 -54 309t-172 113q-112 0 -167.5 -103t-55.5 -319zM256 1276l-49 61q94 117 172 117q37 0 94.5 -39t87.5 -39 q32 0 70 41l47 -61q-81 -103 -156 -103q-35 0 -90 37.5t-78 38.5q-54 0 -98 -53z" />
<glyph unicode="&#xf6;" horiz-adv-x="878" d="M82 512q0 537 356 537q183 0 271 -132.5t88 -404.5q0 -537 -359 -537q-182 0 -269 132.5t-87 404.5zM215 512q0 -422 223 -422q114 0 170 102.5t56 319.5q0 196 -54 309t-172 113q-112 0 -167.5 -103t-55.5 -319zM203 1339q0 41 22.5 66t57.5 25q34 0 55.5 -25t21.5 -66 q0 -39 -21.5 -63.5t-55.5 -24.5q-35 0 -57.5 24t-22.5 64zM516 1339q0 41 22 66t56 25q35 0 57.5 -25t22.5 -66q0 -40 -22.5 -64t-57.5 -24q-34 0 -56 24.5t-22 63.5z" />
<glyph unicode="&#xf7;" horiz-adv-x="835" d="M72 635v119h692v-119h-692zM328 1032q0 53 24 80t68 27t69 -27t25 -80t-25 -79.5t-69 -26.5q-92 0 -92 106zM328 356q0 53 24 80t68 27t69 -27t25 -80t-25 -79.5t-69 -26.5q-92 0 -92 106z" />
<glyph unicode="&#xf8;" horiz-adv-x="886" d="M88 512q0 264 92.5 400.5t265.5 136.5q125 0 205 -68l39 68l88 -54l-57 -96q82 -137 82 -387q0 -267 -92 -402t-265 -135q-131 0 -215 72l-45 -72l-86 58l62 104q-74 131 -74 375zM641 760l-344 -594q57 -76 149 -76q113 0 168.5 102.5t55.5 319.5q0 149 -29 248z M246 274l338 596q-52 64 -138 64q-113 0 -169 -103.5t-56 -318.5q0 -144 25 -238z" />
<glyph unicode="&#xf9;" horiz-adv-x="882" d="M113 1024h127v-631q0 -165 33.5 -234t121.5 -69q84 0 142 62t90 155v717h127v-737q0 -170 18 -287h-88l-33 145h-6q-39 -75 -106.5 -122.5t-159.5 -47.5q-54 0 -94 10t-73.5 36t-54.5 69.5t-32.5 111t-11.5 160.5v662zM393 1475l109 -304h-72l-188 265v39h151z" />
<glyph unicode="&#xfa;" horiz-adv-x="882" d="M113 1024h127v-631q0 -165 33.5 -234t121.5 -69q84 0 142 62t90 155v717h127v-737q0 -170 18 -287h-88l-33 145h-6q-39 -75 -106.5 -122.5t-159.5 -47.5q-54 0 -94 10t-73.5 36t-54.5 69.5t-32.5 111t-11.5 160.5v662zM371 1171l98 304h141v-39l-164 -265h-75z" />
<glyph unicode="&#xfb;" horiz-adv-x="882" d="M113 1024h127v-631q0 -165 33.5 -234t121.5 -69q84 0 142 62t90 155v717h127v-737q0 -170 18 -287h-88l-33 145h-6q-39 -75 -106.5 -122.5t-159.5 -47.5q-54 0 -94 10t-73.5 36t-54.5 69.5t-32.5 111t-11.5 160.5v662zM223 1126l203 373h47l182 -373h-114l-66 136 l-35 122l-34 -122l-76 -136h-107z" />
<glyph unicode="&#xfc;" horiz-adv-x="882" d="M113 1024h127v-631q0 -165 33.5 -234t121.5 -69q84 0 142 62t90 155v717h127v-737q0 -170 18 -287h-88l-33 145h-6q-39 -75 -106.5 -122.5t-159.5 -47.5q-54 0 -94 10t-73.5 36t-54.5 69.5t-32.5 111t-11.5 160.5v662zM205 1339q0 41 22.5 66t57.5 25q34 0 55.5 -25 t21.5 -66q0 -39 -21.5 -63.5t-55.5 -24.5q-35 0 -57.5 24t-22.5 64zM518 1339q0 41 22 66t56 25q35 0 57.5 -25t22.5 -66q0 -40 -22.5 -64t-57.5 -24q-34 0 -56 24.5t-22 63.5z" />
<glyph unicode="&#xfd;" horiz-adv-x="759" d="M162 1024l205 -682l47 -205h8l35 207l164 680h127l-242 -920q-19 -73 -32 -120.5t-32 -108t-35 -99t-38 -79.5t-44 -64t-49.5 -38t-58.5 -15q-55 0 -90 17l20 122q15 -6 33 -6q117 0 168 287l-328 1024h142zM356 1171l99 304h141v-39l-164 -265h-76z" />
<glyph unicode="&#xfe;" horiz-adv-x="884" d="M127 -410v1844h127v-494h6q71 109 221 109q165 0 244.5 -123.5t79.5 -393.5q0 -257 -102.5 -407t-274.5 -150q-104 0 -174 37v-422h-127zM457 934q-76 0 -129.5 -50.5t-73.5 -138.5v-600q64 -55 170 -55q115 0 181.5 118t66.5 324q0 402 -215 402z" />
<glyph unicode="&#xff;" horiz-adv-x="759" d="M162 1024l205 -682l47 -205h8l35 207l164 680h127l-242 -920q-19 -73 -32 -120.5t-32 -108t-35 -99t-38 -79.5t-44 -64t-49.5 -38t-58.5 -15q-55 0 -90 17l20 122q15 -6 33 -6q117 0 168 287l-328 1024h142zM145 1339q0 41 22.5 66t57.5 25q34 0 56 -25t22 -66 q0 -39 -22 -63.5t-56 -24.5q-35 0 -57.5 24t-22.5 64zM459 1339q0 41 22 66t56 25q35 0 57 -25t22 -66q0 -40 -22 -64t-57 -24q-34 0 -56 24.5t-22 63.5z" />
<glyph unicode="&#x100;" horiz-adv-x="956" d="M807 0l-123 418h-422l-119 -418h-129l435 1458h57l438 -1458h-137zM432 1001l-131 -462h346l-133 467l-39 213h-2zM219 1565v114h516v-114h-516z" />
<glyph unicode="&#x101;" horiz-adv-x="813" d="M162 864l-45 99q56 36 140.5 56.5t174.5 20.5q66 0 114 -18t75 -45.5t43 -70t21 -82.5t5 -91q0 -89 -4 -248.5t-4 -226.5q0 -180 20 -262h-92l-35 119h-8q-78 -129 -252 -129q-109 0 -179 77.5t-70 208.5q0 85 29 146t85 96t127.5 50.5t165.5 15.5q57 0 88 -2q4 45 4 120 q0 126 -36.5 177t-131.5 51q-56 0 -124 -18t-111 -44zM346 100q85 0 138 41t77 101v227q-47 6 -92 6q-270 0 -270 -192q0 -84 40 -133.5t107 -49.5zM158 1200v111h483v-111h-483z" />
<glyph unicode="&#x102;" horiz-adv-x="956" d="M807 0l-123 418h-422l-119 -418h-129l435 1458h57l438 -1458h-137zM432 1001l-131 -462h346l-133 467l-39 213h-2zM197 1747l73 35q29 -75 86 -120.5t131 -45.5q73 0 125.5 47t79.5 119l70 -27q-27 -124 -103.5 -192t-173.5 -68q-94 0 -173.5 64t-114.5 188z" />
<glyph unicode="&#x103;" horiz-adv-x="813" d="M162 864l-45 99q56 36 140.5 56.5t174.5 20.5q66 0 114 -18t75 -45.5t43 -70t21 -82.5t5 -91q0 -89 -4 -248.5t-4 -226.5q0 -180 20 -262h-92l-35 119h-8q-78 -129 -252 -129q-109 0 -179 77.5t-70 208.5q0 85 29 146t85 96t127.5 50.5t165.5 15.5q57 0 88 -2q4 45 4 120 q0 126 -36.5 177t-131.5 51q-56 0 -124 -18t-111 -44zM346 100q85 0 138 41t77 101v227q-47 6 -92 6q-270 0 -270 -192q0 -84 40 -133.5t107 -49.5zM160 1436l71 32q30 -78 79 -124t106 -46t101 45t71 125l69 -26q-9 -110 -78.5 -187t-164.5 -77q-92 0 -162.5 69t-91.5 189z " />
<glyph unicode="&#x104;" horiz-adv-x="956" d="M807 0l-123 420h-422l-119 -420h-129l435 1458h57l438 -1458h-45q-94 -74 -94 -186q0 -111 92 -111q33 0 64 14l16 -73q-44 -41 -133 -41q-75 0 -122.5 48t-47.5 126q0 146 135 223h-2zM432 1001l-131 -460h346l-133 465l-39 213h-2z" />
<glyph unicode="&#x105;" horiz-adv-x="813" d="M162 864l-45 99q56 36 140.5 56.5t174.5 20.5q66 0 114 -18t75 -45.5t43 -70t21 -82.5t5 -91q0 -89 -4 -248.5t-4 -226.5q0 -180 20 -262h-49q-78 -66 -78 -182q0 -111 93 -111q32 0 63 14l17 -73q-44 -41 -134 -41q-75 0 -122.5 48t-47.5 126q0 80 43 140t117 95 l-29 103h-8q-78 -129 -252 -129q-109 0 -179 77.5t-70 208.5q0 85 29 146t85 96t127.5 50.5t165.5 15.5q57 0 88 -2q4 45 4 120q0 126 -36.5 177t-131.5 51q-56 0 -124 -18t-111 -44zM561 242v227q-47 6 -92 6q-270 0 -270 -192q0 -84 40 -133.5t107 -49.5q85 0 138 41 t77 101z" />
<glyph unicode="&#x106;" horiz-adv-x="937" d="M840 162l34 -107q-93 -80 -286 -80q-111 0 -199.5 43t-155.5 131t-103 232t-36 336q0 157 27 283.5t73 210.5t110 140.5t135 81.5t151 25q161 0 268 -49l-35 -119q-83 47 -223 47q-74 0 -137.5 -32.5t-117 -102t-84 -193.5t-30.5 -292q0 -305 106.5 -463t283.5 -158 q127 0 219 66zM494 1540l194 242h184v-39l-268 -203h-110z" />
<glyph unicode="&#x107;" horiz-adv-x="731" d="M643 152l41 -101q-98 -76 -252 -76q-350 0 -350 537q0 258 92 397.5t262 139.5q147 0 234 -52l-39 -110q-80 47 -182 47q-119 0 -176.5 -103t-57.5 -319q0 -91 13 -164t41 -132.5t78 -92.5t118 -33q105 0 178 62zM389 1171l98 304h142v-39l-164 -265h-76z" />
<glyph unicode="&#x108;" horiz-adv-x="937" d="M840 162l34 -107q-93 -80 -286 -80q-111 0 -199.5 43t-155.5 131t-103 232t-36 336q0 157 27 283.5t73 210.5t110 140.5t135 81.5t151 25q161 0 268 -49l-35 -119q-83 47 -223 47q-74 0 -137.5 -32.5t-117 -102t-84 -193.5t-30.5 -292q0 -305 106.5 -463t283.5 -158 q127 0 219 66zM313 1571l217 211h88l207 -213v-35h-127l-96 104l-29 72l-30 -70l-107 -106h-123v37z" />
<glyph unicode="&#x109;" horiz-adv-x="731" d="M643 152l41 -101q-98 -76 -252 -76q-350 0 -350 537q0 258 92 397.5t262 139.5q147 0 234 -52l-39 -110q-80 47 -182 47q-119 0 -176.5 -103t-57.5 -319q0 -91 13 -164t41 -132.5t78 -92.5t118 -33q105 0 178 62zM193 1126l202 373h47l183 -373h-115l-66 136l-34 122 l-35 -122l-76 -136h-106z" />
<glyph unicode="&#x10a;" horiz-adv-x="937" d="M840 162l34 -107q-93 -80 -286 -80q-111 0 -199.5 43t-155.5 131t-103 232t-36 336q0 157 27 283.5t73 210.5t110 140.5t135 81.5t151 25q161 0 268 -49l-35 -119q-83 47 -223 47q-74 0 -137.5 -32.5t-117 -102t-84 -193.5t-30.5 -292q0 -305 106.5 -463t283.5 -158 q127 0 219 66zM487 1632q0 43 28 73t73 30t73.5 -30.5t28.5 -72.5q0 -45 -28.5 -74.5t-73.5 -29.5t-73 29.5t-28 74.5z" />
<glyph unicode="&#x10b;" horiz-adv-x="731" d="M643 152l41 -101q-98 -76 -252 -76q-350 0 -350 537q0 258 92 397.5t262 139.5q147 0 234 -52l-39 -110q-80 47 -182 47q-119 0 -176.5 -103t-57.5 -319q0 -91 13 -164t41 -132.5t78 -92.5t118 -33q105 0 178 62zM342 1341q0 46 25 74.5t65 28.5q38 0 65 -28.5t27 -74.5 q0 -45 -26.5 -71.5t-65.5 -26.5q-40 0 -65 26.5t-25 71.5z" />
<glyph unicode="&#x10c;" horiz-adv-x="937" d="M840 162l34 -107q-93 -80 -286 -80q-111 0 -199.5 43t-155.5 131t-103 232t-36 336q0 157 27 283.5t73 210.5t110 140.5t135 81.5t151 25q161 0 268 -49l-35 -119q-83 47 -223 47q-74 0 -137.5 -32.5t-117 -102t-84 -193.5t-30.5 -292q0 -305 106.5 -463t283.5 -158 q127 0 219 66zM842 1745l-217 -213h-95l-206 215v35h133l96 -105l29 -71l28 69l105 107h127v-37z" />
<glyph unicode="&#x10d;" horiz-adv-x="731" d="M643 152l41 -101q-98 -76 -252 -76q-350 0 -350 537q0 258 92 397.5t262 139.5q147 0 234 -52l-39 -110q-80 47 -182 47q-119 0 -176.5 -103t-57.5 -319q0 -91 13 -164t41 -132.5t78 -92.5t118 -33q105 0 178 62zM647 1499l-201 -373h-57l-188 373h125l63 -135l37 -123 l35 123l74 135h112z" />
<glyph unicode="&#x10e;" horiz-adv-x="1073" d="M141 -2v1436q98 16 301 16q537 0 537 -723q0 -123 -17 -229t-57 -202.5t-102 -165t-157.5 -108.5t-217.5 -40q-56 0 -153.5 5t-133.5 11zM446 1329q-133 0 -172 -10v-1208q14 -3 75.5 -6t84.5 -3q92 0 163 33t117 89t75 137.5t41 170.5t12 195q0 97 -10 179t-37.5 162.5 t-71 136t-114.5 90t-163 34.5zM707 1745l-218 -213h-94l-207 215v35h134l96 -105l28 -71l29 69l105 107h127v-37z" />
<glyph unicode="&#x10f;" horiz-adv-x="880" d="M754 1434v-1084q0 -252 16 -354h-86l-33 123h-6q-31 -63 -94 -103.5t-143 -40.5q-167 0 -246.5 131.5t-79.5 405.5q0 254 99 391t272 137q61 0 96.5 -6.5t77.5 -23.5v424h127zM426 90q160 0 201 189v600q-31 26 -69 36.5t-101 10.5q-115 0 -178.5 -105.5t-63.5 -308.5 q0 -422 211 -422zM877 1434h133q-5 -107 -53 -220.5t-87 -160.5l-51 26q58 146 58 355z" />
<glyph unicode="&#x110;" horiz-adv-x="1075" d="M-2 688v111h145v635q98 16 301 16q537 0 537 -723q0 -123 -17 -229t-57 -202.5t-102 -165t-157.5 -108.5t-217.5 -40q-56 0 -153.5 5t-133.5 11v690h-145zM276 1319v-520h244v-111h-244v-577q14 -3 75.5 -6t84.5 -3q92 0 163 33t117 89t75 137.5t41 170.5t12 195 q0 602 -395 602q-134 0 -173 -10z" />
<glyph unicode="&#x111;" horiz-adv-x="880" d="M754 1434v-144h133v-110h-133v-830q0 -252 16 -354h-86l-33 123h-6q-31 -63 -94 -103.5t-143 -40.5q-167 0 -246.5 131.5t-79.5 405.5q0 254 99 391t272 137q61 0 96.5 -6.5t77.5 -23.5v170h-258v110h258v144h127zM627 279v600q-31 26 -69 36.5t-101 10.5 q-115 0 -178.5 -105.5t-63.5 -308.5q0 -422 211 -422q160 0 201 189z" />
<glyph unicode="&#x112;" horiz-adv-x="878" d="M141 0v1434h621v-121h-488v-512h449v-121h-449v-559h498v-121h-631zM180 1565v114h516v-114h-516z" />
<glyph unicode="&#x113;" horiz-adv-x="837" d="M676 164l47 -96q-49 -44 -122 -68.5t-152 -24.5q-186 0 -276.5 142t-90.5 395q0 258 93 397.5t265 139.5q48 0 88 -8t82 -32.5t71.5 -64.5t48.5 -108.5t20 -159.5q0 -97 -9 -168h-526q0 -98 14 -172.5t45 -130.5t83.5 -85.5t125.5 -29.5q52 0 106.5 21.5t86.5 52.5z M442 934q-207 0 -227 -311h412v28q0 140 -50 211.5t-135 71.5zM178 1200v111h484v-111h-484z" />
<glyph unicode="&#x114;" horiz-adv-x="878" d="M141 0v1434h621v-121h-488v-512h449v-121h-449v-559h498v-121h-631zM168 1747l74 35q29 -75 86 -120.5t131 -45.5q73 0 125.5 47t79.5 119l69 -27q-27 -124 -103 -192t-173 -68q-94 0 -174 64t-115 188z" />
<glyph unicode="&#x115;" horiz-adv-x="837" d="M676 164l47 -96q-49 -44 -122 -68.5t-152 -24.5q-186 0 -276.5 142t-90.5 395q0 258 93 397.5t265 139.5q48 0 88 -8t82 -32.5t71.5 -64.5t48.5 -108.5t20 -159.5q0 -97 -9 -168h-526q0 -98 14 -172.5t45 -130.5t83.5 -85.5t125.5 -29.5q52 0 106.5 21.5t86.5 52.5z M442 934q-207 0 -227 -311h412v28q0 140 -50 211.5t-135 71.5zM172 1436l72 32q30 -78 78.5 -124t105.5 -46t101 45t71 125l70 -26q-9 -110 -78.5 -187t-165.5 -77q-92 0 -162.5 69t-91.5 189z" />
<glyph unicode="&#x116;" horiz-adv-x="878" d="M141 0v1434h621v-121h-488v-512h449v-121h-449v-559h498v-121h-631zM350 1632q0 43 28 73t73 30t73.5 -30.5t28.5 -72.5q0 -45 -28.5 -74.5t-73.5 -29.5t-73 29.5t-28 74.5z" />
<glyph unicode="&#x117;" horiz-adv-x="837" d="M676 164l47 -96q-49 -44 -122 -68.5t-152 -24.5q-186 0 -276.5 142t-90.5 395q0 258 93 397.5t265 139.5q48 0 88 -8t82 -32.5t71.5 -64.5t48.5 -108.5t20 -159.5q0 -97 -9 -168h-526q0 -98 14 -172.5t45 -130.5t83.5 -85.5t125.5 -29.5q52 0 106.5 21.5t86.5 52.5z M442 934q-207 0 -227 -311h412v28q0 140 -50 211.5t-135 71.5zM352 1341q0 46 25 74.5t65 28.5q38 0 65.5 -28.5t27.5 -74.5q0 -45 -27 -71.5t-66 -26.5q-40 0 -65 26.5t-25 71.5z" />
<glyph unicode="&#x118;" horiz-adv-x="878" d="M141 0v1434h621v-121h-488v-512h449v-121h-449v-559h498v-121h-67q-95 -75 -95 -186t92 -111q32 0 64 14l16 -73q-44 -41 -133 -41q-75 0 -122.5 48t-47.5 126q0 146 135 223h-473z" />
<glyph unicode="&#x119;" horiz-adv-x="831" d="M676 164l47 -96q-37 -35 -96 -60q-113 -71 -113 -194q2 -46 25 -76.5t65 -30.5q28 0 68 19l16 -80q-43 -43 -139 -43q-72 0 -116 48.5t-44 131.5q0 117 100 194q-14 -2 -40 -2q-186 0 -276.5 142t-90.5 395q0 258 93 397.5t265 139.5q48 0 88 -8t82 -32.5t71.5 -64.5 t48.5 -108.5t20 -159.5q0 -97 -9 -168h-526q0 -98 14 -172.5t45 -130.5t83.5 -85.5t125.5 -29.5q52 0 106.5 21.5t86.5 52.5zM215 623h412v28q0 140 -50 211.5t-135 71.5q-207 0 -227 -311z" />
<glyph unicode="&#x11a;" horiz-adv-x="878" d="M141 0v1434h621v-121h-488v-512h449v-121h-449v-559h498v-121h-631zM707 1745l-218 -213h-94l-207 215v35h134l96 -105l28 -71l29 69l105 107h127v-37z" />
<glyph unicode="&#x11b;" horiz-adv-x="837" d="M676 164l47 -96q-49 -44 -122 -68.5t-152 -24.5q-186 0 -276.5 142t-90.5 395q0 258 93 397.5t265 139.5q48 0 88 -8t82 -32.5t71.5 -64.5t48.5 -108.5t20 -159.5q0 -97 -9 -168h-526q0 -98 14 -172.5t45 -130.5t83.5 -85.5t125.5 -29.5q52 0 106.5 21.5t86.5 52.5z M442 934q-207 0 -227 -311h412v28q0 140 -50 211.5t-135 71.5zM657 1499l-200 -373h-58l-188 373h125l63 -135l37 -123l35 123l74 135h112z" />
<glyph unicode="&#x11c;" horiz-adv-x="1003" d="M526 633v76h385v-631q-52 -47 -139.5 -75t-177.5 -28q-236 0 -368 184t-132 558q0 192 43 339t116 232.5t161.5 127.5t189.5 42q167 0 270 -49l-34 -119q-83 47 -226 47q-59 0 -112.5 -19.5t-103.5 -65.5t-86.5 -115.5t-58.5 -177t-22 -242.5q0 -309 100.5 -465 t282.5 -156q110 0 183 51v447zM336 1571l217 211h88l207 -213v-35h-127l-96 104l-29 72l-31 -70l-106 -106h-123v37z" />
<glyph unicode="&#x11d;" horiz-adv-x="880" d="M754 979v-1036q0 -377 -334 -377q-168 0 -266 55l39 111q104 -51 208 -51q129 0 177.5 71t48.5 248v80h-6q-68 -105 -218 -105q-165 0 -243 131t-78 406q0 258 100 393t293 135q154 0 279 -61zM428 90q157 0 199 180v621q-62 35 -166 35q-116 0 -181 -103t-65 -311 q0 -422 213 -422zM231 1126l203 373h47l183 -373h-115l-66 136l-34 122l-35 -122l-76 -136h-107z" />
<glyph unicode="&#x11e;" horiz-adv-x="1003" d="M526 633v76h385v-631q-52 -47 -139.5 -75t-177.5 -28q-236 0 -368 184t-132 558q0 192 43 339t116 232.5t161.5 127.5t189.5 42q167 0 270 -49l-34 -119q-83 47 -226 47q-59 0 -112.5 -19.5t-103.5 -65.5t-86.5 -115.5t-58.5 -177t-22 -242.5q0 -309 100.5 -465 t282.5 -156q110 0 183 51v447zM299 1747l74 35q29 -75 86 -120.5t131 -45.5q73 0 125.5 47t79.5 119l69 -27q-27 -124 -103 -192t-173 -68q-94 0 -174 64t-115 188z" />
<glyph unicode="&#x11f;" horiz-adv-x="880" d="M754 979v-1036q0 -377 -334 -377q-168 0 -266 55l39 111q104 -51 208 -51q129 0 177.5 71t48.5 248v80h-6q-68 -105 -218 -105q-165 0 -243 131t-78 406q0 258 100 393t293 135q154 0 279 -61zM428 90q157 0 199 180v621q-62 35 -166 35q-116 0 -181 -103t-65 -311 q0 -422 213 -422zM201 1436l71 32q30 -78 79 -124t106 -46t101 45t71 125l69 -26q-9 -110 -78.5 -187t-164.5 -77q-92 0 -162.5 69t-91.5 189z" />
<glyph unicode="&#x120;" horiz-adv-x="1003" d="M526 633v76h385v-631q-52 -47 -139.5 -75t-177.5 -28q-236 0 -368 184t-132 558q0 192 43 339t116 232.5t161.5 127.5t189.5 42q167 0 270 -49l-34 -119q-83 47 -226 47q-59 0 -112.5 -19.5t-103.5 -65.5t-86.5 -115.5t-58.5 -177t-22 -242.5q0 -309 100.5 -465 t282.5 -156q110 0 183 51v447zM512 1632q0 43 28 73t72 30q45 0 74 -30.5t29 -72.5q0 -45 -29 -74.5t-74 -29.5t-72.5 29.5t-27.5 74.5z" />
<glyph unicode="&#x121;" horiz-adv-x="880" d="M754 979v-1036q0 -377 -334 -377q-168 0 -266 55l39 111q104 -51 208 -51q129 0 177.5 71t48.5 248v80h-6q-68 -105 -218 -105q-165 0 -243 131t-78 406q0 258 100 393t293 135q154 0 279 -61zM428 90q157 0 199 180v621q-62 35 -166 35q-116 0 -181 -103t-65 -311 q0 -422 213 -422zM352 1341q0 46 25 74.5t65 28.5q38 0 65.5 -28.5t27.5 -74.5q0 -45 -27 -71.5t-66 -26.5q-40 0 -65 26.5t-25 71.5z" />
<glyph unicode="&#x122;" horiz-adv-x="1003" d="M526 633v76h385v-631q-52 -47 -139.5 -75t-177.5 -28q-236 0 -368 184t-132 558q0 192 43 339t116 232.5t161.5 127.5t189.5 42q167 0 270 -49l-34 -119q-83 47 -226 47q-59 0 -112.5 -19.5t-103.5 -65.5t-86.5 -115.5t-58.5 -177t-22 -242.5q0 -309 100.5 -465 t282.5 -156q110 0 183 51v447zM489 -207q0 38 23.5 63t56.5 25q45 0 75 -35.5t30 -111.5q0 -86 -42.5 -144.5t-88.5 -78.5l-49 47q80 63 77 157q-37 -6 -59.5 15.5t-22.5 62.5z" />
<glyph unicode="&#x123;" horiz-adv-x="880" d="M754 979v-1036q0 -377 -334 -377q-168 0 -266 55l39 111q104 -51 208 -51q129 0 177.5 71t48.5 248v80h-6q-68 -105 -218 -105q-165 0 -243 131t-78 406q0 258 100 393t293 135q154 0 279 -61zM428 90q157 0 199 180v621q-62 35 -166 35q-116 0 -181 -103t-65 -311 q0 -422 213 -422zM563 1243q0 -38 -23.5 -63t-56.5 -25q-44 0 -74 36t-30 112q0 86 42.5 144.5t88.5 78.5l49 -47q-81 -64 -78 -158q37 6 59.5 -15.5t22.5 -62.5z" />
<glyph unicode="&#x124;" horiz-adv-x="1103" d="M829 0v676h-555v-676h-133v1434h133v-637h555v637h134v-1434h-134zM291 1571l217 211h88l207 -213v-35h-127l-96 104l-29 72l-31 -70l-106 -106h-123v37z" />
<glyph unicode="&#x125;" horiz-adv-x="894" d="M782 0h-127v623q0 163 -37.5 237t-140.5 74q-76 0 -139.5 -55t-83.5 -138v-741h-127v1434h127v-506h6q99 121 254 121q142 0 205 -86.5t63 -303.5v-659zM-57 1571l217 211h88l207 -213v-35h-127l-97 104l-28 72l-31 -70l-106 -106h-123v37z" />
<glyph unicode="&#x126;" horiz-adv-x="1118" d="M18 1077v115h132v242h133v-242h555v242h133v-242h127v-115h-127v-1077h-133v676h-555v-676h-133v1077h-132zM283 797h555v280h-555v-280z" />
<glyph unicode="&#x127;" horiz-adv-x="894" d="M-4 1180v110h131v144h127v-144h262v-110h-262v-252h6q99 121 254 121q142 0 205 -86.5t63 -303.5v-659h-127v623q0 163 -37.5 237t-140.5 74q-76 0 -139.5 -55t-83.5 -138v-741h-127v1180h-131z" />
<glyph unicode="&#x128;" horiz-adv-x="477" d="M172 0v1434h133v-1434h-133zM20 1530l-49 59q97 117 197 117q40 0 107 -31.5t98 -32.5q43 0 84 44l53 -64q-86 -98 -174 -98q-38 0 -106.5 30.5t-100.5 30.5q-57 0 -109 -55z" />
<glyph unicode="&#x129;" horiz-adv-x="442" d="M158 0v1024h127v-1024h-127zM35 1276l-49 61q94 117 172 117q37 0 94.5 -39t87.5 -39q32 0 70 41l47 -61q-81 -103 -156 -103q-35 0 -90 37.5t-78 38.5q-54 0 -98 -53z" />
<glyph unicode="&#x12a;" horiz-adv-x="477" d="M172 0v1434h133v-1434h-133zM-18 1565v114h516v-114h-516z" />
<glyph unicode="&#x12b;" horiz-adv-x="442" d="M158 0v1024h127v-1024h-127zM-20 1200v111h483v-111h-483z" />
<glyph unicode="&#x12c;" horiz-adv-x="477" d="M172 0v1434h133v-1434h-133zM-45 1747l74 35q29 -75 86 -120.5t131 -45.5q73 0 125.5 47t79.5 119l69 -27q-27 -124 -103 -192t-173 -68q-94 0 -174 64t-115 188z" />
<glyph unicode="&#x12d;" horiz-adv-x="442" d="M158 0v1024h127v-1024h-127zM-27 1436l72 32q30 -78 78.5 -124t105.5 -46t101 45t71 125l70 -26q-9 -110 -78.5 -187t-165.5 -77q-92 0 -162.5 69t-91.5 189z" />
<glyph unicode="&#x12e;" horiz-adv-x="477" d="M172 0v1434h133v-1434h-29q-97 -73 -94 -186q2 -48 25.5 -79.5t66.5 -31.5q20 0 64 14l16 -71q-43 -43 -133 -43q-75 0 -122.5 47t-47.5 129q0 72 36 128.5t99 92.5h-14z" />
<glyph unicode="&#x12f;" horiz-adv-x="440" d="M158 0v1024h127v-1024h-31q-99 -78 -96 -186q0 -45 24.5 -76t65.5 -31q31 0 65 19l17 -80q-43 -43 -140 -43q-71 0 -115 49t-44 131q0 141 129 217h-2zM129 1341q0 46 25 74.5t65 28.5q38 0 65 -28.5t27 -74.5q0 -45 -26.5 -71.5t-65.5 -26.5q-40 0 -65 26.5t-25 71.5z " />
<glyph unicode="&#x130;" horiz-adv-x="477" d="M172 0v1434h133v-1434h-133zM139 1632q0 43 28 73t73 30t73.5 -30.5t28.5 -72.5q0 -45 -28.5 -74.5t-73.5 -29.5t-73 29.5t-28 74.5z" />
<glyph unicode="&#x131;" horiz-adv-x="442" d="M158 0v1024h127v-1024h-127z" />
<glyph unicode="&#x134;" horiz-adv-x="475" d="M180 330v1104h133v-1129q0 -166 -53.5 -244.5t-177.5 -78.5q-32 0 -75 8t-64 20l26 117q42 -25 101 -25q29 0 49 11t32 28.5t18.5 48.5t8.5 62.5t2 77.5zM-12 1571l217 211h88l207 -213v-35h-127l-97 104l-28 72l-31 -70l-106 -106h-123v37z" />
<glyph unicode="&#x135;" horiz-adv-x="436" d="M156 0v1024h127v-1081q0 -208 -64 -300t-203 -77v115q37 0 62.5 13.5t41 36.5t23.5 65.5t10.5 88t2.5 115.5zM2 1126l203 373h47l182 -373h-115l-65 136l-35 122l-35 -122l-75 -136h-107z" />
<glyph unicode="&#x136;" horiz-adv-x="999" d="M774 0l-424 674h-76v-674h-133v1434h133v-674l74 28l389 646h152l-385 -621l-68 -65l82 -82l422 -666h-166zM389 -207q0 38 23.5 63t56.5 25q45 0 74.5 -35.5t29.5 -111.5q0 -86 -42.5 -144.5t-88.5 -78.5l-49 47q81 64 78 157q-37 -6 -59.5 15.5t-22.5 62.5z" />
<glyph unicode="&#x137;" horiz-adv-x="782" d="M610 0l-276 469h-80v-469h-127v1434h127v-879l72 29l256 440h147l-254 -416l-65 -65l82 -82l274 -461h-156zM301 -207q0 38 23.5 63t56.5 25q45 0 74.5 -35.5t29.5 -111.5q0 -86 -42.5 -144.5t-88.5 -78.5l-49 47q81 64 78 157q-37 -6 -59.5 15.5t-22.5 62.5z" />
<glyph unicode="&#x138;" horiz-adv-x="782" d="M610 0l-276 469h-80v-469h-127v1024h127v-469l74 29l266 440h137l-258 -416l-67 -65l86 -82l274 -461h-156z" />
<glyph unicode="&#x139;" horiz-adv-x="847" d="M817 121v-121h-676v1434h133v-1313h543zM170 1540l195 242h184v-39l-268 -203h-111z" />
<glyph unicode="&#x13a;" horiz-adv-x="475" d="M270 1434v-1211q0 -129 76 -129q54 0 103 19l12 -101q-23 -14 -69 -23t-81 -9q-168 0 -168 215v1239h127zM152 1540l194 242h184v-39l-268 -203h-110z" />
<glyph unicode="&#x13b;" horiz-adv-x="847" d="M817 121v-121h-676v1434h133v-1313h543zM403 -207q0 38 23.5 63t56.5 25q45 0 75 -35.5t30 -111.5q0 -86 -42.5 -144.5t-88.5 -78.5l-49 47q80 63 77 157q-37 -6 -59.5 15.5t-22.5 62.5z" />
<glyph unicode="&#x13c;" horiz-adv-x="475" d="M270 1434v-1211q0 -129 76 -129q54 0 103 19l12 -101q-23 -14 -69 -23t-81 -9q-168 0 -168 215v1239h127zM201 -207q0 38 23.5 63t56.5 25q45 0 74.5 -35.5t29.5 -111.5q0 -86 -42.5 -144.5t-88.5 -78.5l-49 47q81 64 78 157q-37 -6 -59.5 15.5t-22.5 62.5z" />
<glyph unicode="&#x13d;" horiz-adv-x="847" d="M817 121v-121h-676v1434h133v-1313h543zM575 1434h134q-5 -107 -53 -220.5t-87 -160.5l-51 26q57 143 57 355z" />
<glyph unicode="&#x13e;" horiz-adv-x="475" d="M270 1434v-1211q0 -129 76 -129q54 0 103 19l12 -101q-23 -14 -69 -23t-81 -9q-168 0 -168 215v1239h127zM391 1434h133q-5 -107 -52.5 -220.5t-86.5 -160.5l-51 26q57 143 57 355z" />
<glyph unicode="&#x13f;" horiz-adv-x="847" d="M524 809q0 43 25 72.5t63 29.5q40 0 67.5 -29.5t27.5 -72.5q0 -42 -27.5 -70t-67.5 -28q-39 0 -63.5 27.5t-24.5 70.5zM817 121v-121h-676v1434h133v-1313h543z" />
<glyph unicode="&#x140;" horiz-adv-x="481" d="M358 764q0 43 25 72.5t63 29.5q37 0 64 -30t27 -72t-27 -70t-64 -28q-38 0 -63 27.5t-25 70.5zM270 1434v-1211q0 -129 76 -129q54 0 103 19l12 -101q-23 -14 -69 -23t-81 -9q-168 0 -168 215v1239h127z" />
<glyph unicode="&#x141;" horiz-adv-x="847" d="M35 438v142l106 102v752h133v-621l183 178v-149l-183 -174v-547h543v-121h-676v539z" />
<glyph unicode="&#x142;" horiz-adv-x="462" d="M20 438v142l123 118v736h127v-613l172 170v-149l-172 -166v-453q0 -129 76 -129q54 0 103 19l12 -101q-23 -14 -69 -23t-81 -9q-168 0 -168 215v360z" />
<glyph unicode="&#x143;" horiz-adv-x="1103" d="M893 -25l-553 979l-88 220h-6l22 -220v-954h-127v1458h70l557 -975l82 -209h8l-20 209v951h127v-1459h-72zM487 1540l195 242h184v-39l-268 -203h-111z" />
<glyph unicode="&#x144;" horiz-adv-x="894" d="M782 0h-127v625q0 167 -38 238t-136 71q-83 0 -141 -49.5t-86 -130.5v-754h-127v1024h88l25 -106h6q43 58 111 94.5t153 36.5q94 0 151.5 -33.5t89 -120.5t31.5 -236v-659zM401 1171l99 304h141v-39l-164 -265h-76z" />
<glyph unicode="&#x145;" horiz-adv-x="1103" d="M893 -25l-553 979l-88 220h-6l22 -220v-954h-127v1458h70l557 -975l82 -209h8l-20 209v951h127v-1459h-72zM465 -207q0 38 23.5 63t56.5 25q45 0 74.5 -35.5t29.5 -111.5q0 -86 -42.5 -144.5t-88.5 -78.5l-49 47q81 64 78 157q-37 -6 -59.5 15.5t-22.5 62.5z" />
<glyph unicode="&#x146;" horiz-adv-x="894" d="M782 0h-127v625q0 167 -38 238t-136 71q-83 0 -141 -49.5t-86 -130.5v-754h-127v1024h88l25 -106h6q43 58 111 94.5t153 36.5q94 0 151.5 -33.5t89 -120.5t31.5 -236v-659zM356 -207q0 38 23.5 63t56.5 25q45 0 75 -35.5t30 -111.5q0 -86 -42.5 -144.5t-88.5 -78.5 l-50 47q81 64 78 157q-37 -6 -59.5 15.5t-22.5 62.5z" />
<glyph unicode="&#x147;" horiz-adv-x="1103" d="M893 -25l-553 979l-88 220h-6l22 -220v-954h-127v1458h70l557 -975l82 -209h8l-20 209v951h127v-1459h-72zM815 1745l-217 -213h-94l-207 215v35h133l96 -105l29 -71l29 69l104 107h127v-37z" />
<glyph unicode="&#x148;" horiz-adv-x="894" d="M782 0h-127v625q0 167 -38 238t-136 71q-83 0 -141 -49.5t-86 -130.5v-754h-127v1024h88l25 -106h6q43 58 111 94.5t153 36.5q94 0 151.5 -33.5t89 -120.5t31.5 -236v-659zM674 1499l-201 -373h-57l-189 373h125l64 -135l37 -123l34 123l74 135h113z" />
<glyph unicode="&#x149;" horiz-adv-x="894" d="M782 0h-127v625q0 167 -38 238t-136 71q-83 0 -141 -49.5t-86 -130.5v-754h-127v1024h88l25 -106h6q43 58 111 94.5t153 36.5q94 0 151.5 -33.5t89 -120.5t31.5 -236v-659zM-74 1356q0 42 26 68t64 26q46 0 74.5 -33.5t28.5 -95.5q0 -59 -14.5 -109.5t-38.5 -83 t-45.5 -52.5t-43.5 -32l-45 52q39 26 63 71t21 99q-38 -8 -64 18t-26 72z" />
<glyph unicode="&#x14a;" horiz-adv-x="1103" d="M141 0v1458h70l557 -975l82 -209h8l-20 209v951h127v-1491q0 -210 -62 -301t-205 -76v115q38 0 63.5 13.5t40.5 36.5t23 66t10.5 87.5t2.5 115.5v70l-498 884l-88 220h-6l22 -220v-954h-127z" />
<glyph unicode="&#x14b;" horiz-adv-x="894" d="M127 0v1024h88l25 -106h6q43 58 111 94.5t153 36.5q94 0 151.5 -33.5t89 -120.5t31.5 -236v-716q0 -207 -63 -295.5t-201 -73.5v115q37 0 62 13t40 35t22.5 64t10 85.5t2.5 115.5v623q0 167 -38 238t-136 71q-83 0 -141 -49.5t-86 -130.5v-754h-127z" />
<glyph unicode="&#x14c;" horiz-adv-x="1122" d="M94 717q0 365 116.5 553t348.5 188q469 0 469 -741q0 -365 -117.5 -553.5t-351.5 -188.5q-465 0 -465 742zM231 717q0 -126 19 -235t57 -197t103 -138.5t149 -50.5q163 0 247.5 155t84.5 466q0 127 -18.5 235t-57 196t-104 138.5t-152.5 50.5q-160 0 -244 -155t-84 -465z M311 1565v114h516v-114h-516z" />
<glyph unicode="&#x14d;" horiz-adv-x="878" d="M82 512q0 537 356 537q183 0 271 -132.5t88 -404.5q0 -537 -359 -537q-182 0 -269 132.5t-87 404.5zM215 512q0 -422 223 -422q114 0 170 102.5t56 319.5q0 196 -54 309t-172 113q-112 0 -167.5 -103t-55.5 -319zM197 1200v111h483v-111h-483z" />
<glyph unicode="&#x14e;" horiz-adv-x="1122" d="M94 717q0 365 116.5 553t348.5 188q469 0 469 -741q0 -365 -117.5 -553.5t-351.5 -188.5q-465 0 -465 742zM231 717q0 -126 19 -235t57 -197t103 -138.5t149 -50.5q163 0 247.5 155t84.5 466q0 127 -18.5 235t-57 196t-104 138.5t-152.5 50.5q-160 0 -244 -155t-84 -465z M276 1747l74 35q29 -75 86 -120.5t131 -45.5q73 0 125.5 47t79.5 119l70 -27q-27 -124 -103.5 -192t-173.5 -68q-94 0 -174 64t-115 188z" />
<glyph unicode="&#x14f;" horiz-adv-x="878" d="M82 512q0 537 356 537q183 0 271 -132.5t88 -404.5q0 -537 -359 -537q-182 0 -269 132.5t-87 404.5zM215 512q0 -422 223 -422q114 0 170 102.5t56 319.5q0 196 -54 309t-172 113q-112 0 -167.5 -103t-55.5 -319zM193 1436l71 32q30 -78 79 -124t106 -46t101 45t71 125 l69 -26q-9 -110 -78.5 -187t-165.5 -77q-92 0 -162 69t-91 189z" />
<glyph unicode="&#x150;" horiz-adv-x="1122" d="M94 717q0 365 116.5 553t348.5 188q469 0 469 -741q0 -365 -117.5 -553.5t-351.5 -188.5q-465 0 -465 742zM231 717q0 -126 19 -235t57 -197t103 -138.5t149 -50.5q163 0 247.5 155t84.5 466q0 127 -18.5 235t-57 196t-104 138.5t-152.5 50.5q-160 0 -244 -155t-84 -465z M401 1518l105 223h151v-33l-163 -190h-93zM602 1518l168 223h158v-33l-234 -190h-92z" />
<glyph unicode="&#x151;" horiz-adv-x="878" d="M82 512q0 537 356 537q183 0 271 -132.5t88 -404.5q0 -537 -359 -537q-182 0 -269 132.5t-87 404.5zM215 512q0 -422 223 -422q114 0 170 102.5t56 319.5q0 196 -54 309t-172 113q-112 0 -167.5 -103t-55.5 -319zM289 1169l57 265h125v-33l-117 -232h-65zM463 1169 l121 265h137v-33l-186 -232h-72z" />
<glyph unicode="&#x152;" horiz-adv-x="1527" d="M791 127v1171q-82 39 -232 39q-158 0 -243 -155.5t-85 -464.5q0 -127 19.5 -235.5t58.5 -196.5t106.5 -138.5t155.5 -50.5h11q123 0 209 31zM791 0q-98 -25 -232 -25q-119 0 -209 52t-145.5 150t-83 233t-27.5 307q0 359 119.5 550t345.5 191q88 0 232 -24h620v-121h-487 v-512h448v-121h-448v-559h497v-121h-630z" />
<glyph unicode="&#x153;" horiz-adv-x="1415" d="M215 512q0 -84 12 -157t37.5 -134t70 -96t103.5 -35q112 0 169 107t57 315q0 84 -12.5 157t-38 134t-70.5 96t-105 35q-110 0 -166.5 -107.5t-56.5 -314.5zM727 162q-87 -187 -289 -187q-180 0 -268 138t-88 399q0 258 93 397.5t263 139.5q202 0 289 -185 q44 86 118.5 135.5t170.5 49.5q47 0 87.5 -8.5t82.5 -33.5t71.5 -65t48.5 -108t19 -158q0 -105 -8 -168h-531q3 -418 275 -418q53 0 108.5 22t87.5 54l50 -94q-50 -46 -126.5 -71.5t-158.5 -25.5q-102 0 -179 50.5t-116 136.5zM1018 934q-207 0 -227 -311h411 q3 158 -45.5 234.5t-138.5 76.5z" />
<glyph unicode="&#x154;" horiz-adv-x="974" d="M141 0v1419q136 31 287 31q82 0 147.5 -20t118.5 -64.5t82 -122.5t29 -186q0 -163 -69.5 -266t-190.5 -136l78 -80l284 -575h-151l-320 637l-162 33v-670h-133zM434 1329q-114 0 -160 -12v-561h127q126 0 196.5 76t70.5 225q0 121 -61.5 196.5t-172.5 75.5zM338 1540 l194 242h185v-39l-268 -203h-111z" />
<glyph unicode="&#x155;" horiz-adv-x="552" d="M539 1024l-29 -129q-52 18 -94 18q-66 0 -108 -39t-54 -104v-770h-127v1024h88l25 -106h6q64 122 186 122q55 0 107 -16zM227 1171l99 304h141v-39l-164 -265h-76z" />
<glyph unicode="&#x156;" horiz-adv-x="974" d="M141 0v1419q136 31 287 31q82 0 147.5 -20t118.5 -64.5t82 -122.5t29 -186q0 -163 -69.5 -266t-190.5 -136l78 -80l284 -575h-151l-320 637l-162 33v-670h-133zM434 1329q-114 0 -160 -12v-561h127q126 0 196.5 76t70.5 225q0 121 -61.5 196.5t-172.5 75.5zM399 -207 q0 38 23.5 63t56.5 25q45 0 75 -35.5t30 -111.5q0 -86 -42.5 -144.5t-88.5 -78.5l-50 47q81 64 78 157q-37 -6 -59.5 15.5t-22.5 62.5z" />
<glyph unicode="&#x157;" horiz-adv-x="552" d="M539 1024l-29 -129q-52 18 -94 18q-66 0 -108 -39t-54 -104v-770h-127v1024h88l25 -106h6q64 122 186 122q55 0 107 -16zM131 -207q0 38 23.5 63t56.5 25q45 0 74.5 -35.5t29.5 -111.5q0 -86 -42.5 -144.5t-88.5 -78.5l-49 47q81 64 78 157q-37 -6 -59.5 15.5t-22.5 62.5 z" />
<glyph unicode="&#x158;" horiz-adv-x="974" d="M141 0v1419q136 31 287 31q82 0 147.5 -20t118.5 -64.5t82 -122.5t29 -186q0 -163 -69.5 -266t-190.5 -136l78 -80l284 -575h-151l-320 637l-162 33v-670h-133zM434 1329q-114 0 -160 -12v-561h127q126 0 196.5 76t70.5 225q0 121 -61.5 196.5t-172.5 75.5zM672 1745 l-217 -213h-95l-206 215v35h133l96 -105l29 -71l28 69l105 107h127v-37z" />
<glyph unicode="&#x159;" horiz-adv-x="552" d="M539 1024l-29 -129q-52 18 -94 18q-66 0 -108 -39t-54 -104v-770h-127v1024h88l25 -106h6q64 122 186 122q55 0 107 -16zM532 1499l-200 -373h-58l-188 373h125l63 -135l37 -123l35 123l74 135h112z" />
<glyph unicode="&#x15a;" horiz-adv-x="870" d="M659 346q0 68 -30.5 126.5t-79.5 103t-107.5 87.5t-117.5 89.5t-108 97.5t-79.5 123t-30.5 157q0 158 97.5 243t265.5 85q193 0 303 -63l-41 -119q-41 26 -111.5 43.5t-156.5 17.5q-112 0 -167.5 -56t-55.5 -146q0 -61 30.5 -115.5t79.5 -98t107.5 -87.5t117.5 -92 t108 -102t79.5 -128t30.5 -160q0 -173 -106 -275t-294 -102q-204 0 -319 72l45 127q46 -31 118 -54.5t156 -23.5q121 0 193.5 63t72.5 187zM391 1540l195 242h184v-39l-268 -203h-111z" />
<glyph unicode="&#x15b;" horiz-adv-x="688" d="M489 248q0 55 -22 97.5t-57 71.5t-77 55t-84.5 54.5t-77.5 62t-57 86t-22 118.5q0 125 69 190.5t193 65.5q145 0 242 -56l-33 -110q-90 51 -192 51q-78 0 -115 -34t-37 -105q0 -44 22 -80t57 -62.5t77.5 -52.5t84.5 -57t77 -68.5t57 -95.5t22 -129q0 -116 -76 -195.5 t-216 -79.5q-157 0 -258 62l36 115q101 -62 213 -62q77 0 125.5 40t48.5 118zM297 1171l98 304h142v-39l-164 -265h-76z" />
<glyph unicode="&#x15c;" horiz-adv-x="870" d="M659 346q0 68 -30.5 126.5t-79.5 103t-107.5 87.5t-117.5 89.5t-108 97.5t-79.5 123t-30.5 157q0 158 97.5 243t265.5 85q193 0 303 -63l-41 -119q-41 26 -111.5 43.5t-156.5 17.5q-112 0 -167.5 -56t-55.5 -146q0 -61 30.5 -115.5t79.5 -98t107.5 -87.5t117.5 -92 t108 -102t79.5 -128t30.5 -160q0 -173 -106 -275t-294 -102q-204 0 -319 72l45 127q46 -31 118 -54.5t156 -23.5q121 0 193.5 63t72.5 187zM209 1571l217 211h88l207 -213v-35h-127l-96 104l-29 72l-31 -70l-106 -106h-123v37z" />
<glyph unicode="&#x15d;" horiz-adv-x="688" d="M489 248q0 55 -22 97.5t-57 71.5t-77 55t-84.5 54.5t-77.5 62t-57 86t-22 118.5q0 125 69 190.5t193 65.5q145 0 242 -56l-33 -110q-90 51 -192 51q-78 0 -115 -34t-37 -105q0 -44 22 -80t57 -62.5t77.5 -52.5t84.5 -57t77 -68.5t57 -95.5t22 -129q0 -116 -76 -195.5 t-216 -79.5q-157 0 -258 62l36 115q101 -62 213 -62q77 0 125.5 40t48.5 118zM135 1126l203 373h47l182 -373h-114l-66 136l-35 122l-35 -122l-75 -136h-107z" />
<glyph unicode="&#x15e;" horiz-adv-x="870" d="M659 346q0 68 -30.5 126.5t-79.5 103t-107.5 87.5t-117.5 89.5t-108 97.5t-79.5 123t-30.5 157q0 158 97.5 243t265.5 85q193 0 303 -63l-41 -119q-41 26 -111.5 43.5t-156.5 17.5q-112 0 -167.5 -56t-55.5 -146q0 -61 30.5 -115.5t79.5 -98t107.5 -87.5t117.5 -92 t108 -102t79.5 -128t30.5 -160q0 -153 -84.5 -251.5t-237.5 -118.5l-31 -70q67 -17 98 -54.5t31 -99.5q0 -80 -54 -131t-148 -51q-31 0 -68 6l14 76q12 -2 35 -2q105 0 105 84q0 60 -142 78l68 157q-198 3 -305 72l45 127q46 -31 118 -54.5t156 -23.5q121 0 193.5 63 t72.5 187z" />
<glyph unicode="&#x15f;" horiz-adv-x="688" d="M489 248q0 55 -22 97.5t-57 71.5t-77 55t-84.5 54.5t-77.5 62t-57 86t-22 118.5q0 125 69 190.5t193 65.5q145 0 242 -56l-33 -110q-90 51 -192 51q-78 0 -115 -34t-37 -105q0 -44 22 -80t57 -62.5t77.5 -52.5t84.5 -57t77 -68.5t57 -95.5t22 -129q0 -104 -61.5 -180 t-177.5 -90l-29 -68q67 -17 98 -54.5t31 -99.5q0 -80 -54.5 -131t-148.5 -51q-30 0 -67 6l14 76q12 -2 35 -2q34 0 56.5 8t32 22t12.5 26t3 28q0 60 -141 78l68 159q-131 5 -221 60l36 117q101 -62 213 -62q77 0 125.5 39t48.5 117z" />
<glyph unicode="&#x160;" horiz-adv-x="870" d="M659 346q0 68 -30.5 126.5t-79.5 103t-107.5 87.5t-117.5 89.5t-108 97.5t-79.5 123t-30.5 157q0 158 97.5 243t265.5 85q193 0 303 -63l-41 -119q-41 26 -111.5 43.5t-156.5 17.5q-112 0 -167.5 -56t-55.5 -146q0 -61 30.5 -115.5t79.5 -98t107.5 -87.5t117.5 -92 t108 -102t79.5 -128t30.5 -160q0 -173 -106 -275t-294 -102q-204 0 -319 72l45 127q46 -31 118 -54.5t156 -23.5q121 0 193.5 63t72.5 187zM741 1745l-217 -213h-94l-207 215v35h133l97 -105l28 -71l29 69l104 107h127v-37z" />
<glyph unicode="&#x161;" horiz-adv-x="688" d="M489 248q0 55 -22 97.5t-57 71.5t-77 55t-84.5 54.5t-77.5 62t-57 86t-22 118.5q0 125 69 190.5t193 65.5q145 0 242 -56l-33 -110q-90 51 -192 51q-78 0 -115 -34t-37 -105q0 -44 22 -80t57 -62.5t77.5 -52.5t84.5 -57t77 -68.5t57 -95.5t22 -129q0 -116 -76 -195.5 t-216 -79.5q-157 0 -258 62l36 115q101 -62 213 -62q77 0 125.5 40t48.5 118zM567 1499l-200 -373h-58l-188 373h125l63 -135l37 -123l35 123l74 135h112z" />
<glyph unicode="&#x162;" horiz-adv-x="911" d="M881 1434v-121h-359v-1313h-22l-39 -88q67 -17 98 -54.5t31 -99.5q0 -80 -54.5 -131t-148.5 -51q-31 0 -68 6l15 76q12 -2 35 -2q34 0 56.5 8t32 22t12.5 26t3 28q0 60 -141 78l78 182h-21v1313h-358v121h850z" />
<glyph unicode="&#x163;" horiz-adv-x="555" d="M20 909v115h127v205l127 41v-246h226v-115h-226v-645q0 -90 23 -129t74 -39q55 0 139 31l29 -100q-66 -35 -158 -45l-31 -70q67 -17 98 -54.5t31 -99.5q0 -80 -54.5 -131t-148.5 -51q-30 0 -67 6l14 76q12 -2 35 -2q34 0 56.5 8t32 22t12.5 26t3 28q0 60 -141 78l70 164 q-77 12 -110.5 77.5t-33.5 198.5v651h-127z" />
<glyph unicode="&#x164;" horiz-adv-x="911" d="M881 1434v-121h-359v-1313h-133v1313h-358v121h850zM715 1745l-217 -213h-95l-206 215v35h133l96 -105l29 -71l28 69l105 107h127v-37z" />
<glyph unicode="&#x165;" horiz-adv-x="555" d="M20 909v115h127v205l127 41v-246h226v-115h-226v-645q0 -90 23 -130t74 -40q55 0 139 31l29 -98q-89 -47 -211 -47q-97 0 -139 65.5t-42 212.5v651h-127zM387 1458h133q-5 -107 -52.5 -220.5t-86.5 -160.5l-51 27q57 143 57 354z" />
<glyph unicode="&#x166;" horiz-adv-x="972" d="M911 1434v-121h-358v-500h358v-121h-358v-692h-133v692h-359v121h359v500h-359v121h850z" />
<glyph unicode="&#x167;" horiz-adv-x="612" d="M57 909v115h127v205l127 41v-246h226v-115h-226v-319h226v-115h-226v-190q0 -105 23 -150t74 -45q63 0 139 39l28 -102q-93 -52 -210 -52q-98 0 -139.5 71.5t-41.5 236.5v192h-127v115h127v319h-127z" />
<glyph unicode="&#x168;" horiz-adv-x="1064" d="M801 520v914h127v-967q0 -250 -97 -366.5t-284 -116.5q-211 0 -310.5 110t-99.5 340v1000h133v-914q0 -229 63.5 -322.5t215.5 -93.5q140 0 196 96.5t56 319.5zM319 1530l-49 59q97 117 197 117q40 0 107 -31.5t98 -32.5q43 0 84 44l53 -64q-86 -98 -174 -98 q-38 0 -106.5 30.5t-100.5 30.5q-57 0 -109 -55z" />
<glyph unicode="&#x169;" horiz-adv-x="882" d="M113 1024h127v-631q0 -165 33.5 -234t121.5 -69q84 0 142 62t90 155v717h127v-737q0 -170 18 -287h-88l-33 145h-6q-39 -75 -106.5 -122.5t-159.5 -47.5q-54 0 -94 10t-73.5 36t-54.5 69.5t-32.5 111t-11.5 160.5v662zM248 1276l-49 61q94 117 172 117q37 0 94.5 -39 t87.5 -39q32 0 70 41l47 -61q-81 -103 -156 -103q-35 0 -90 37.5t-78 38.5q-54 0 -98 -53z" />
<glyph unicode="&#x16a;" horiz-adv-x="1064" d="M801 520v914h127v-967q0 -250 -97 -366.5t-284 -116.5q-211 0 -310.5 110t-99.5 340v1000h133v-914q0 -229 63.5 -322.5t215.5 -93.5q140 0 196 96.5t56 319.5zM279 1565v114h516v-114h-516z" />
<glyph unicode="&#x16b;" horiz-adv-x="882" d="M113 1024h127v-631q0 -165 33.5 -234t121.5 -69q84 0 142 62t90 155v717h127v-737q0 -170 18 -287h-88l-33 145h-6q-39 -75 -106.5 -122.5t-159.5 -47.5q-54 0 -94 10t-73.5 36t-54.5 69.5t-32.5 111t-11.5 160.5v662zM197 1200v111h483v-111h-483z" />
<glyph unicode="&#x16c;" horiz-adv-x="1064" d="M801 520v914h127v-967q0 -250 -97 -366.5t-284 -116.5q-211 0 -310.5 110t-99.5 340v1000h133v-914q0 -229 63.5 -322.5t215.5 -93.5q140 0 196 96.5t56 319.5zM254 1747l74 35q29 -75 86 -120.5t131 -45.5q73 0 125.5 47t79.5 119l69 -27q-27 -124 -103 -192t-173 -68 q-94 0 -174 64t-115 188z" />
<glyph unicode="&#x16d;" horiz-adv-x="882" d="M113 1024h127v-631q0 -165 33.5 -234t121.5 -69q84 0 142 62t90 155v717h127v-737q0 -170 18 -287h-88l-33 145h-6q-39 -75 -106.5 -122.5t-159.5 -47.5q-54 0 -94 10t-73.5 36t-54.5 69.5t-32.5 111t-11.5 160.5v662zM186 1436l72 32q30 -78 78.5 -124t105.5 -46t101 45 t71 125l70 -26q-9 -110 -78.5 -187t-165.5 -77q-92 0 -162.5 69t-91.5 189z" />
<glyph unicode="&#x16e;" horiz-adv-x="1064" d="M801 520v914h127v-967q0 -250 -97 -366.5t-284 -116.5q-211 0 -310.5 110t-99.5 340v1000h133v-914q0 -229 63.5 -322.5t215.5 -93.5q140 0 196 96.5t56 319.5zM365 1571q0 78 44 125t130 47q80 0 127 -44.5t47 -127.5q0 -76 -45.5 -122t-128.5 -46q-82 0 -128 45 t-46 123zM467 1571q0 -40 18 -65t54 -25q35 0 54 24t19 66q0 44 -18.5 69t-54.5 25q-72 0 -72 -94z" />
<glyph unicode="&#x16f;" horiz-adv-x="882" d="M113 1024h127v-631q0 -165 33.5 -234t121.5 -69q84 0 142 62t90 155v717h127v-737q0 -170 18 -287h-88l-33 145h-6q-39 -75 -106.5 -122.5t-159.5 -47.5q-54 0 -94 10t-73.5 36t-54.5 69.5t-32.5 111t-11.5 160.5v662zM272 1315q0 84 44 132t118 48q73 0 117.5 -44.5 t44.5 -135.5q0 -79 -45 -128.5t-117 -49.5q-74 0 -118 46t-44 132zM362 1315q0 -46 20 -72t52 -26q72 0 72 98q0 50 -20.5 75t-51.5 25q-72 0 -72 -100z" />
<glyph unicode="&#x170;" horiz-adv-x="1064" d="M801 520v914h127v-967q0 -250 -97 -366.5t-284 -116.5q-211 0 -310.5 110t-99.5 340v1000h133v-914q0 -229 63.5 -322.5t215.5 -93.5q140 0 196 96.5t56 319.5zM354 1518l105 223h151v-33l-164 -190h-92zM555 1518l168 223h158v-33l-234 -190h-92z" />
<glyph unicode="&#x171;" horiz-adv-x="882" d="M113 1024h127v-631q0 -165 33.5 -234t121.5 -69q84 0 142 62t90 155v717h127v-737q0 -170 18 -287h-88l-33 145h-6q-39 -75 -106.5 -122.5t-159.5 -47.5q-54 0 -94 10t-73.5 36t-54.5 69.5t-32.5 111t-11.5 160.5v662zM291 1169l57 265h125v-33l-117 -232h-65zM465 1169 l121 265h137v-33l-186 -232h-72z" />
<glyph unicode="&#x172;" horiz-adv-x="1064" d="M801 520v914h127v-967q0 -381 -234 -461q-103 -76 -100 -192q2 -48 25.5 -79.5t66.5 -31.5q30 0 62 14l18 -73q-44 -41 -137 -41q-75 0 -120.5 49t-45.5 127q0 128 110 205h-26q-211 0 -310.5 110t-99.5 340v1000h133v-914q0 -229 63.5 -322.5t215.5 -93.5 q140 0 196 96.5t56 319.5z" />
<glyph unicode="&#x173;" horiz-adv-x="882" d="M113 1024h127v-631q0 -165 33.5 -234t121.5 -69q84 0 142 62t90 155v717h127v-737q0 -170 18 -287h-37q-99 -78 -96 -186q2 -45 25.5 -76t64.5 -31q32 0 66 19l18 -80q-43 -43 -139 -43q-73 0 -117.5 49t-44.5 131t44 142t124 93l-29 127h-6q-39 -75 -106.5 -122.5 t-159.5 -47.5q-54 0 -94 10t-73.5 36t-54.5 69.5t-32.5 111t-11.5 160.5v662z" />
<glyph unicode="&#x174;" horiz-adv-x="1353" d="M154 1434l206 -983l29 -238h2l25 242l237 979h68l237 -983l27 -238h2l29 242l194 979h131l-321 -1459h-74l-233 979l-29 217h-6l-31 -219l-231 -977h-74l-328 1459h140zM428 1571l217 211h88l207 -213v-35h-127l-96 104l-29 72l-31 -70l-106 -106h-123v37z" />
<glyph unicode="&#x175;" horiz-adv-x="1206" d="M565 1024h90l191 -614l41 -203h4l31 207l151 610h119l-277 -1049h-61l-217 695l-31 180h-4l-31 -182l-211 -693h-59l-287 1049h136l167 -614l27 -203h4l39 207zM387 1126l203 373h47l182 -373h-114l-66 136l-35 122l-35 -122l-75 -136h-107z" />
<glyph unicode="&#x176;" horiz-adv-x="913" d="M393 0v578l-379 856h152l272 -643l27 -119h4l29 123l260 639h141l-373 -854v-580h-133zM203 1571l217 211h88l207 -213v-35h-127l-96 104l-29 72l-31 -70l-106 -106h-123v37z" />
<glyph unicode="&#x177;" horiz-adv-x="759" d="M162 1024l205 -682l47 -205h8l35 207l164 680h127l-242 -920q-19 -73 -32 -120.5t-32 -108t-35 -99t-38 -79.5t-44 -64t-49.5 -38t-58.5 -15q-55 0 -90 17l20 122q15 -6 33 -6q117 0 168 287l-328 1024h142zM178 1126l203 373h47l182 -373h-114l-66 136l-35 122l-35 -122 l-75 -136h-107z" />
<glyph unicode="&#x178;" horiz-adv-x="913" d="M393 0v578l-379 856h152l272 -643l27 -119h4l29 123l260 639h141l-373 -854v-580h-133zM219 1624q0 41 24.5 66.5t63.5 25.5q36 0 60 -25.5t24 -66.5q0 -39 -24 -64.5t-60 -25.5q-38 0 -63 25t-25 65zM532 1624q0 41 24 66.5t60 25.5q38 0 62 -25.5t24 -66.5 q0 -40 -24 -65t-62 -25q-36 0 -60 25.5t-24 64.5z" />
<glyph unicode="&#x179;" horiz-adv-x="897" d="M63 0v121l588 1112l66 80h-654v121h771v-121l-590 -1118l-64 -74h654v-121h-771zM358 1540l195 242h184v-39l-268 -203h-111z" />
<glyph unicode="&#x17a;" horiz-adv-x="729" d="M70 0v115l391 706l67 88h-458v115h579v-115l-395 -712l-66 -82h461v-115h-579zM301 1171l98 304h142v-39l-164 -265h-76z" />
<glyph unicode="&#x17b;" horiz-adv-x="897" d="M63 0v121l588 1112l66 80h-654v121h771v-121l-590 -1118l-64 -74h654v-121h-771zM350 1632q0 43 28 73t73 30t73.5 -30.5t28.5 -72.5q0 -45 -28.5 -74.5t-73.5 -29.5t-73 29.5t-28 74.5z" />
<glyph unicode="&#x17c;" horiz-adv-x="729" d="M70 0v115l391 706l67 88h-458v115h579v-115l-395 -712l-66 -82h461v-115h-579zM283 1341q0 46 25 74.5t65 28.5q38 0 65 -28.5t27 -74.5q0 -45 -26.5 -71.5t-65.5 -26.5q-40 0 -65 26.5t-25 71.5z" />
<glyph unicode="&#x17d;" horiz-adv-x="897" d="M63 0v121l588 1112l66 80h-654v121h771v-121l-590 -1118l-64 -74h654v-121h-771zM692 1745l-217 -213h-94l-207 215v35h133l96 -105l29 -71l29 69l104 107h127v-37z" />
<glyph unicode="&#x17e;" horiz-adv-x="729" d="M70 0v115l391 706l67 88h-458v115h579v-115l-395 -712l-66 -82h461v-115h-579zM586 1499l-201 -373h-57l-189 373h125l64 -135l37 -123l34 123l74 135h113z" />
<glyph unicode="&#x17f;" horiz-adv-x="415" d="M37 909v115h127v57q0 194 52.5 279.5t182.5 85.5q105 0 176 -35l-32 -106q-58 26 -129 26q-29 0 -49.5 -6.5t-34.5 -25t-21.5 -38.5t-11.5 -60t-5 -76.5t-1 -100.5v-1024h-127v909h-127z" />
<glyph unicode="&#x18f;" horiz-adv-x="1048" d="M825 672h-596q-8 -71 -8 -133q0 -196 73 -319.5t210 -123.5q157 0 237.5 147t83.5 429zM106 793h717q-14 281 -98 412.5t-254 131.5q-66 0 -137.5 -25.5t-118.5 -56.5l-41 109q146 94 320 94q232 0 347 -177t115 -564q0 -361 -113.5 -551.5t-340.5 -190.5 q-197 0 -305.5 151t-108.5 409q0 140 18 258z" />
<glyph unicode="&#x192;" d="M739 909h-213l-131 -979q-11 -81 -28.5 -142t-46.5 -111t-74 -76.5t-105 -26.5q-113 0 -190 41l39 109q75 -35 143 -35q61 0 94.5 75.5t55.5 251.5l110 893h-139v115h158l18 137q19 156 73 226.5t167 70.5q107 0 194 -41l-37 -106q-68 32 -145 32q-61 0 -86 -50.5 t-41 -180.5l-12 -88h196v-115z" />
<glyph unicode="&#x1dd;" horiz-adv-x="831" d="M156 864l-50 97q49 41 125 64.5t158 23.5q182 0 271.5 -139.5t89.5 -397.5q0 -266 -90.5 -401.5t-256.5 -135.5q-156 0 -238.5 114.5t-82.5 328.5q0 62 8 141h533q-6 196 -68 285.5t-203 89.5q-55 0 -109.5 -20.5t-86.5 -49.5zM406 90q100 0 159 92.5t56 261.5h-416v-41 q1 -147 57.5 -230t143.5 -83z" />
<glyph unicode="&#x1e6;" horiz-adv-x="1003" d="M526 633v76h385v-631q-52 -47 -139.5 -75t-177.5 -28q-236 0 -368 184t-132 558q0 192 43 339t116 232.5t161.5 127.5t189.5 42q167 0 270 -49l-34 -119q-83 47 -226 47q-59 0 -112.5 -19.5t-103.5 -65.5t-86.5 -115.5t-58.5 -177t-22 -242.5q0 -309 100.5 -465 t282.5 -156q110 0 183 51v447zM858 1745l-217 -213h-94l-207 215v35h133l96 -105l29 -71l29 69l104 107h127v-37z" />
<glyph unicode="&#x1e7;" horiz-adv-x="880" d="M754 979v-1036q0 -377 -334 -377q-168 0 -266 55l39 111q104 -51 208 -51q129 0 177.5 71t48.5 248v80h-6q-68 -105 -218 -105q-165 0 -243 131t-78 406q0 258 100 393t293 135q154 0 279 -61zM428 90q157 0 199 180v621q-62 35 -166 35q-116 0 -181 -103t-65 -311 q0 -422 213 -422zM666 1499l-201 -373h-57l-189 373h125l64 -135l36 -123l35 123l74 135h113z" />
<glyph unicode="&#x1f4;" horiz-adv-x="1003" d="M526 633v76h385v-631q-52 -47 -139.5 -75t-177.5 -28q-236 0 -368 184t-132 558q0 192 43 339t116 232.5t161.5 127.5t189.5 42q167 0 270 -49l-34 -119q-83 47 -226 47q-59 0 -112.5 -19.5t-103.5 -65.5t-86.5 -115.5t-58.5 -177t-22 -242.5q0 -309 100.5 -465 t282.5 -156q110 0 183 51v447zM514 1540l195 242h184v-39l-268 -203h-111z" />
<glyph unicode="&#x1f5;" horiz-adv-x="880" d="M754 979v-1036q0 -377 -334 -377q-168 0 -266 55l39 111q104 -51 208 -51q129 0 177.5 71t48.5 248v80h-6q-68 -105 -218 -105q-165 0 -243 131t-78 406q0 258 100 393t293 135q154 0 279 -61zM428 90q157 0 199 180v621q-62 35 -166 35q-116 0 -181 -103t-65 -311 q0 -422 213 -422zM412 1171l98 304h141v-39l-164 -265h-75z" />
<glyph unicode="&#x1fa;" horiz-adv-x="956" d="M305 1571q0 78 44 125t130 47q80 0 127 -44.5t47 -127.5q0 -65 -34.5 -109.5t-98.5 -56.5l424 -1405h-137l-123 420h-422l-119 -420h-129l418 1407q-60 11 -93.5 54t-33.5 110zM432 1001l-131 -460h346l-133 465l-39 213h-2zM408 1571q0 -40 17.5 -65t53.5 -25 q35 0 54.5 24t19.5 66q0 44 -19 69t-55 25q-71 0 -71 -94zM395 1806l195 242h184v-39l-268 -203h-111z" />
<glyph unicode="&#x1fb;" horiz-adv-x="813" d="M162 864l-45 99q56 36 140.5 56.5t174.5 20.5q66 0 114 -18t75 -45.5t43 -70t21 -82.5t5 -91q0 -89 -4 -248.5t-4 -226.5q0 -180 20 -262h-92l-35 119h-8q-78 -129 -252 -129q-109 0 -179 77.5t-70 208.5q0 85 29 146t85 96t127.5 50.5t165.5 15.5q57 0 88 -2q4 45 4 120 q0 126 -36.5 177t-131.5 51q-56 0 -124 -18t-111 -44zM346 100q85 0 138 41t77 101v227q-47 6 -92 6q-270 0 -270 -192q0 -84 40 -133.5t107 -49.5zM242 1315q0 84 43.5 132t117.5 48q73 0 117.5 -44.5t44.5 -135.5q0 -79 -45 -128.5t-117 -49.5q-74 0 -117.5 46t-43.5 132z M332 1315q0 -46 19.5 -72t51.5 -26q72 0 72 98q0 50 -20.5 75t-51.5 25q-71 0 -71 -100zM317 1540l195 242h184v-39l-268 -203h-111z" />
<glyph unicode="&#x1fc;" horiz-adv-x="1384" d="M645 1235h-4l-53 -201l-230 -493h287v694zM645 0v420h-348l-188 -420h-144l680 1434h623v-121h-490v-512h449v-121h-449v-559h498v-121h-631zM692 1540l195 242h184v-39l-268 -203h-111z" />
<glyph unicode="&#x1fd;" horiz-adv-x="1310" d="M348 98q86 0 139.5 47t73.5 113v217q-46 4 -69 4q-50 0 -90 -4.5t-79 -17.5t-65.5 -34t-42.5 -55.5t-16 -80.5q0 -78 41.5 -133.5t107.5 -55.5zM618 152h-12q-44 -76 -117 -122t-170 -46q-112 0 -182.5 80t-70.5 212q0 88 28 149.5t82.5 96t124 49.5t162.5 15q28 0 98 -4 q14 199 -18 271.5t-146 72.5q-57 0 -127.5 -21t-115.5 -53l-39 98q121 90 317 90q174 0 221 -137q39 73 110 109.5t150 36.5q47 0 87.5 -9t82.5 -34t71.5 -65.5t48.5 -109.5t20 -159q0 -74 -9 -168h-530q2 -208 64 -311t204 -103q53 0 109.5 21t85.5 49l49 -97 q-109 -88 -281 -88q-101 0 -181 46.5t-116 130.5zM915 934q-99 0 -158 -79.5t-69 -240.5h408v33q0 141 -48.5 214t-132.5 73zM602 1171l98 304h142v-39l-164 -265h-76z" />
<glyph unicode="&#x1fe;" horiz-adv-x="1122" d="M94 717q0 365 116.5 553t348.5 188q183 0 299 -119l68 121l86 -49l-90 -158q106 -185 106 -536q0 -365 -117.5 -553.5t-351.5 -188.5q-182 0 -293 111l-61 -111l-88 52l84 149q-107 179 -107 541zM289 330l493 876q-81 131 -223 131q-160 0 -244 -155t-84 -465 q0 -225 58 -387zM836 1098l-494 -879q80 -123 217 -123q163 0 247.5 155t84.5 466q0 219 -55 381zM489 1540l195 242h184v-39l-268 -203h-111z" />
<glyph unicode="&#x1ff;" horiz-adv-x="886" d="M88 512q0 264 92.5 400.5t265.5 136.5q125 0 205 -68l39 68l88 -54l-57 -96q82 -137 82 -387q0 -267 -92 -402t-265 -135q-131 0 -215 72l-45 -72l-86 58l62 104q-74 131 -74 375zM641 760l-344 -594q57 -76 149 -76q113 0 168.5 102.5t55.5 319.5q0 149 -29 248z M246 274l338 596q-52 64 -138 64q-113 0 -169 -103.5t-56 -318.5q0 -144 25 -238zM379 1171l98 304h141v-39l-163 -265h-76z" />
<glyph unicode="&#x218;" horiz-adv-x="870" d="M659 346q0 68 -30.5 126.5t-79.5 103t-107.5 87.5t-117.5 89.5t-108 97.5t-79.5 123t-30.5 157q0 158 97.5 243t265.5 85q193 0 303 -63l-41 -119q-41 26 -111.5 43.5t-156.5 17.5q-112 0 -167.5 -56t-55.5 -146q0 -61 30.5 -115.5t79.5 -98t107.5 -87.5t117.5 -92 t108 -102t79.5 -128t30.5 -160q0 -173 -106 -275t-294 -102q-204 0 -319 72l45 127q46 -31 118 -54.5t156 -23.5q121 0 193.5 63t72.5 187zM328 -207q0 38 23.5 63t56.5 25q45 0 74.5 -35.5t29.5 -111.5q0 -86 -42.5 -144.5t-88.5 -78.5l-49 47q81 64 78 157 q-37 -6 -59.5 15.5t-22.5 62.5z" />
<glyph unicode="&#x219;" horiz-adv-x="688" d="M489 248q0 55 -22 97.5t-57 71.5t-77 55t-84.5 54.5t-77.5 62t-57 86t-22 118.5q0 125 69 190.5t193 65.5q145 0 242 -56l-33 -110q-90 51 -192 51q-78 0 -115 -34t-37 -105q0 -44 22 -80t57 -62.5t77.5 -52.5t84.5 -57t77 -68.5t57 -95.5t22 -129q0 -116 -76 -195.5 t-216 -79.5q-157 0 -258 62l36 115q101 -62 213 -62q77 0 125.5 40t48.5 118zM246 -207q0 38 23.5 63t56.5 25q45 0 74.5 -35.5t29.5 -111.5q0 -86 -42.5 -144.5t-88.5 -78.5l-49 47q81 64 78 157q-37 -6 -59.5 15.5t-22.5 62.5z" />
<glyph unicode="&#x21a;" horiz-adv-x="911" d="M881 1434v-121h-359v-1313h-133v1313h-358v121h850zM362 -207q0 38 23.5 63t56.5 25q45 0 75 -35.5t30 -111.5q0 -86 -42.5 -144.5t-88.5 -78.5l-49 47q80 63 77 157q-37 -6 -59.5 15.5t-22.5 62.5z" />
<glyph unicode="&#x21b;" horiz-adv-x="555" d="M20 909v115h127v205l127 41v-246h226v-115h-226v-645q0 -90 23 -130t74 -40q55 0 139 31l29 -98q-89 -47 -211 -47q-97 0 -139 65.5t-42 212.5v651h-127zM221 -207q0 38 23.5 63t56.5 25q45 0 75 -35.5t30 -111.5q0 -86 -43 -144.5t-89 -78.5l-49 47q81 64 78 157 q-37 -6 -59.5 15.5t-22.5 62.5z" />
<glyph unicode="&#x237;" horiz-adv-x="436" d="M156 0v1024h127v-1081q0 -208 -64 -300t-203 -77v115q37 0 62.5 13.5t41 36.5t23.5 65.5t10.5 88t2.5 115.5z" />
<glyph unicode="&#x259;" horiz-adv-x="831" d="M156 864l-50 97q49 41 125 64.5t158 23.5q182 0 271.5 -139.5t89.5 -397.5q0 -266 -90.5 -401.5t-256.5 -135.5q-156 0 -238.5 114.5t-82.5 328.5q0 62 8 141h533q-6 196 -68 285.5t-203 89.5q-55 0 -109.5 -20.5t-86.5 -49.5zM406 90q100 0 159 92.5t56 261.5h-416v-41 q1 -147 57.5 -230t143.5 -83z" />
<glyph unicode="&#x2bc;" horiz-adv-x="315" d="M61 1356q0 42 26.5 68t64.5 26q46 0 74 -33.5t28 -95.5q0 -59 -14.5 -109.5t-38 -83t-45 -52.5t-43.5 -32l-45 52q39 26 63 71t21 99q-38 -8 -64.5 18t-26.5 72z" />
<glyph unicode="&#x2c6;" horiz-adv-x="677" d="M123 1126l203 373h47l182 -373h-115l-65 136l-35 122l-35 -122l-76 -136h-106z" />
<glyph unicode="&#x2c7;" horiz-adv-x="692" d="M569 1499l-200 -373h-58l-188 373h125l63 -135l37 -123l35 123l74 135h112z" />
<glyph unicode="&#x2d8;" horiz-adv-x="743" d="M123 1436l72 32q30 -78 78.5 -124t105.5 -46t101 45t71 125l70 -26q-9 -110 -78.5 -187t-165.5 -77q-92 0 -162.5 69t-91.5 189z" />
<glyph unicode="&#x2d9;" horiz-adv-x="428" d="M123 1341q0 46 25 74.5t65 28.5q38 0 65 -28.5t27 -74.5q0 -45 -26.5 -71.5t-65.5 -26.5q-40 0 -65 26.5t-25 71.5z" />
<glyph unicode="&#x2da;" horiz-adv-x="569" d="M123 1315q0 84 44 132t118 48q73 0 117 -44.5t44 -135.5q0 -80 -44.5 -129t-116.5 -49q-74 0 -118 46t-44 132zM213 1315q0 -46 20 -72t52 -26q71 0 71 98q0 50 -20 75t-51 25q-72 0 -72 -100z" />
<glyph unicode="&#x2db;" horiz-adv-x="548" d="M299 20h80q-125 -74 -125 -206q0 -111 92 -111q32 0 64 14l16 -73q-44 -41 -133 -41q-75 0 -122.5 48t-47.5 126q0 84 47.5 145.5t128.5 97.5z" />
<glyph unicode="&#x2dc;" horiz-adv-x="716" d="M172 1276l-49 61q94 117 172 117q37 0 94.5 -39t87.5 -39q32 0 70 41l47 -61q-81 -103 -156 -103q-35 0 -90 37.5t-78 38.5q-54 0 -98 -53z" />
<glyph unicode="&#x2dd;" horiz-adv-x="677" d="M123 1169l57 265h125v-33l-117 -232h-65zM297 1169l121 265h137v-33l-186 -232h-72z" />
<glyph unicode="&#x300;" horiz-adv-x="4" d="M-438 1475l108 -304h-71l-189 265v39h152z" />
<glyph unicode="&#x301;" horiz-adv-x="4" d="M-688 1171l98 304h141v-39l-163 -265h-76z" />
<glyph unicode="&#x394;" horiz-adv-x="929" d="M911 0h-888v61l415 1397h54l419 -1397v-61zM414 979l-250 -864h600l-264 868l-39 236h-4z" />
<glyph unicode="&#x3a9;" horiz-adv-x="1312" d="M125 0v115h190l156 -19v56l-88 20q-111 66 -184.5 225.5t-73.5 362.5q0 323 143 510.5t387 187.5q167 0 289 -91t183 -249.5t61 -365.5q0 -203 -76 -355t-178 -223l-92 -22v-56l155 19h191v-115h-469v205q42 10 85 34t88.5 70t80 107t56.5 152t22 198q0 106 -24 205.5 t-70 184t-124.5 136t-177.5 51.5q-188 0 -290.5 -152.5t-102.5 -430.5q0 -130 30.5 -235t80.5 -169.5t105.5 -101.5t113.5 -49v-205h-467z" />
<glyph unicode="&#x3bc;" horiz-adv-x="909" d="M115 1024h127v-625q0 -154 44 -231.5t140 -77.5q88 0 150.5 53.5t89.5 147.5v733h127v-690q0 -223 24 -334h-86l-45 127h-8q-34 -67 -104 -109.5t-162 -42.5q-127 0 -197 95h-8l35 -207v-273h-127v1434z" />
<glyph unicode="&#x3c0;" horiz-adv-x="1075" d="M838 909v-698q0 -102 53 -102q32 0 72 12l30 -90q-76 -37 -149 -37q-77 0 -105 54t-28 169v692h-316v-909h-127v909h-24q-58 0 -109 -88l-80 62q34 74 82 107.5t131 33.5h707v-115h-137z" />
<glyph unicode="&#x401;" horiz-adv-x="878" d="M141 0v1434h621v-121h-488v-512h449v-121h-449v-559h498v-121h-631zM201 1624q0 41 24.5 66.5t63.5 25.5q36 0 60 -25.5t24 -66.5q0 -39 -24 -64.5t-60 -25.5q-38 0 -63 25t-25 65zM514 1624q0 41 24 66.5t60 25.5q38 0 62 -25.5t24 -66.5q0 -40 -24 -65t-62 -25 q-36 0 -60 25.5t-24 64.5z" />
<glyph unicode="&#x402;" horiz-adv-x="1191" d="M522 719v-719h-133v1313h-358v121h846v-121h-355v-473q112 45 230 45q57 0 105 -11.5t94 -41.5t78 -76.5t51.5 -121.5t19.5 -173q0 -243 -95.5 -360t-285.5 -117q-93 0 -117 6v121q36 -7 121 -7q240 0 240 342q0 175 -66.5 246.5t-185.5 71.5q-77 0 -189 -45z" />
<glyph unicode="&#x403;" horiz-adv-x="722" d="M754 1434v-121h-480v-1313h-133v1434h613zM326 1540l194 242h185v-39l-269 -203h-110z" />
<glyph unicode="&#x404;" horiz-adv-x="958" d="M846 162l33 -107q-93 -80 -291 -80q-111 0 -199.5 43t-155.5 131t-103 232t-36 336q0 157 27 283.5t73 210.5t110 140.5t135 81.5t151 25q163 0 274 -49l-35 -119q-86 47 -229 47q-69 0 -129.5 -29t-112 -89.5t-85 -168t-40.5 -251.5h506v-121h-508q7 -285 114.5 -433.5 t279.5 -148.5q125 0 221 66z" />
<glyph unicode="&#x405;" horiz-adv-x="870" d="M659 346q0 68 -30.5 126.5t-79.5 103t-107.5 87.5t-117.5 89.5t-108 97.5t-79.5 123t-30.5 157q0 158 97.5 243t265.5 85q193 0 303 -63l-41 -119q-41 26 -111.5 43.5t-156.5 17.5q-112 0 -167.5 -56t-55.5 -146q0 -61 30.5 -115.5t79.5 -98t107.5 -87.5t117.5 -92 t108 -102t79.5 -128t30.5 -160q0 -173 -106 -275t-294 -102q-204 0 -319 72l45 127q46 -31 118 -54.5t156 -23.5q121 0 193.5 63t72.5 187z" />
<glyph unicode="&#x406;" horiz-adv-x="477" d="M172 0v1434h133v-1434h-133z" />
<glyph unicode="&#x407;" horiz-adv-x="477" d="M43 1624q0 41 24.5 66.5t63.5 25.5q36 0 60 -25.5t24 -66.5q0 -39 -24 -64.5t-60 -25.5q-38 0 -63 25t-25 65zM264 1624q0 41 24 66.5t60 25.5q39 0 63.5 -25.5t24.5 -66.5q0 -40 -25 -65t-63 -25q-36 0 -60 25.5t-24 64.5zM172 0v1434h133v-1434h-133z" />
<glyph unicode="&#x408;" horiz-adv-x="475" d="M180 330v1104h133v-1129q0 -166 -53.5 -244.5t-177.5 -78.5q-32 0 -75 8t-64 20l26 117q42 -25 101 -25q29 0 49 11t32 28.5t18.5 48.5t8.5 62.5t2 77.5z" />
<glyph unicode="&#x409;" horiz-adv-x="1517" d="M750 12v1301h-349q-16 -447 -42 -716t-76 -413q-34 -98 -81.5 -145t-113.5 -47q-56 0 -92 16l20 119q44 -13 79 9.5t65 99.5q103 275 119 1198h604v-566q66 17 166 17q68 0 125.5 -12t111.5 -42t91.5 -77t60 -121.5t22.5 -171.5q0 -240 -118.5 -358.5t-325.5 -118.5 q-161 0 -266 28zM883 748v-631q50 -13 149 -13q134 0 212.5 87.5t78.5 254.5q0 318 -295 318q-32 0 -81.5 -5t-63.5 -11z" />
<glyph unicode="&#x40a;" horiz-adv-x="1599" d="M829 14v693h-555v-707h-133v1434h133v-607h555v607h134v-611q19 5 75 11t92 6q68 0 124 -10t111 -37t92.5 -70.5t61 -116t23.5 -168.5q0 -121 -32.5 -210t-93 -141.5t-139.5 -77.5t-179 -25q-168 0 -269 30zM963 702v-585q40 -13 153 -13q132 0 210.5 80.5t78.5 241.5 q0 88 -22.5 148t-65.5 90.5t-91.5 42.5t-113.5 12q-31 0 -81.5 -5.5t-67.5 -11.5z" />
<glyph unicode="&#x40b;" horiz-adv-x="1228" d="M522 680v-680h-133v1313h-358v121h846v-121h-355v-502q130 90 281 90q76 0 131 -19t97.5 -63.5t63.5 -123.5t21 -193v-502h-133v487q0 158 -49 225.5t-156 67.5q-74 0 -143 -28t-113 -72z" />
<glyph unicode="&#x40c;" horiz-adv-x="999" d="M774 0l-424 674h-76v-674h-133v1434h133v-674l74 28l389 646h152l-385 -621l-68 -65l82 -82l422 -666h-166zM379 1540l194 242h185v-39l-269 -203h-110z" />
<glyph unicode="&#x40e;" horiz-adv-x="905" d="M164 1434l295 -758l41 -182h10l33 186l225 754h133l-287 -920q-103 -330 -156.5 -427t-158.5 -97q-92 0 -147 43l41 112q47 -34 110 -34q44 0 75.5 65t57.5 193l-424 1065h152zM205 1745l127 35q6 -80 46 -127t107 -47t105.5 46.5t46.5 125.5l113 -31 q-18 -114 -84.5 -178t-182.5 -64q-119 0 -192.5 60.5t-85.5 179.5z" />
<glyph unicode="&#x40f;" horiz-adv-x="1081" d="M473 0h-332v1434h133v-1313h535v1313h133v-1434h-332l-24 -369h-80z" />
<glyph unicode="&#x410;" horiz-adv-x="956" d="M807 0l-123 418h-422l-119 -418h-129l435 1458h57l438 -1458h-137zM432 1001l-131 -462h346l-133 467l-39 213h-2z" />
<glyph unicode="&#x411;" horiz-adv-x="901" d="M141 12v1422h619v-121h-486v-467q79 18 150 18t129 -11t112.5 -40t91.5 -74.5t59 -118.5t22 -169q0 -236 -114 -351.5t-302 -115.5q-181 0 -281 28zM434 104q121 0 193.5 80t72.5 236q0 81 -15 139.5t-39.5 93.5t-63.5 55.5t-78.5 27.5t-91.5 7q-31 0 -77 -6t-61 -12 v-608q38 -13 160 -13z" />
<glyph unicode="&#x412;" horiz-adv-x="956" d="M829 1108q0 -72 -21.5 -139.5t-73 -125.5t-124.5 -81v-8q111 -23 182.5 -105.5t71.5 -238.5q0 -108 -34.5 -191.5t-94 -133.5t-135.5 -75.5t-164 -25.5q-208 0 -295 26v1411q145 29 316 29q372 0 372 -342zM451 104q119 0 197.5 77t78.5 212q0 67 -18 118t-46 81 t-69.5 48.5t-82.5 25t-91 6.5h-146v-551q53 -17 177 -17zM274 786h88q72 0 136 11q83 33 138.5 107t55.5 173q0 133 -68 192.5t-180 59.5q-124 0 -170 -12v-531z" />
<glyph unicode="&#x413;" horiz-adv-x="722" d="M754 1434v-121h-480v-1313h-133v1434h613z" />
<glyph unicode="&#x414;" horiz-adv-x="1093" d="M1049 121v-387h-93l-24 266h-807l-25 -266h-92v387h117q18 30 42 113t54.5 234t50 407t17.5 559h608v-1313h152zM262 121h502v1192h-348q-19 -849 -154 -1192z" />
<glyph unicode="&#x415;" horiz-adv-x="878" d="M141 0v1434h621v-121h-488v-512h449v-121h-449v-559h498v-121h-631z" />
<glyph unicode="&#x416;" horiz-adv-x="1318" d="M588 784v650h127v-674l71 28l336 646h148l-336 -621l-66 -65l82 -82l371 -666h-164l-366 674h-76v-674h-127v698l-70 -28l-366 -670h-154l367 645l77 76l-73 72l-349 641h156l338 -650h74z" />
<glyph unicode="&#x417;" horiz-adv-x="888" d="M322 692h-93v115h33q93 0 148 10q92 23 152.5 93t60.5 169q0 135 -65.5 196.5t-176.5 61.5q-158 0 -244 -49l-37 105q38 25 123.5 45t182.5 20q57 0 107 -10t96 -35.5t79 -64.5t52.5 -100.5t19.5 -139.5q0 -108 -56.5 -199.5t-162.5 -132.5v-8q119 -22 186.5 -110.5 t67.5 -233.5q0 -114 -35 -202.5t-96 -141t-137.5 -79t-164.5 -26.5q-186 0 -288 50l35 122q93 -51 264 -51q123 0 203.5 83.5t80.5 232.5q0 132 -70 199t-192 77q-50 4 -73 4z" />
<glyph unicode="&#x418;" horiz-adv-x="1118" d="M844 0v977l12 186h-6l-72 -190l-557 -973h-80v1434h133v-998l-14 -180h6l72 186l559 992h80v-1434h-133z" />
<glyph unicode="&#x419;" horiz-adv-x="1118" d="M844 0v977l12 186h-6l-72 -190l-557 -973h-80v1434h133v-998l-14 -180h6l72 186l559 992h80v-1434h-133zM293 1745l127 35q6 -80 46 -127t107 -47t105.5 46.5t46.5 125.5l113 -31q-18 -114 -84.5 -178t-182.5 -64q-119 0 -192.5 60.5t-85.5 179.5z" />
<glyph unicode="&#x41a;" horiz-adv-x="999" d="M774 0l-424 674h-76v-674h-133v1434h133v-674l74 28l389 646h152l-385 -621l-68 -65l82 -82l422 -666h-166z" />
<glyph unicode="&#x41b;" horiz-adv-x="1021" d="M748 0v1313h-347q-16 -447 -42 -716t-76 -413q-34 -98 -81.5 -145t-113.5 -47q-56 0 -92 16l20 119q44 -13 79 9.5t65 99.5q103 275 119 1198h602v-1434h-133z" />
<glyph unicode="&#x41c;" horiz-adv-x="1296" d="M1022 0v987l18 205h-8l-63 -195l-299 -647h-43l-318 647l-59 195h-8l26 -205v-987h-127v1434h105l354 -723l53 -166h2l50 168l339 721h111v-1434h-133z" />
<glyph unicode="&#x41d;" horiz-adv-x="1103" d="M829 0v676h-555v-676h-133v1434h133v-637h555v637h134v-1434h-134z" />
<glyph unicode="&#x41e;" horiz-adv-x="1122" d="M94 717q0 365 116.5 553t348.5 188q469 0 469 -741q0 -365 -117.5 -553.5t-351.5 -188.5q-465 0 -465 742zM231 717q0 -126 19 -235t57 -197t103 -138.5t149 -50.5q163 0 247.5 155t84.5 466q0 127 -18.5 235t-57 196t-104 138.5t-152.5 50.5q-160 0 -244 -155t-84 -465z " />
<glyph unicode="&#x41f;" horiz-adv-x="1081" d="M809 0v1313h-535v-1313h-133v1434h801v-1434h-133z" />
<glyph unicode="&#x420;" horiz-adv-x="915" d="M141 0v1419q104 31 275 31q67 0 126 -11.5t117.5 -42t100 -78t67 -125t25.5 -177.5q0 -124 -36.5 -216.5t-100.5 -146t-141.5 -79t-167.5 -25.5q-101 0 -132 8v-557h-133zM418 1329q-105 0 -144 -10v-639q25 -10 127 -10q314 0 314 346q0 85 -24 148t-66.5 98t-93.5 51 t-113 16z" />
<glyph unicode="&#x421;" horiz-adv-x="937" d="M840 162l34 -107q-93 -80 -286 -80q-111 0 -199.5 43t-155.5 131t-103 232t-36 336q0 157 27 283.5t73 210.5t110 140.5t135 81.5t151 25q161 0 268 -49l-35 -119q-83 47 -223 47q-74 0 -137.5 -32.5t-117 -102t-84 -193.5t-30.5 -292q0 -305 106.5 -463t283.5 -158 q127 0 219 66z" />
<glyph unicode="&#x422;" horiz-adv-x="911" d="M881 1434v-121h-359v-1313h-133v1313h-358v121h850z" />
<glyph unicode="&#x423;" horiz-adv-x="905" d="M164 1434l295 -758l41 -182h10l33 186l225 754h133l-287 -920q-103 -330 -156.5 -427t-158.5 -97q-92 0 -147 43l41 112q47 -34 110 -34q44 0 75.5 65t57.5 193l-424 1065h152z" />
<glyph unicode="&#x424;" horiz-adv-x="1273" d="M573 -41v201q-46 -10 -139 -10q-169 0 -267.5 136.5t-98.5 430.5q0 283 106.5 436.5t292.5 153.5q69 0 106 -9v177h127v-183q49 15 142 15q167 0 265.5 -142.5t98.5 -427.5q0 -146 -30.5 -260t-84.5 -184.5t-124 -106.5t-154 -36q-83 0 -113 12v-203h-127zM821 1192 q-85 0 -121 -14v-908q23 -6 101 -6q123 0 197.5 121.5t74.5 351.5q0 206 -66.5 330.5t-185.5 124.5zM459 264q81 0 114 12v908q-36 8 -104 8q-121 0 -194.5 -122t-73.5 -353q0 -210 68.5 -331.5t189.5 -121.5z" />
<glyph unicode="&#x425;" horiz-adv-x="1011" d="M45 0l383 729l-350 705h155l238 -502l41 -113l41 113l248 502h145l-360 -691l377 -743h-152l-260 530l-47 119l-43 -119l-268 -530h-148z" />
<glyph unicode="&#x426;" horiz-adv-x="1126" d="M1079 121v-387h-90l-26 266h-822v1434h133v-1313h521v1313h133v-1313h151z" />
<glyph unicode="&#x427;" horiz-adv-x="991" d="M123 1434h133v-506q0 -148 51 -211.5t154 -63.5q74 0 144 29.5t112 75.5v676h133v-1434h-133v623q-49 -37 -122 -64t-153 -27q-56 0 -100.5 9.5t-86.5 34.5t-70 65.5t-45 107t-17 154.5v531z" />
<glyph unicode="&#x428;" horiz-adv-x="1437" d="M1296 0h-1155v1434h133v-1313h379v1313h133v-1313h377v1313h133v-1434z" />
<glyph unicode="&#x429;" horiz-adv-x="1495" d="M1333 0h-1192v1434h133v-1313h377v1313h133v-1313h379v1313h133v-1313h152v-387h-90z" />
<glyph unicode="&#x42a;" horiz-adv-x="1032" d="M262 12v1301h-262v121h395v-566q66 17 166 17q68 0 125.5 -11.5t112 -41.5t92.5 -76.5t61 -121.5t23 -173q0 -243 -121 -360t-328 -117q-159 0 -264 28zM545 104q134 0 213.5 86.5t79.5 255.5q0 73 -16 129.5t-42.5 91.5t-65 57.5t-80.5 31t-93 8.5q-29 0 -79 -6.5 t-67 -12.5v-628q50 -13 150 -13z" />
<glyph unicode="&#x42b;" horiz-adv-x="1257" d="M983 0v1434h133v-1434h-133zM141 12v1422h133v-566q65 17 144 17q399 0 399 -424q0 -243 -111.5 -360t-316.5 -117q-148 0 -248 28zM401 104q131 0 205 87t74 255q0 92 -21.5 155.5t-62 98.5t-89 49.5t-112.5 14.5q-28 0 -66.5 -6.5t-54.5 -12.5v-626q43 -15 127 -15z " />
<glyph unicode="&#x42c;" horiz-adv-x="909" d="M141 12v1422h133v-566q66 17 166 17q68 0 126 -12t112 -42t91.5 -77t60 -121.5t22.5 -171.5q0 -240 -118.5 -358.5t-325.5 -118.5q-162 0 -267 28zM424 104q134 0 212.5 87.5t78.5 254.5q0 318 -295 318q-30 0 -80.5 -6.5t-65.5 -12.5v-628q50 -13 150 -13z" />
<glyph unicode="&#x42d;" horiz-adv-x="946" d="M248 672v121h471q-10 271 -110.5 407.5t-264.5 136.5q-133 0 -233 -65l-41 108q118 78 290 78q112 0 200 -40.5t154.5 -126.5t102 -230t35.5 -340q0 -158 -26 -283.5t-71.5 -211.5t-111.5 -143t-143.5 -82.5t-169.5 -25.5q-151 0 -256 50l37 122q39 -22 101.5 -36.5 t125.5 -14.5q74 0 138.5 31.5t119 97t88 180.5t37.5 267h-473z" />
<glyph unicode="&#x42e;" horiz-adv-x="1462" d="M274 1434v-637h205q8 324 119 492.5t328 168.5q99 0 174.5 -34t126 -96t83 -155t46.5 -204.5t14 -251.5q0 -368 -108 -555t-336 -187q-118 0 -204.5 49t-139 143t-78 219.5t-27.5 289.5h-203v-676h-133v1434h133zM612 717q0 -130 16 -236.5t51 -195.5t98 -139t149 -50 q160 0 233.5 151.5t73.5 469.5q0 620 -307 620q-159 0 -236.5 -153t-77.5 -467z" />
<glyph unicode="&#x42f;" horiz-adv-x="931" d="M793 1419v-1419h-134v641l-172 -45l-288 -596h-154l256 524l98 88q-126 32 -199 135.5t-73 274.5q0 428 422 428q145 0 244 -31zM543 1329q-58 0 -105.5 -14.5t-88 -47.5t-63 -94.5t-22.5 -148.5q0 -156 77 -232.5t204 -76.5h114v602q-37 12 -116 12z" />
<glyph unicode="&#x430;" horiz-adv-x="813" d="M162 864l-45 99q56 36 140.5 56.5t174.5 20.5q66 0 114 -18t75 -45.5t43 -70t21 -82.5t5 -91q0 -89 -4 -248.5t-4 -226.5q0 -180 20 -262h-92l-35 119h-8q-78 -129 -252 -129q-109 0 -179 77.5t-70 208.5q0 85 29 146t85 96t127.5 50.5t165.5 15.5q57 0 88 -2q4 45 4 120 q0 126 -36.5 177t-131.5 51q-56 0 -124 -18t-111 -44zM346 100q85 0 138 41t77 101v227q-47 6 -92 6q-270 0 -270 -192q0 -84 40 -133.5t107 -49.5z" />
<glyph unicode="&#x431;" horiz-adv-x="878" d="M201 852q53 95 118 133.5t164 38.5q153 0 234.5 -122.5t81.5 -366.5q0 -279 -94 -419.5t-265 -140.5q-183 0 -270.5 151.5t-87.5 494.5q0 116 7 211.5t18 168.5t30.5 131t40 98.5t51.5 71t59 49t69.5 31.5t75.5 19t83 12q91 10 137 24.5t74 47.5l12 -125q-31 -33 -80 -47 t-155 -23q-75 -6 -125 -27t-90.5 -68.5t-62.5 -131.5t-31 -211h6zM215 512q0 -119 22.5 -211.5t74 -151.5t126.5 -59q228 0 228 434q0 180 -50.5 282.5t-154.5 102.5q-246 0 -246 -397z" />
<glyph unicode="&#x432;" horiz-adv-x="817" d="M127 2v1020q16 1 56 4.5t65 5.5t68 4t87 2q157 0 229.5 -62t72.5 -188q0 -50 -13.5 -95t-48.5 -86t-88 -62v-8q98 -23 140 -83t42 -165q0 -157 -91.5 -230t-274.5 -73q-92 0 -244 16zM254 477v-368q65 -9 137 -9q109 0 161 48t52 149q0 180 -203 180h-147zM254 584h164 q60 0 110 53t50 121q0 87 -41.5 126.5t-137.5 39.5q-28 0 -145 -6v-334z" />
<glyph unicode="&#x433;" horiz-adv-x="600" d="M602 1024v-115h-348v-909h-127v1024h475z" />
<glyph unicode="&#x434;" horiz-adv-x="882" d="M848 115v-381h-86l-25 266h-620l-25 -266h-84v381h96q16 28 35 86.5t41.5 163t38 277.5t17.5 382h491v-909h121zM233 115h367v794h-248q-7 -218 -36.5 -441.5t-82.5 -352.5z" />
<glyph unicode="&#x435;" horiz-adv-x="837" d="M676 164l47 -96q-49 -44 -122 -68.5t-152 -24.5q-186 0 -276.5 142t-90.5 395q0 258 93 397.5t265 139.5q48 0 88 -8t82 -32.5t71.5 -64.5t48.5 -108.5t20 -159.5q0 -97 -9 -168h-526q0 -98 14 -172.5t45 -130.5t83.5 -85.5t125.5 -29.5q52 0 106.5 21.5t86.5 52.5z M442 934q-207 0 -227 -311h412v28q0 140 -50 211.5t-135 71.5z" />
<glyph unicode="&#x436;" horiz-adv-x="1081" d="M471 489l-80 -28l-248 -461h-141l260 469l57 61l-83 78l-216 416h132l231 -449h88v449h127v-469l78 29l233 440h131l-225 -416l-63 -65l82 -82l245 -461h-147l-246 469h-88v-469h-127v489z" />
<glyph unicode="&#x437;" horiz-adv-x="718" d="M297 467h-96v115h116q60 0 111 53t51 121q0 164 -180 164q-113 0 -197 -58l-41 101q114 71 269 71q134 0 205 -62.5t71 -185.5q0 -80 -41 -144.5t-108 -92.5v-8q95 -23 137.5 -86t42.5 -168q0 -135 -89.5 -218t-258.5 -83q-141 0 -232 51l37 110q75 -47 201 -47 q105 0 160 50.5t55 144.5q0 81 -52 126.5t-161 45.5z" />
<glyph unicode="&#x438;" horiz-adv-x="892" d="M639 0v621l10 155h-6l-72 -172l-362 -604h-82v1024h127v-639l-12 -149h10l67 167l367 621h80v-1024h-127z" />
<glyph unicode="&#x439;" horiz-adv-x="892" d="M639 0v621l10 155h-6l-72 -172l-362 -604h-82v1024h127v-639l-12 -149h10l67 167l367 621h80v-1024h-127zM201 1399l106 37q11 -91 53.5 -135t100.5 -44q56 0 97.5 46t53.5 131l97 -29q-13 -117 -83.5 -182.5t-168.5 -65.5t-170.5 60t-85.5 182z" />
<glyph unicode="&#x43a;" horiz-adv-x="782" d="M610 0l-276 469h-80v-469h-127v1024h127v-469l74 29l266 440h137l-258 -416l-67 -65l86 -82l274 -461h-156z" />
<glyph unicode="&#x43b;" horiz-adv-x="821" d="M567 0v909h-239q-3 -84 -5 -139t-6.5 -133.5t-9.5 -130.5t-12 -119t-17 -111t-23 -93.5t-29.5 -80.5t-37 -58t-46.5 -39.5t-56 -12.5q-58 0 -94 16l20 111q34 -7 62.5 -1.5t51.5 55.5t40.5 147t28.5 272t16 432h483v-1024h-127z" />
<glyph unicode="&#x43c;" horiz-adv-x="1052" d="M799 0v639l12 190h-8l-60 -170l-200 -411h-43l-209 411l-53 170h-11l17 -188v-641h-117v1024h123l233 -459l47 -133h2l50 137l217 455h127v-1024h-127z" />
<glyph unicode="&#x43d;" horiz-adv-x="884" d="M631 0v469h-377v-469h-127v1024h127v-440h377v440h127v-1024h-127z" />
<glyph unicode="&#x43e;" horiz-adv-x="878" d="M82 512q0 537 356 537q183 0 271 -132.5t88 -404.5q0 -537 -359 -537q-182 0 -269 132.5t-87 404.5zM215 512q0 -422 223 -422q114 0 170 102.5t56 319.5q0 196 -54 309t-172 113q-112 0 -167.5 -103t-55.5 -319z" />
<glyph unicode="&#x43f;" horiz-adv-x="876" d="M623 0v909h-369v-909h-127v1024h623v-1024h-127z" />
<glyph unicode="&#x440;" horiz-adv-x="886" d="M127 -410v1434h88l23 -109h8q37 65 98 99.5t137 34.5q165 0 244.5 -123.5t79.5 -393.5q0 -257 -102.5 -407t-274.5 -150q-58 0 -94.5 8t-79.5 29v-422h-127zM457 934q-159 0 -203 -197v-590q67 -57 170 -57q115 0 181.5 118t66.5 324q0 402 -215 402z" />
<glyph unicode="&#x441;" horiz-adv-x="731" d="M643 152l41 -101q-98 -76 -252 -76q-350 0 -350 537q0 258 92 397.5t262 139.5q147 0 234 -52l-39 -110q-80 47 -182 47q-119 0 -176.5 -103t-57.5 -319q0 -91 13 -164t41 -132.5t78 -92.5t118 -33q105 0 178 62z" />
<glyph unicode="&#x442;" horiz-adv-x="647" d="M645 1024v-115h-258v-909h-127v909h-258v115h643z" />
<glyph unicode="&#x443;" horiz-adv-x="759" d="M162 1024l205 -682l47 -205h8l35 207l164 680h127l-242 -920q-19 -73 -32 -120.5t-32 -108t-35 -99t-38 -79.5t-44 -64t-49.5 -38t-58.5 -15q-55 0 -90 17l20 122q15 -6 33 -6q117 0 168 287l-328 1024h142z" />
<glyph unicode="&#x444;" horiz-adv-x="1110" d="M496 -342v401q-39 -16 -113 -16q-311 0 -311 537q0 528 344 528q47 0 80 -8v401h118v-403q49 10 99 10q167 0 246 -116t79 -392q0 -275 -85 -416t-246 -141q-61 0 -93 14v-399h-118zM688 997q-43 0 -74 -10v-827q23 -6 82 -6q106 0 160.5 113t54.5 333q0 200 -51.5 298.5 t-171.5 98.5zM414 154q43 0 82 10v825q-36 8 -78 8q-219 0 -219 -417q0 -198 54 -312t161 -114z" />
<glyph unicode="&#x445;" horiz-adv-x="831" d="M45 0l297 524l-276 500h151l162 -305l43 -111l43 111l166 305h139l-278 -492l294 -532h-143l-184 334l-45 117l-47 -117l-183 -334h-139z" />
<glyph unicode="&#x446;" horiz-adv-x="897" d="M860 115v-381h-84l-26 266h-623v1024h127v-909h360v909h127v-909h119z" />
<glyph unicode="&#x447;" horiz-adv-x="800" d="M78 1024h127v-305q0 -113 29 -170t114 -57q134 0 197 63v469h127v-1024h-127v436q-90 -59 -217 -59q-125 0 -187.5 69t-62.5 238v340z" />
<glyph unicode="&#x448;" horiz-adv-x="1204" d="M1077 0h-950v1024h127v-909h285v909h127v-909h284v909h127v-1024z" />
<glyph unicode="&#x449;" horiz-adv-x="1230" d="M1194 115v-381h-84l-25 266h-958v1024h127v-909h285v909h127v-909h284v909h127v-909h117z" />
<glyph unicode="&#x44a;" horiz-adv-x="811" d="M309 512v-397q67 -13 117 -13q203 0 203 215q0 100 -49.5 154.5t-149.5 54.5q-76 0 -121 -14zM309 1024v-397q71 14 144 14q160 0 234.5 -82.5t74.5 -218.5q0 -184 -89 -268t-278 -84q-99 0 -213 12v909h-180v115h307z" />
<glyph unicode="&#x44b;" horiz-adv-x="1077" d="M254 512v-397q70 -13 119 -13q99 0 142.5 54t43.5 161q0 101 -42.5 155t-139.5 54q-77 0 -123 -14zM254 1024v-397q74 14 145 14q293 0 293 -301q0 -186 -82.5 -269t-267.5 -83q-101 0 -215 12v1024h127zM823 0v1024h127v-1024h-127z" />
<glyph unicode="&#x44c;" horiz-adv-x="757" d="M254 512v-397q70 -13 119 -13q202 0 202 215q0 99 -49.5 154t-148.5 55q-77 0 -123 -14zM254 1024v-397q74 14 145 14q160 0 235 -82.5t75 -218.5q0 -184 -89.5 -268t-277.5 -84q-101 0 -215 12v1024h127z" />
<glyph unicode="&#x44d;" horiz-adv-x="757" d="M197 459v114h348q-6 170 -68.5 265.5t-171.5 95.5t-194 -64l-50 103q102 76 265 76q180 0 266 -133t86 -404q0 -262 -97 -399.5t-276 -137.5q-148 0 -242 48l37 114q37 -21 92 -34t103 -13q238 0 250 369h-348z" />
<glyph unicode="&#x44e;" horiz-adv-x="1177" d="M762 -20q-172 0 -252 123t-88 366h-168v-469h-127v1024h127v-440h170q11 232 94.5 346t245.5 114q175 0 253.5 -134t78.5 -398q0 -271 -82.5 -401.5t-251.5 -130.5zM547 512q0 -418 217 -418q105 0 152 99t47 319q0 94 -9 165.5t-31 131t-62 90.5t-97 31 q-114 0 -165.5 -103.5t-51.5 -314.5z" />
<glyph unicode="&#x44f;" horiz-adv-x="778" d="M535 0v432l-132 -24l-219 -408h-151l198 356l66 76q-92 18 -149.5 87.5t-57.5 182.5q0 176 93 260.5t259 84.5h7q90 0 213 -29v-1018h-127zM453 512l82 4v399q-41 17 -97 17q-106 0 -160.5 -54.5t-54.5 -160.5q0 -97 64 -153.5t166 -51.5z" />
<glyph unicode="&#x451;" horiz-adv-x="837" d="M676 164l47 -96q-49 -44 -122 -68.5t-152 -24.5q-186 0 -276.5 142t-90.5 395q0 258 93 397.5t265 139.5q48 0 88 -8t82 -32.5t71.5 -64.5t48.5 -108.5t20 -159.5q0 -97 -9 -168h-526q0 -98 14 -172.5t45 -130.5t83.5 -85.5t125.5 -29.5q52 0 106.5 21.5t86.5 52.5z M442 934q-207 0 -227 -311h412v28q0 140 -50 211.5t-135 71.5zM195 1298q0 41 22 66t57 25q34 0 56 -25t22 -66q0 -39 -22 -63.5t-56 -24.5q-35 0 -57 24t-22 64zM508 1298q0 41 22 66t56 25q35 0 57.5 -25t22.5 -66q0 -40 -22.5 -64t-57.5 -24q-34 0 -56 24.5t-22 63.5z " />
<glyph unicode="&#x452;" horiz-adv-x="901" d="M0 913v111h133v410h127v-410h260v-111h-260v-295h6q94 119 252 119q144 0 207 -82.5t63 -292.5v-419q0 -207 -64 -295.5t-202 -73.5v115q88 0 114 68.5t26 242.5v307q0 175 -37 245.5t-144 70.5q-75 0 -137 -51t-84 -130v-442h-127v913h-133z" />
<glyph unicode="&#x453;" horiz-adv-x="600" d="M602 1024v-115h-348v-909h-127v1024h475zM293 1171l98 304h141v-39l-163 -265h-76z" />
<glyph unicode="&#x454;" horiz-adv-x="772" d="M676 152l41 -103q-44 -34 -114 -53t-142 -19q-190 0 -284.5 142t-94.5 393q0 255 105 395t286 140q143 0 229 -48l-36 -112q-77 45 -189 45q-119 0 -189.5 -89.5t-80.5 -260.5h391v-121h-393q5 -76 23.5 -141t52 -117t87 -81.5t121.5 -29.5q55 0 105.5 17t81.5 43z" />
<glyph unicode="&#x455;" horiz-adv-x="688" d="M489 248q0 55 -22 97.5t-57 71.5t-77 55t-84.5 54.5t-77.5 62t-57 86t-22 118.5q0 125 69 190.5t193 65.5q145 0 242 -56l-33 -110q-90 51 -192 51q-78 0 -115 -34t-37 -105q0 -44 22 -80t57 -62.5t77.5 -52.5t84.5 -57t77 -68.5t57 -95.5t22 -129q0 -116 -76 -195.5 t-216 -79.5q-157 0 -258 62l36 115q101 -62 213 -62q77 0 125.5 40t48.5 118z" />
<glyph unicode="&#x456;" horiz-adv-x="442" d="M158 0v1024h127v-1024h-127zM129 1341q0 46 25 74.5t65 28.5q38 0 65 -28.5t27 -74.5q0 -45 -26.5 -71.5t-65.5 -26.5q-40 0 -65 26.5t-25 71.5z" />
<glyph unicode="&#x457;" horiz-adv-x="442" d="M158 0v1024h127v-1024h-127zM244 1341q0 41 21.5 66t56.5 25t56 -25t21 -66q0 -40 -21 -64t-56 -24t-56.5 24t-21.5 64zM43 1341q0 41 21.5 66t56.5 25t56.5 -25t21.5 -66q0 -40 -21.5 -64t-56.5 -24t-56.5 24t-21.5 64z" />
<glyph unicode="&#x458;" horiz-adv-x="436" d="M156 0v1024h127v-1081q0 -208 -64 -300t-203 -77v115q37 0 62.5 13.5t41 36.5t23.5 65.5t10.5 88t2.5 115.5zM127 1341q0 46 25 74.5t65 28.5q38 0 65 -28.5t27 -74.5q0 -45 -26.5 -71.5t-65.5 -26.5q-40 0 -65 26.5t-25 71.5z" />
<glyph unicode="&#x459;" horiz-adv-x="1198" d="M694 1024v-397q74 14 146 14q160 0 234.5 -82.5t74.5 -218.5q0 -184 -89.5 -268t-277.5 -84q-101 0 -215 12v909h-239q-3 -84 -5 -139t-6.5 -133.5t-9.5 -130.5t-12 -119t-17 -111t-23 -93.5t-29.5 -80.5t-37 -58t-46.5 -39.5t-56 -12.5q-58 0 -94 16l20 111 q34 -7 62.5 -1.5t51.5 55.5t40.5 147t28.5 272t16 432h483zM694 512v-397q70 -13 119 -13q203 0 203 215q0 99 -50 154t-149 55q-77 0 -123 -14z" />
<glyph unicode="&#x45a;" horiz-adv-x="1259" d="M758 504v-391q59 -11 116 -11q203 0 203 211q0 103 -48 153t-150 50q-80 0 -121 -12zM758 1024v-406q69 13 143 13q161 0 235 -78t74 -213q0 -185 -88.5 -268.5t-277.5 -83.5q-99 0 -213 12v475h-377v-475h-127v1024h127v-434h377v434h127z" />
<glyph unicode="&#x45b;" horiz-adv-x="901" d="M0 913v111h133v410h127v-410h260v-111h-260v-295h6q92 119 252 119q144 0 207 -86.5t63 -306.5v-344h-126v319q0 161 -38 232.5t-143 71.5q-75 0 -137 -51.5t-84 -133.5v-438h-127v913h-133z" />
<glyph unicode="&#x45c;" horiz-adv-x="782" d="M610 0l-276 469h-80v-469h-127v1024h127v-469l74 29l266 440h137l-258 -416l-67 -65l86 -82l274 -461h-156zM324 1171l98 304h141v-39l-164 -265h-75z" />
<glyph unicode="&#x45e;" horiz-adv-x="759" d="M162 1024l205 -682l47 -205h8l35 207l164 680h127l-242 -920q-19 -73 -32 -120.5t-32 -108t-35 -99t-38 -79.5t-44 -64t-49.5 -38t-58.5 -15q-55 0 -90 17l20 122q15 -6 33 -6q117 0 168 287l-328 1024h142zM143 1399l107 37q11 -91 53 -135t100 -44q56 0 98 46t54 131 l96 -29q-13 -117 -83.5 -182.5t-168.5 -65.5t-170.5 60t-85.5 182z" />
<glyph unicode="&#x45f;" horiz-adv-x="876" d="M369 0h-242v1024h127v-903h367v903h127v-1024h-242l-25 -369h-80z" />
<glyph unicode="&#x462;" horiz-adv-x="1013" d="M0 1139v114h244v222h133v-222h340v-114h-340v-271q19 5 74 11t92 6q68 0 126 -12t112 -42t92 -77t60.5 -121.5t22.5 -171.5q0 -239 -119 -358t-327 -119q-164 0 -266 28v1127h-244zM377 745v-628q40 -13 151 -13q133 0 212 85.5t79 256.5q0 318 -295 318 q-29 0 -79.5 -6.5t-67.5 -12.5z" />
<glyph unicode="&#x463;" horiz-adv-x="811" d="M2 909v115h180v410h127v-410h262v-115h-262v-282q71 14 144 14q160 0 234.5 -82.5t74.5 -218.5q0 -184 -89 -268t-278 -84q-99 0 -213 12v909h-180zM309 512v-399q75 -11 117 -11q101 0 152 58t51 157q0 92 -50.5 150.5t-148.5 58.5q-76 0 -121 -14z" />
<glyph unicode="&#x472;" horiz-adv-x="1122" d="M94 717q0 365 116.5 553t348.5 188q469 0 469 -741q0 -365 -117.5 -553.5t-351.5 -188.5q-465 0 -465 742zM559 96q157 0 241.5 143.5t90.5 430.5h-660q4 -119 24.5 -220t59 -181.5t101 -126.5t143.5 -46zM559 1337q-307 0 -328 -546h660q-5 115 -27 210.5t-61 172.5 t-101.5 120t-142.5 43z" />
<glyph unicode="&#x473;" horiz-adv-x="878" d="M82 512q0 265 92 401t264 136q182 0 271.5 -138t89.5 -399q0 -268 -93.5 -402.5t-267.5 -134.5q-180 0 -268 138t-88 399zM215 567h451q-22 367 -228 367q-210 0 -223 -367zM666 453h-451q6 -176 67.5 -269.5t155.5 -93.5q96 0 158.5 85t69.5 278z" />
<glyph unicode="&#x474;" horiz-adv-x="978" d="M782 1069l-284 -1094h-58l-442 1459h143l293 -1012l39 -213h2l29 217l125 530q38 162 67.5 256t65 148.5t72.5 71t96 16.5q93 0 147 -41l-41 -111q-47 31 -106 31q-47 0 -80 -62.5t-68 -195.5z" />
<glyph unicode="&#x475;" horiz-adv-x="829" d="M676 741l-252 -766h-51l-357 1049h146l200 -606l46 -211h2l41 215l55 184q66 222 98 291q54 117 130 136q19 5 38 5q58 0 94 -16l-18 -119q-34 15 -51 15q-32 0 -60.5 -39t-60.5 -138z" />
<glyph unicode="&#x48a;" horiz-adv-x="1132" d="M844 0v977l12 186h-6l-72 -190l-557 -973h-80v1434h133v-998l-14 -180h6l72 186l559 992h80v-1319h164v-41l-150 -340h-84l74 266h-137zM293 1745l127 35q6 -80 46 -127t107 -47t105.5 46.5t46.5 125.5l113 -31q-18 -114 -84.5 -178t-182.5 -64q-119 0 -192.5 60.5 t-85.5 179.5z" />
<glyph unicode="&#x48b;" d="M639 0v621l10 155h-6l-72 -172l-362 -604h-82v1024h127v-639l-12 -149h10l67 167l367 621h80v-909h160v-41l-150 -340h-84l74 266h-127zM203 1399l106 37q11 -91 53.5 -135t100.5 -44q56 0 97.5 46t53.5 131l97 -29q-13 -117 -83.5 -182.5t-168.5 -65.5t-170.5 60 t-85.5 182z" />
<glyph unicode="&#x48c;" horiz-adv-x="1013" d="M0 1139v114h244v222h133v-222h340v-114h-340v-271q19 5 74 11t92 6q68 0 126 -12t112 -42t92 -77t60.5 -121.5t22.5 -171.5q0 -239 -119 -358t-327 -119q-164 0 -266 28v1127h-244zM377 745v-628q40 -13 151 -13q133 0 212 85.5t79 256.5q0 318 -295 318 q-29 0 -79.5 -6.5t-67.5 -12.5z" />
<glyph unicode="&#x48d;" horiz-adv-x="811" d="M2 909v115h180v410h127v-410h262v-115h-262v-282q71 14 144 14q160 0 234.5 -82.5t74.5 -218.5q0 -184 -89 -268t-278 -84q-99 0 -213 12v909h-180zM309 512v-399q75 -11 117 -11q101 0 152 58t51 157q0 92 -50.5 150.5t-148.5 58.5q-76 0 -121 -14z" />
<glyph unicode="&#x48e;" horiz-adv-x="915" d="M141 0v1419q104 31 275 31q67 0 126 -11.5t117.5 -42t100 -78t67 -125t25.5 -177.5q0 -282 -184 -400l123 -196l-82 -53l-131 208q-77 -26 -172 -26q-101 0 -132 8v-557h-133zM393 891l76 47l129 -217q117 82 117 295q0 85 -24 148t-66.5 98t-93.5 51t-113 16 q-105 0 -144 -10v-639q25 -10 127 -10q76 0 119 14z" />
<glyph unicode="&#x48f;" horiz-adv-x="886" d="M127 -410v1434h88l23 -109h8q37 65 98 99.5t137 34.5q165 0 244.5 -123.5t79.5 -393.5q0 -314 -150 -464l97 -136l-78 -57l-96 135q-68 -35 -150 -35q-58 0 -94.5 8t-79.5 29v-422h-127zM406 262l71 51l101 -147q94 117 94 366q0 402 -215 402q-159 0 -203 -197v-590 q67 -57 170 -57q48 0 88 21z" />
<glyph unicode="&#x490;" horiz-adv-x="722" d="M754 1313h-480v-1313h-133v1434h496l27 266h90v-387z" />
<glyph unicode="&#x491;" horiz-adv-x="600" d="M602 909h-348v-909h-127v1024h358l27 266h90v-381z" />
<glyph unicode="&#x492;" horiz-adv-x="784" d="M791 1434v-121h-480v-531h346v-114h-346v-668h-133v668h-162v114h162v652h613z" />
<glyph unicode="&#x493;" horiz-adv-x="612" d="M614 1024v-115h-348v-336h287v-110h-287v-463h-127v463h-139v110h139v451h475z" />
<glyph unicode="&#x494;" horiz-adv-x="946" d="M274 596v-596h-133v1434h613v-121h-480v-594q108 43 228 43q350 0 350 -481q0 -278 -96 -410.5t-285 -132.5q-93 0 -117 6v121q33 -6 125 -6q236 0 236 405q0 106 -18 180.5t-52.5 117t-78 61t-101.5 18.5q-98 0 -191 -45z" />
<glyph unicode="&#x495;" horiz-adv-x="874" d="M254 401v-401h-127v1024h475v-115h-348v-395q2 1 25.5 10t43 15t57.5 12t79 6q325 0 325 -463q0 -268 -86 -394t-268 -126q-93 0 -117 6v115q29 -6 121 -6q223 0 223 383q0 201 -61 285.5t-172 84.5q-22 0 -44 -3t-42.5 -9t-33 -10t-30.5 -11t-20 -8z" />
<glyph unicode="&#x496;" horiz-adv-x="1366" d="M588 784v650h127v-674l71 28l336 646h148l-336 -621l-66 -65l82 -82l303 -545h101v-387h-90l-25 266h-82l-366 674h-76v-674h-127v698l-70 -28l-366 -670h-154l367 645l77 76l-73 72l-349 641h156l338 -650h74z" />
<glyph unicode="&#x497;" horiz-adv-x="1142" d="M471 489l-80 -28l-248 -461h-141l260 469l57 61l-83 78l-216 416h132l231 -449h88v449h127v-469l78 29l233 440h131l-225 -416l-63 -65l82 -82l184 -346h119v-381h-84l-25 266h-96l-246 469h-88v-469h-127v489z" />
<glyph unicode="&#x498;" horiz-adv-x="888" d="M322 692h-93v115h33q93 0 148 10q92 23 152.5 93t60.5 169q0 135 -65.5 196.5t-176.5 61.5q-158 0 -244 -49l-37 105q38 25 123.5 45t182.5 20q57 0 107 -10t96 -35.5t79 -64.5t52.5 -100.5t19.5 -139.5q0 -108 -56.5 -199.5t-162.5 -132.5v-8q119 -22 186.5 -110.5 t67.5 -233.5q0 -104 -28.5 -186t-80 -135t-116 -83.5t-142.5 -39.5l-22 -349h-82l-31 346q-135 5 -219 48l35 118q93 -51 264 -51q122 0 203 85t81 235q0 132 -70 199t-192 77q-50 4 -73 4z" />
<glyph unicode="&#x499;" horiz-adv-x="718" d="M297 467h-96v115h116q60 0 111 53t51 121q0 164 -180 164q-113 0 -197 -58l-41 101q114 71 269 71q134 0 205 -62.5t71 -185.5q0 -80 -41 -144.5t-108 -92.5v-8q95 -23 137.5 -86t42.5 -168q0 -114 -65 -192t-189 -101l-25 -363h-82l-32 357q-114 6 -187 49l37 113 q77 -48 201 -48q105 0 160 49.5t55 143.5q0 81 -52 126.5t-161 45.5z" />
<glyph unicode="&#x49a;" horiz-adv-x="1021" d="M774 0l-424 674h-76v-674h-133v1434h133v-674l74 28l389 646h152l-385 -621l-68 -65l82 -82l344 -545h144v-387h-93l-24 266h-115z" />
<glyph unicode="&#x49b;" horiz-adv-x="825" d="M610 0l-276 469h-80v-469h-127v1024h127v-469l74 29l266 440h137l-258 -416l-67 -65l86 -82l204 -346h113v-381h-84l-25 266h-90z" />
<glyph unicode="&#x49c;" horiz-adv-x="1087" d="M330 410v264h-56v-674h-133v1434h133v-674l56 8v256h106v-242l37 6l354 646h150l-354 -621l-68 -65l82 -82l391 -666h-164l-387 674h-41v-264h-106z" />
<glyph unicode="&#x49d;" horiz-adv-x="847" d="M303 205v264h-49v-469h-127v1024h127v-469l49 6v258h103v-241l40 6l218 440h135l-209 -416l-72 -65l84 -82l227 -461h-147l-229 469h-47v-264h-103z" />
<glyph unicode="&#x49e;" horiz-adv-x="1085" d="M0 1180v114h227v140h133v-140h201v-114h-201v-420l74 28l389 646h154l-387 -621l-68 -65l82 -82l424 -666h-168l-422 674h-78v-674h-133v1180h-227z" />
<glyph unicode="&#x49f;" horiz-adv-x="782" d="M-4 1139v110h131v185h127v-185h262v-110h-262v-584l72 29l256 440h147l-254 -416l-65 -65l82 -82l274 -461h-156l-276 469h-80v-469h-127v1139h-131z" />
<glyph unicode="&#x4a0;" horiz-adv-x="1120" d="M262 1313h-262v121h395v-674l74 28l389 646h152l-385 -621l-68 -65l82 -82l422 -666h-168l-420 674h-78v-674h-133v1313z" />
<glyph unicode="&#x4a1;" horiz-adv-x="835" d="M309 1024v-469l76 29l264 440h135l-256 -416l-67 -65l84 -82l276 -461h-153l-279 469h-80v-469h-127v909h-180v115h307z" />
<glyph unicode="&#x4a2;" horiz-adv-x="1161" d="M829 0v676h-555v-676h-133v1434h133v-637h555v637h134v-1313h151v-387h-92l-25 266h-168z" />
<glyph unicode="&#x4a3;" horiz-adv-x="897" d="M631 0v469h-377v-469h-127v1024h127v-440h377v440h127v-909h121v-381h-84l-25 266h-139z" />
<glyph unicode="&#x4a4;" horiz-adv-x="1411" d="M1442 1434v-121h-479v-1313h-134v676h-555v-676h-133v1434h133v-637h555v637h613z" />
<glyph unicode="&#x4a5;" horiz-adv-x="1103" d="M1106 1024v-115h-348v-909h-127v469h-377v-469h-127v1024h127v-440h377v440h475z" />
<glyph unicode="&#x4a6;" horiz-adv-x="1613" d="M942 596v-596h-133v1313h-535v-1313h-133v1434h801v-715q108 43 225 43q353 0 353 -481q0 -278 -96 -410.5t-285 -132.5q-93 0 -117 6v121q29 -6 125 -6q235 0 235 405q0 106 -18 180.5t-52 117t-77.5 61t-101.5 18.5q-51 0 -108.5 -16t-82.5 -29z" />
<glyph unicode="&#x4a7;" horiz-adv-x="1366" d="M748 401v-401h-127v909h-367v-909h-127v1024h621v-506q2 1 18.5 7t32 10.5t39 10t53.5 8.5t63 3q54 0 99 -13.5t87.5 -46.5t71.5 -84.5t46.5 -132.5t17.5 -186q0 -268 -85 -394t-267 -126q-91 0 -115 6v115q29 -6 121 -6q219 0 219 383q0 197 -60 283.5t-171 86.5 q-76 0 -170 -41z" />
<glyph unicode="&#x4a8;" horiz-adv-x="1318" d="M578 1458v-121q-162 0 -254.5 -155t-92.5 -465q0 -172 45 -313.5t133 -227.5t203 -86q52 0 80 14q-104 83 -164.5 258.5t-60.5 376.5q0 316 103.5 485t273.5 169q182 0 274 -149t92 -429q0 -248 -73.5 -439.5t-190.5 -279.5q24 -6 43 -6q108 0 185 62l38 -109 q-80 -68 -211 -68q-107 0 -190 54q-88 -54 -201 -54q-245 0 -380.5 198t-135.5 544q0 364 126 552.5t358 188.5zM604 717q0 -107 22.5 -214.5t75 -207.5t125.5 -150q99 67 172.5 242t73.5 416q0 103 -12 185.5t-37 147.5t-69.5 100.5t-104.5 35.5q-107 0 -176.5 -140 t-69.5 -415z" />
<glyph unicode="&#x4a9;" horiz-adv-x="1079" d="M440 1049v-115q-225 0 -225 -422q0 -187 66.5 -304.5t195.5 -117.5q57 0 82 25q-60 46 -100.5 159t-40.5 250q0 83 8.5 153.5t29.5 136t54 111t84.5 72.5t118.5 27q96 0 160 -60.5t91 -157t27 -224.5q0 -162 -59 -298.5t-137 -181.5q24 -14 61 -14q76 0 129 62l45 -97 q-30 -35 -80.5 -56.5t-107.5 -21.5q-47 0 -93 17t-75 51q-78 -68 -217 -68q-180 0 -277.5 140.5t-97.5 396.5q0 259 92 398t266 139zM551 518q0 -123 37 -230t98 -159q72 45 122 170.5t50 284.5q0 137 -37.5 231t-109.5 94q-39 0 -67.5 -20.5t-46 -54.5t-28 -86 t-14.5 -106.5t-4 -123.5z" />
<glyph unicode="&#x4aa;" horiz-adv-x="937" d="M840 164l34 -109q-76 -68 -231 -78l-22 -346h-82l-31 351q-193 29 -303.5 210.5t-110.5 524.5q0 157 27 283.5t73 210.5t110 140.5t135 81.5t151 25q161 0 268 -49l-35 -119q-83 47 -223 47q-74 0 -137.5 -32.5t-117 -102t-84 -193.5t-30.5 -292q0 -304 106.5 -461.5 t283.5 -157.5q127 0 219 66z" />
<glyph unicode="&#x4ab;" horiz-adv-x="731" d="M643 152l41 -101q-67 -53 -176 -69l-23 -351h-82l-30 349q-291 43 -291 532q0 258 92 397.5t262 139.5q147 0 234 -52l-39 -110q-80 47 -182 47q-119 0 -176.5 -103t-57.5 -319q0 -91 13 -164t41 -132.5t78 -92.5t118 -33q105 0 178 62z" />
<glyph unicode="&#x4ac;" horiz-adv-x="911" d="M389 0v1313h-358v121h850v-121h-359v-1192h156v-387h-92l-25 266h-172z" />
<glyph unicode="&#x4ad;" horiz-adv-x="647" d="M260 0v909h-258v115h643v-115h-258v-794h117v-381h-84l-25 266h-135z" />
<glyph unicode="&#x4ae;" horiz-adv-x="913" d="M393 0v578l-379 856h152l272 -643l27 -119h4l29 123l260 639h141l-373 -854v-580h-133z" />
<glyph unicode="&#x4af;" horiz-adv-x="792" d="M340 0l-324 1024h148l201 -668l47 -231h2l41 235l182 664h137l-307 -1024v-410h-127v410z" />
<glyph unicode="&#x4b0;" horiz-adv-x="913" d="M147 471v109h244l-377 854h152l272 -643l27 -119h4l29 123l260 639h141l-373 -854h246v-109h-246v-471h-133v471h-246z" />
<glyph unicode="&#x4b1;" horiz-adv-x="792" d="M143 -111v111h197l-324 1024h148l201 -668l47 -231h2l41 235l182 664h137l-307 -1024h197v-111h-197v-299h-127v299h-197z" />
<glyph unicode="&#x4b2;" horiz-adv-x="1073" d="M45 0l383 729l-350 705h155l238 -502l41 -113l41 113l248 502h145l-360 -691l315 -622h154v-387h-90l-27 266h-127l-260 530l-47 119l-43 -119l-268 -530h-148z" />
<glyph unicode="&#x4b3;" horiz-adv-x="858" d="M45 0l297 524l-276 500h151l162 -305l43 -111l43 111l166 305h139l-278 -492l231 -417h119v-381h-84l-25 266h-90l-184 334l-45 117l-47 -117l-183 -334h-139z" />
<glyph unicode="&#x4b4;" horiz-adv-x="1374" d="M1327 121v-387h-90l-27 266h-821v1313h-358v121h790v-121h-299v-1192h520v1313h134v-1313h151z" />
<glyph unicode="&#x4b5;" horiz-adv-x="1028" d="M993 115v-381h-86l-24 266h-623v909h-258v115h625v-115h-240v-794h361v909h126v-909h119z" />
<glyph unicode="&#x4b6;" horiz-adv-x="1048" d="M123 1434h133v-506q0 -148 51 -211.5t154 -63.5q74 0 144 28.5t112 74.5v678h133v-1313h154v-387h-93l-24 266h-170v623q-49 -37 -122 -64t-153 -27q-56 0 -100.5 9.5t-86.5 34.5t-70 65.5t-45 107t-17 154.5v531z" />
<glyph unicode="&#x4b7;" horiz-adv-x="829" d="M78 1024h127v-305q0 -113 29 -170t114 -57q134 0 197 63v469h127v-909h121v-381h-84l-25 266h-139v436q-90 -59 -217 -59q-125 0 -187.5 69t-62.5 238v340z" />
<glyph unicode="&#x4b8;" horiz-adv-x="1001" d="M442 307v225q-76 0 -132 18.5t-99.5 61t-65.5 117.5t-22 182v523h133v-502q0 -140 45 -207t141 -72v269h107v-258q111 22 178 92v678h133v-1434h-133v623q-80 -57 -178 -80v-236h-107z" />
<glyph unicode="&#x4b9;" horiz-adv-x="806" d="M332 143v226q-132 0 -193 77.5t-61 274.5v303h127v-297q0 -114 26 -175.5t101 -68.5v275h102v-266q81 18 119 59v473h127v-1024h-127v436q-52 -40 -119 -57v-236h-102z" />
<glyph unicode="&#x4ba;" horiz-adv-x="991" d="M868 0h-133v487q0 151 -48 222t-155 71q-76 0 -145 -27.5t-113 -72.5v-680h-133v1434h133v-623q134 90 281 90q75 0 129.5 -18.5t97.5 -62.5t64.5 -123.5t21.5 -194.5v-502z" />
<glyph unicode="&#x4bb;" horiz-adv-x="894" d="M782 0h-127v623q0 163 -37.5 237t-140.5 74q-76 0 -139.5 -55t-83.5 -138v-741h-127v1434h127v-506h6q99 121 254 121q142 0 205 -86.5t63 -303.5v-659z" />
<glyph unicode="&#x4bc;" horiz-adv-x="1280" d="M1159 664h-717q13 -289 107 -428.5t274 -139.5q124 0 240 84l41 -110q-136 -95 -303 -95q-228 0 -355.5 168t-136.5 521h-59q-131 0 -191 58t-57 169q3 113 53 170h125q-26 -28 -40.5 -71t-14.5 -83q0 -34 7 -56t25.5 -40.5t56 -25.5t95.5 -3q11 326 126.5 501t326.5 175 q199 0 305.5 -144.5t106.5 -402.5q0 -137 -15 -247zM440 784h592q8 65 8 131q0 118 -29 211.5t-93 152t-156 58.5q-154 0 -235 -144.5t-87 -408.5z" />
<glyph unicode="&#x4bd;" horiz-adv-x="1009" d="M852 164l47 -96q-49 -44 -122 -68.5t-152 -24.5q-186 0 -276.5 141t-90.5 392h-20q-116 0 -172 61t-54 168q2 127 84 205h129q-98 -76 -98 -201q0 -133 135 -118q20 207 110.5 316.5t243.5 109.5q48 0 88 -8t82 -32.5t71.5 -64.5t48.5 -108.5t20 -159.5q0 -105 -8 -168 h-527q0 -98 14 -172.5t45 -130.5t83.5 -85.5t125.5 -29.5q52 0 106.5 21.5t86.5 52.5zM393 623h410v28q0 140 -50 211.5t-135 71.5q-205 0 -225 -311z" />
<glyph unicode="&#x4be;" horiz-adv-x="1280" d="M1159 664h-717q14 -289 107.5 -429.5t273.5 -140.5q124 0 240 84l41 -108q-109 -77 -256 -90l-23 -349h-82l-30 353q-390 60 -404 680h-59q-131 0 -191 58t-57 169q0 110 53 170h125q-26 -28 -40.5 -71t-14.5 -83q0 -34 7 -56t25.5 -40.5t56 -25.5t95.5 -3 q11 326 126.5 501t326.5 175q199 0 305.5 -144.5t106.5 -402.5q0 -137 -15 -247zM440 784h592q8 65 8 131q0 118 -29 211.5t-93 152t-156 58.5q-154 0 -235 -144.5t-87 -408.5z" />
<glyph unicode="&#x4bf;" horiz-adv-x="1009" d="M852 164l47 -96q-74 -68 -209 -88l-22 -349h-82l-31 351q-101 17 -168.5 87.5t-98 180t-30.5 258.5h-20q-116 0 -172 61t-54 168q2 127 84 205h129q-98 -76 -98 -201q0 -133 135 -118q20 207 110.5 316.5t243.5 109.5q48 0 88 -8t82 -32.5t71.5 -64.5t48.5 -108.5 t20 -159.5q0 -105 -8 -168h-527q0 -98 14 -172.5t45 -130.5t83.5 -85.5t125.5 -29.5q52 0 106.5 21.5t86.5 52.5zM618 934q-205 0 -225 -311h410v28q0 140 -50 211.5t-135 71.5z" />
<glyph unicode="&#x4c0;" horiz-adv-x="477" d="M172 0v1434h133v-1434h-133z" />
<glyph unicode="&#x4c3;" horiz-adv-x="980" d="M723 143q0 202 -40.5 318.5t-119.5 164.5t-211 48h-78v-674h-133v1434h133v-674l74 28l389 646h152l-371 -588l-92 -78h102q121 -32 191 -99t103.5 -192.5t33.5 -331.5v-34q0 -156 -24.5 -265.5t-72.5 -172t-113 -88t-152 -19.5v121q132 0 180.5 101.5t48.5 354.5z" />
<glyph unicode="&#x4c4;" horiz-adv-x="786" d="M592 27q0 224 -65.5 326t-194.5 104h-78v-457h-127v1024h127v-489l74 28l266 461h137l-258 -436l-59 -51l71 -13q234 -63 234 -448v-15v-32q0 -134 -26.5 -230t-74 -148t-107.5 -71.5t-134 -9.5v115q101 -15 158 75t57 267z" />
<glyph unicode="&#x4c5;" horiz-adv-x="1026" d="M748 0v1313h-347q-16 -447 -42 -716t-76 -413q-34 -98 -81.5 -145t-113.5 -47q-56 0 -92 16l20 119q44 -13 79 9.5t65 99.5q103 275 119 1198h602v-1319h153v-41l-149 -340h-84l73 266h-126z" />
<glyph unicode="&#x4c6;" horiz-adv-x="845" d="M567 0v909h-239q-3 -84 -5 -139t-6.5 -133.5t-9.5 -130.5t-12 -119t-17 -111t-23 -93.5t-29.5 -80.5t-37 -58t-46.5 -39.5t-56 -12.5q-58 0 -94 16l20 111q34 -7 62.5 -1.5t51.5 55.5t40.5 147t28.5 272t16 432h483v-909h160v-41l-149 -340h-84l73 266h-127z" />
<glyph unicode="&#x4c7;" horiz-adv-x="1103" d="M963 1434v-1491q0 -210 -62 -301t-205 -76v115q31 0 53.5 8t37.5 28.5t23.5 42.5t12.5 63.5t5 78t1 98.5v676h-555v-676h-133v1434h133v-637h555v637h134z" />
<glyph unicode="&#x4c8;" horiz-adv-x="884" d="M631 0v469h-377v-469h-127v1024h127v-440h377v440h127v-1081q0 -207 -64 -295.5t-202 -73.5v115q37 0 62.5 13t40.5 35t23 63.5t10.5 85.5t2.5 114z" />
<glyph unicode="&#x4c9;" horiz-adv-x="1120" d="M829 0v676h-555v-676h-133v1434h133v-637h555v637h134v-1319h167v-41l-149 -340h-84l74 266h-142z" />
<glyph unicode="&#x4ca;" horiz-adv-x="911" d="M631 0v469h-377v-469h-127v1024h127v-440h377v440h127v-909h162v-41l-150 -340h-84l74 266h-129z" />
<glyph unicode="&#x4cb;" horiz-adv-x="991" d="M123 1434h133v-506q0 -148 51 -211.5t154 -63.5q74 0 144 29.5t112 75.5v676h133v-1434h-172l-25 -266h-92v387h156v502q-49 -37 -122 -64t-153 -27q-56 0 -100.5 9.5t-86.5 34.5t-70 65.5t-45 107t-17 154.5v531z" />
<glyph unicode="&#x4cc;" horiz-adv-x="798" d="M545 115v325q-77 -63 -221 -63q-63 0 -106.5 15.5t-76 54t-48 106t-15.5 168.5v303h127v-289q0 -58 5 -97.5t19.5 -75t44 -53t74.5 -17.5q136 0 197 61v471h127v-1024h-144l-22 -266h-86v381h125z" />
<glyph unicode="&#x4cd;" horiz-adv-x="1312" d="M1022 0v987l18 205h-8l-63 -195l-299 -647h-43l-318 647l-59 195h-8l26 -205v-987h-127v1434h105l354 -723l53 -166h2l50 168l339 721h111v-1319h166v-41l-150 -340h-84l74 266h-139z" />
<glyph unicode="&#x4ce;" horiz-adv-x="1077" d="M799 0v639l12 190h-8l-60 -170l-200 -411h-43l-209 411l-53 170h-11l17 -188v-641h-117v1024h123l233 -459l47 -133h2l50 137l217 455h127v-909h159v-41l-149 -340h-84l74 266h-127z" />
<glyph unicode="&#x4cf;" horiz-adv-x="417" d="M145 0v1434h127v-1434h-127z" />
<glyph unicode="&#x4d0;" horiz-adv-x="956" d="M807 0l-123 418h-422l-119 -418h-129l435 1458h57l438 -1458h-137zM432 1001l-131 -462h346l-133 467l-39 213h-2zM203 1745l127 35q6 -80 46 -127t107 -47t105.5 46.5t46.5 125.5l113 -31q-18 -114 -84.5 -178t-182.5 -64q-119 0 -192.5 60.5t-85.5 179.5z" />
<glyph unicode="&#x4d1;" horiz-adv-x="813" d="M162 864l-45 99q56 36 140.5 56.5t174.5 20.5q66 0 114 -18t75 -45.5t43 -70t21 -82.5t5 -91q0 -89 -4 -248.5t-4 -226.5q0 -180 20 -262h-92l-35 119h-8q-78 -129 -252 -129q-109 0 -179 77.5t-70 208.5q0 85 29 146t85 96t127.5 50.5t165.5 15.5q57 0 88 -2q4 45 4 120 q0 126 -36.5 177t-131.5 51q-56 0 -124 -18t-111 -44zM346 100q85 0 138 41t77 101v227q-47 6 -92 6q-270 0 -270 -192q0 -84 40 -133.5t107 -49.5zM147 1399l107 37q11 -91 53.5 -135t100.5 -44q56 0 97.5 46t53.5 131l96 -29q-13 -117 -83.5 -182.5t-168.5 -65.5 t-170.5 60t-85.5 182z" />
<glyph unicode="&#x4d2;" horiz-adv-x="956" d="M807 0l-123 418h-422l-119 -418h-129l435 1458h57l438 -1458h-137zM432 1001l-131 -462h346l-133 467l-39 213h-2zM236 1624q0 41 24.5 66.5t63.5 25.5q36 0 60 -25.5t24 -66.5q0 -39 -24 -64.5t-60 -25.5q-38 0 -63 25t-25 65zM549 1624q0 41 24 66.5t60 25.5 q38 0 62 -25.5t24 -66.5q0 -40 -24 -65t-62 -25q-36 0 -60 25.5t-24 64.5z" />
<glyph unicode="&#x4d3;" horiz-adv-x="813" d="M162 864l-45 99q56 36 140.5 56.5t174.5 20.5q66 0 114 -18t75 -45.5t43 -70t21 -82.5t5 -91q0 -89 -4 -248.5t-4 -226.5q0 -180 20 -262h-92l-35 119h-8q-78 -129 -252 -129q-109 0 -179 77.5t-70 208.5q0 85 29 146t85 96t127.5 50.5t165.5 15.5q57 0 88 -2q4 45 4 120 q0 126 -36.5 177t-131.5 51q-56 0 -124 -18t-111 -44zM346 100q85 0 138 41t77 101v227q-47 6 -92 6q-270 0 -270 -192q0 -84 40 -133.5t107 -49.5zM164 1298q0 41 22.5 66t57.5 25q34 0 56 -25t22 -66q0 -39 -22 -63.5t-56 -24.5q-35 0 -57.5 24t-22.5 64zM477 1298 q0 41 22 66t56 25q35 0 57.5 -25t22.5 -66q0 -40 -22.5 -64t-57.5 -24q-34 0 -56 24.5t-22 63.5z" />
<glyph unicode="&#x4d4;" horiz-adv-x="1384" d="M645 1235h-4l-53 -201l-230 -493h287v694zM645 0v420h-348l-188 -420h-144l680 1434h623v-121h-490v-512h449v-121h-449v-559h498v-121h-631z" />
<glyph unicode="&#x4d5;" horiz-adv-x="1310" d="M348 98q86 0 139.5 47t73.5 113v217q-46 4 -69 4q-50 0 -90 -4.5t-79 -17.5t-65.5 -34t-42.5 -55.5t-16 -80.5q0 -78 41.5 -133.5t107.5 -55.5zM618 152h-12q-44 -76 -117 -122t-170 -46q-112 0 -182.5 80t-70.5 212q0 88 28 149.5t82.5 96t124 49.5t162.5 15q28 0 98 -4 q14 199 -18 271.5t-146 72.5q-57 0 -127.5 -21t-115.5 -53l-39 98q121 90 317 90q174 0 221 -137q39 73 110 109.5t150 36.5q47 0 87.5 -9t82.5 -34t71.5 -65.5t48.5 -109.5t20 -159q0 -74 -9 -168h-530q2 -208 64 -311t204 -103q53 0 109.5 21t85.5 49l49 -97 q-109 -88 -281 -88q-101 0 -181 46.5t-116 130.5zM915 934q-99 0 -158 -79.5t-69 -240.5h408v33q0 141 -48.5 214t-132.5 73z" />
<glyph unicode="&#x4d6;" horiz-adv-x="878" d="M141 0v1434h621v-121h-488v-512h449v-121h-449v-559h498v-121h-631zM176 1745l127 35q6 -80 46 -127t108 -47q67 0 105 46t46 126l113 -31q-18 -115 -84 -178.5t-182 -63.5q-119 0 -193 61t-86 179z" />
<glyph unicode="&#x4d7;" horiz-adv-x="837" d="M676 164l47 -96q-49 -44 -122 -68.5t-152 -24.5q-186 0 -276.5 142t-90.5 395q0 258 93 397.5t265 139.5q48 0 88 -8t82 -32.5t71.5 -64.5t48.5 -108.5t20 -159.5q0 -97 -9 -168h-526q0 -98 14 -172.5t45 -130.5t83.5 -85.5t125.5 -29.5q52 0 106.5 21.5t86.5 52.5z M442 934q-207 0 -227 -311h412v28q0 140 -50 211.5t-135 71.5zM178 1399l107 37q11 -91 53 -135t100 -44q56 0 98 46t54 131l96 -29q-13 -117 -83.5 -182.5t-168.5 -65.5t-170.5 60t-85.5 182z" />
<glyph unicode="&#x4d8;" horiz-adv-x="1048" d="M825 672h-596q-8 -71 -8 -133q0 -196 73 -319.5t210 -123.5q157 0 237.5 147t83.5 429zM106 793h717q-14 281 -98 412.5t-254 131.5q-66 0 -137.5 -25.5t-118.5 -56.5l-41 109q146 94 320 94q232 0 347 -177t115 -564q0 -361 -113.5 -551.5t-340.5 -190.5 q-197 0 -305.5 151t-108.5 409q0 140 18 258z" />
<glyph unicode="&#x4d9;" horiz-adv-x="831" d="M156 864l-50 97q49 41 125 64.5t158 23.5q182 0 271.5 -139.5t89.5 -397.5q0 -266 -90.5 -401.5t-256.5 -135.5q-156 0 -238.5 114.5t-82.5 328.5q0 62 8 141h533q-6 196 -68 285.5t-203 89.5q-55 0 -109.5 -20.5t-86.5 -49.5zM406 90q100 0 159 92.5t56 261.5h-416v-41 q1 -147 57.5 -230t143.5 -83z" />
<glyph unicode="&#x4da;" horiz-adv-x="1048" d="M825 672h-596q-8 -71 -8 -133q0 -196 73 -319.5t210 -123.5q157 0 237.5 147t83.5 429zM106 793h717q-14 281 -98 412.5t-254 131.5q-66 0 -137.5 -25.5t-118.5 -56.5l-41 109q146 94 320 94q232 0 347 -177t115 -564q0 -361 -113.5 -551.5t-340.5 -190.5 q-197 0 -305.5 151t-108.5 409q0 140 18 258zM264 1624q0 41 24.5 66.5t63.5 25.5q36 0 60 -25.5t24 -66.5q0 -39 -24 -64.5t-60 -25.5q-38 0 -63 25t-25 65zM578 1624q0 41 24 66.5t60 25.5q38 0 62 -25.5t24 -66.5q0 -40 -24 -65t-62 -25q-36 0 -60 25.5t-24 64.5z" />
<glyph unicode="&#x4db;" horiz-adv-x="831" d="M156 864l-50 97q49 41 125 64.5t158 23.5q182 0 271.5 -139.5t89.5 -397.5q0 -266 -90.5 -401.5t-256.5 -135.5q-156 0 -238.5 114.5t-82.5 328.5q0 62 8 141h533q-6 196 -68 285.5t-203 89.5q-55 0 -109.5 -20.5t-86.5 -49.5zM406 90q100 0 159 92.5t56 261.5h-416v-41 q1 -147 57.5 -230t143.5 -83zM166 1298q0 41 22.5 66t57.5 25q34 0 56 -25t22 -66q0 -39 -22 -63.5t-56 -24.5q-35 0 -57.5 24t-22.5 64zM479 1298q0 41 22 66t56 25q35 0 57.5 -25t22.5 -66q0 -40 -22.5 -64t-57.5 -24q-34 0 -56 24.5t-22 63.5z" />
<glyph unicode="&#x4dc;" horiz-adv-x="1318" d="M588 784v650h127v-674l71 28l336 646h148l-336 -621l-66 -65l82 -82l371 -666h-164l-366 674h-76v-674h-127v698l-70 -28l-366 -670h-154l367 645l77 76l-73 72l-349 641h156l338 -650h74zM418 1624q0 41 24.5 66.5t63.5 25.5q36 0 60 -25.5t24 -66.5q0 -39 -24 -64.5 t-60 -25.5q-38 0 -63 25t-25 65zM731 1624q0 41 24 66.5t60 25.5q38 0 62 -25.5t24 -66.5q0 -40 -24 -65t-62 -25q-36 0 -60 25.5t-24 64.5z" />
<glyph unicode="&#x4dd;" horiz-adv-x="1081" d="M471 489l-80 -28l-248 -461h-141l260 469l57 61l-83 78l-216 416h132l231 -449h88v449h127v-469l78 29l233 440h131l-225 -416l-63 -65l82 -82l245 -461h-147l-246 469h-88v-469h-127v489zM305 1298q0 41 22.5 66t57.5 25q34 0 56 -25t22 -66q0 -39 -22 -63.5t-56 -24.5 q-35 0 -57.5 24t-22.5 64zM618 1298q0 41 22 66t56 25q35 0 57.5 -25t22.5 -66q0 -40 -22.5 -64t-57.5 -24q-34 0 -56 24.5t-22 63.5z" />
<glyph unicode="&#x4de;" horiz-adv-x="888" d="M322 692h-93v115h33q93 0 148 10q92 23 152.5 93t60.5 169q0 135 -65.5 196.5t-176.5 61.5q-158 0 -244 -49l-37 105q38 25 123.5 45t182.5 20q57 0 107 -10t96 -35.5t79 -64.5t52.5 -100.5t19.5 -139.5q0 -108 -56.5 -199.5t-162.5 -132.5v-8q119 -22 186.5 -110.5 t67.5 -233.5q0 -114 -35 -202.5t-96 -141t-137.5 -79t-164.5 -26.5q-186 0 -288 50l35 122q93 -51 264 -51q123 0 203.5 83.5t80.5 232.5q0 132 -70 199t-192 77q-50 4 -73 4zM158 1624q0 41 24.5 66.5t63.5 25.5q36 0 60 -25.5t24 -66.5q0 -39 -24 -64.5t-60 -25.5 q-38 0 -63 25t-25 65zM471 1624q0 41 24 66.5t60 25.5q38 0 62 -25.5t24 -66.5q0 -40 -24 -65t-62 -25q-36 0 -60 25.5t-24 64.5z" />
<glyph unicode="&#x4df;" horiz-adv-x="718" d="M297 467h-96v115h116q60 0 111 53t51 121q0 164 -180 164q-113 0 -197 -58l-41 101q114 71 269 71q134 0 205 -62.5t71 -185.5q0 -80 -41 -144.5t-108 -92.5v-8q95 -23 137.5 -86t42.5 -168q0 -135 -89.5 -218t-258.5 -83q-141 0 -232 51l37 110q75 -47 201 -47 q105 0 160 50.5t55 144.5q0 81 -52 126.5t-161 45.5zM90 1298q0 41 22.5 66t57.5 25q34 0 56 -25t22 -66q0 -39 -22 -63.5t-56 -24.5q-35 0 -57.5 24t-22.5 64zM403 1298q0 41 22 66t56 25q35 0 57.5 -25t22.5 -66q0 -40 -22.5 -64t-57.5 -24q-34 0 -56 24.5t-22 63.5z" />
<glyph unicode="&#x4e0;" horiz-adv-x="923" d="M379 96q143 0 226 87.5t83 230.5q0 146 -84.5 221.5t-243.5 75.5h-147v41l313 489l70 88l-100 -16h-400v121h678v-41l-336 -516l-57 -62v-4l55 14q169 0 274 -104.5t105 -286.5q0 -217 -118.5 -338t-319.5 -121q-82 0 -162.5 18.5t-122.5 45.5l35 125q42 -27 113 -47.5 t139 -20.5z" />
<glyph unicode="&#x4e1;" horiz-adv-x="778" d="M299 -309q119 0 195.5 86.5t76.5 226.5q0 151 -69 227t-193 76h-121v41l248 486l72 88l-105 -19h-333v121h585v-41l-266 -512l-55 -59v-4l55 14q136 -8 222.5 -112t86.5 -285q0 -213 -113 -334t-288 -121q-137 0 -231 43l36 121q73 -43 197 -43z" />
<glyph unicode="&#x4e2;" horiz-adv-x="1118" d="M844 0v977l12 186h-6l-72 -190l-557 -973h-80v1434h133v-998l-14 -180h6l72 186l559 992h80v-1434h-133zM309 1565v114h516v-114h-516z" />
<glyph unicode="&#x4e3;" horiz-adv-x="892" d="M639 0v621l10 155h-6l-72 -172l-362 -604h-82v1024h127v-639l-12 -149h10l67 167l367 621h80v-1024h-127zM211 1200v111h483v-111h-483z" />
<glyph unicode="&#x4e4;" horiz-adv-x="1118" d="M844 0v977l12 186h-6l-72 -190l-557 -973h-80v1434h133v-998l-14 -180h6l72 186l559 992h80v-1434h-133zM322 1624q0 41 24.5 66.5t63.5 25.5q36 0 60 -25.5t24 -66.5q0 -39 -24 -64.5t-60 -25.5q-38 0 -63 25t-25 65zM635 1624q0 41 24 66.5t60 25.5q38 0 62 -25.5 t24 -66.5q0 -40 -24 -65t-62 -25q-36 0 -60 25.5t-24 64.5z" />
<glyph unicode="&#x4e5;" horiz-adv-x="892" d="M639 0v621l10 155h-6l-72 -172l-362 -604h-82v1024h127v-639l-12 -149h10l67 167l367 621h80v-1024h-127zM219 1298q0 41 22.5 66t57.5 25q34 0 56 -25t22 -66q0 -39 -22 -63.5t-56 -24.5q-35 0 -57.5 24t-22.5 64zM532 1298q0 41 22 66t56 25q35 0 57.5 -25t22.5 -66 q0 -40 -22.5 -64t-57.5 -24q-34 0 -56 24.5t-22 63.5z" />
<glyph unicode="&#x4e6;" horiz-adv-x="1122" d="M94 717q0 365 116.5 553t348.5 188q469 0 469 -741q0 -365 -117.5 -553.5t-351.5 -188.5q-465 0 -465 742zM231 717q0 -126 19 -235t57 -197t103 -138.5t149 -50.5q163 0 247.5 155t84.5 466q0 127 -18.5 235t-57 196t-104 138.5t-152.5 50.5q-160 0 -244 -155t-84 -465z M319 1624q0 41 25 66.5t64 25.5q36 0 60 -25.5t24 -66.5q0 -39 -24 -64.5t-60 -25.5q-38 0 -63.5 25t-25.5 65zM633 1624q0 41 24 66.5t60 25.5q38 0 62 -25.5t24 -66.5q0 -40 -24 -65t-62 -25q-36 0 -60 25.5t-24 64.5z" />
<glyph unicode="&#x4e7;" horiz-adv-x="878" d="M82 512q0 537 356 537q183 0 271 -132.5t88 -404.5q0 -537 -359 -537q-182 0 -269 132.5t-87 404.5zM215 512q0 -422 223 -422q114 0 170 102.5t56 319.5q0 196 -54 309t-172 113q-112 0 -167.5 -103t-55.5 -319zM203 1298q0 41 22.5 66t57.5 25q34 0 55.5 -25t21.5 -66 q0 -39 -21.5 -63.5t-55.5 -24.5q-35 0 -57.5 24t-22.5 64zM516 1298q0 41 22 66t56 25q35 0 57.5 -25t22.5 -66q0 -40 -22.5 -64t-57.5 -24q-34 0 -56 24.5t-22 63.5z" />
<glyph unicode="&#x4e8;" horiz-adv-x="1122" d="M94 717q0 365 116.5 553t348.5 188q469 0 469 -741q0 -365 -117.5 -553.5t-351.5 -188.5q-465 0 -465 742zM559 96q157 0 241.5 143.5t90.5 430.5h-660q4 -119 24.5 -220t59 -181.5t101 -126.5t143.5 -46zM559 1337q-307 0 -328 -546h660q-5 115 -27 210.5t-61 172.5 t-101.5 120t-142.5 43z" />
<glyph unicode="&#x4e9;" horiz-adv-x="878" d="M82 512q0 265 92 401t264 136q182 0 271.5 -138t89.5 -399q0 -268 -93.5 -402.5t-267.5 -134.5q-180 0 -268 138t-88 399zM215 567h451q-22 367 -228 367q-210 0 -223 -367zM666 453h-451q6 -176 67.5 -269.5t155.5 -93.5q96 0 158.5 85t69.5 278z" />
<glyph unicode="&#x4ea;" horiz-adv-x="1122" d="M94 717q0 365 116.5 553t348.5 188q469 0 469 -741q0 -365 -117.5 -553.5t-351.5 -188.5q-465 0 -465 742zM559 96q157 0 241.5 143.5t90.5 430.5h-660q4 -119 24.5 -220t59 -181.5t101 -126.5t143.5 -46zM559 1337q-307 0 -328 -546h660q-5 115 -27 210.5t-61 172.5 t-101.5 120t-142.5 43zM319 1624q0 41 25 66.5t64 25.5q36 0 60 -25.5t24 -66.5q0 -39 -24 -64.5t-60 -25.5q-38 0 -63.5 25t-25.5 65zM633 1624q0 41 24 66.5t60 25.5q38 0 62 -25.5t24 -66.5q0 -40 -24 -65t-62 -25q-36 0 -60 25.5t-24 64.5z" />
<glyph unicode="&#x4eb;" horiz-adv-x="878" d="M82 512q0 265 92 401t264 136q182 0 271.5 -138t89.5 -399q0 -268 -93.5 -402.5t-267.5 -134.5q-180 0 -268 138t-88 399zM215 567h451q-22 367 -228 367q-210 0 -223 -367zM666 453h-451q6 -176 67.5 -269.5t155.5 -93.5q96 0 158.5 85t69.5 278zM203 1298q0 41 22.5 66 t57.5 25q34 0 55.5 -25t21.5 -66q0 -39 -21.5 -63.5t-55.5 -24.5q-35 0 -57.5 24t-22.5 64zM516 1298q0 41 22 66t56 25q35 0 57.5 -25t22.5 -66q0 -40 -22.5 -64t-57.5 -24q-34 0 -56 24.5t-22 63.5z" />
<glyph unicode="&#x4ec;" horiz-adv-x="946" d="M248 672v121h471q-10 271 -110.5 407.5t-264.5 136.5q-133 0 -233 -65l-41 108q118 78 290 78q112 0 200 -40.5t154.5 -126.5t102 -230t35.5 -340q0 -158 -26 -283.5t-71.5 -211.5t-111.5 -143t-143.5 -82.5t-169.5 -25.5q-151 0 -256 50l37 122q39 -22 101.5 -36.5 t125.5 -14.5q74 0 138.5 31.5t119 97t88 180.5t37.5 267h-473zM135 1624q0 41 24.5 66.5t63.5 25.5q36 0 60 -25.5t24 -66.5q0 -39 -24 -64.5t-60 -25.5q-38 0 -63 25t-25 65zM449 1624q0 41 23.5 66.5t59.5 25.5q38 0 62 -25.5t24 -66.5q0 -40 -24 -65t-62 -25 q-36 0 -59.5 25.5t-23.5 64.5z" />
<glyph unicode="&#x4ed;" horiz-adv-x="757" d="M197 459v114h348q-6 170 -68.5 265.5t-171.5 95.5t-194 -64l-50 103q102 76 265 76q180 0 266 -133t86 -404q0 -262 -97 -399.5t-276 -137.5q-148 0 -242 48l37 114q37 -21 92 -34t103 -13q238 0 250 369h-348zM88 1298q0 41 22.5 66t57.5 25q34 0 56 -25t22 -66 q0 -39 -22 -63.5t-56 -24.5q-35 0 -57.5 24t-22.5 64zM401 1298q0 41 22 66t56 25q35 0 57.5 -25t22.5 -66q0 -40 -22.5 -64t-57.5 -24q-34 0 -56 24.5t-22 63.5z" />
<glyph unicode="&#x4ee;" horiz-adv-x="905" d="M164 1434l295 -758l41 -182h10l33 186l225 754h133l-287 -920q-103 -330 -156.5 -427t-158.5 -97q-92 0 -147 43l41 112q47 -34 110 -34q44 0 75.5 65t57.5 193l-424 1065h152zM225 1565v114h516v-114h-516z" />
<glyph unicode="&#x4ef;" horiz-adv-x="759" d="M162 1024l205 -682l47 -205h8l35 207l164 680h127l-242 -920q-19 -73 -32 -120.5t-32 -108t-35 -99t-38 -79.5t-44 -64t-49.5 -38t-58.5 -15q-55 0 -90 17l20 122q15 -6 33 -6q117 0 168 287l-328 1024h142zM154 1200v111h483v-111h-483z" />
<glyph unicode="&#x4f0;" horiz-adv-x="905" d="M164 1434l295 -758l41 -182h10l33 186l225 754h133l-287 -920q-103 -330 -156.5 -427t-158.5 -97q-92 0 -147 43l41 112q47 -34 110 -34q44 0 75.5 65t57.5 193l-424 1065h152zM236 1624q0 41 24.5 66.5t63.5 25.5q36 0 60 -25.5t24 -66.5q0 -39 -24 -64.5t-60 -25.5 q-38 0 -63 25t-25 65zM549 1624q0 41 24 66.5t60 25.5q38 0 62 -25.5t24 -66.5q0 -40 -24 -65t-62 -25q-36 0 -60 25.5t-24 64.5z" />
<glyph unicode="&#x4f1;" horiz-adv-x="759" d="M162 1024l205 -682l47 -205h8l35 207l164 680h127l-242 -920q-19 -73 -32 -120.5t-32 -108t-35 -99t-38 -79.5t-44 -64t-49.5 -38t-58.5 -15q-55 0 -90 17l20 122q15 -6 33 -6q117 0 168 287l-328 1024h142zM164 1298q0 41 22.5 66t57.5 25q34 0 56 -25t22 -66 q0 -39 -22 -63.5t-56 -24.5q-35 0 -57.5 24t-22.5 64zM477 1298q0 41 22 66t56 25q35 0 57.5 -25t22.5 -66q0 -40 -22.5 -64t-57.5 -24q-34 0 -56 24.5t-22 63.5z" />
<glyph unicode="&#x4f2;" horiz-adv-x="905" d="M164 1434l295 -758l41 -182h10l33 186l225 754h133l-287 -920q-103 -330 -156.5 -427t-158.5 -97q-92 0 -147 43l41 112q47 -34 110 -34q44 0 75.5 65t57.5 193l-424 1065h152zM297 1518l104 223h152v-33l-164 -190h-92zM498 1518l168 223h157v-33l-233 -190h-92z" />
<glyph unicode="&#x4f3;" horiz-adv-x="759" d="M162 1024l205 -682l47 -205h8l35 207l164 680h127l-242 -920q-19 -73 -32 -120.5t-32 -108t-35 -99t-38 -79.5t-44 -64t-49.5 -38t-58.5 -15q-55 0 -90 17l20 122q15 -6 33 -6q117 0 168 287l-328 1024h142zM264 1169l58 265h124v-33l-116 -232h-66zM438 1169l121 265 h137v-33l-186 -232h-72z" />
<glyph unicode="&#x4f4;" horiz-adv-x="991" d="M123 1434h133v-506q0 -148 51 -211.5t154 -63.5q74 0 144 29.5t112 75.5v676h133v-1434h-133v623q-49 -37 -122 -64t-153 -27q-56 0 -100.5 9.5t-86.5 34.5t-70 65.5t-45 107t-17 154.5v531zM256 1624q0 41 24.5 66.5t63.5 25.5q36 0 60 -25.5t24 -66.5q0 -39 -24 -64.5 t-60 -25.5q-38 0 -63 25t-25 65zM569 1624q0 41 24 66.5t60 25.5q38 0 62 -25.5t24 -66.5q0 -40 -24 -65t-62 -25q-36 0 -60 25.5t-24 64.5z" />
<glyph unicode="&#x4f5;" horiz-adv-x="800" d="M78 1024h127v-305q0 -113 29 -170t114 -57q134 0 197 63v469h127v-1024h-127v436q-90 -59 -217 -59q-125 0 -187.5 69t-62.5 238v340zM139 1298q0 41 22.5 66t57.5 25q34 0 56 -25t22 -66q0 -39 -22 -63.5t-56 -24.5q-35 0 -57.5 24t-22.5 64zM453 1298q0 41 21.5 66 t55.5 25q35 0 57.5 -25t22.5 -66q0 -40 -22.5 -64t-57.5 -24q-34 0 -55.5 24.5t-21.5 63.5z" />
<glyph unicode="&#x4f6;" horiz-adv-x="722" d="M141 0v1434h613v-121h-480v-1192h154v-387h-92l-25 266h-170z" />
<glyph unicode="&#x4f7;" horiz-adv-x="600" d="M127 0v1024h475v-115h-348v-794h119v-381h-84l-25 266h-137z" />
<glyph unicode="&#x4f8;" horiz-adv-x="1257" d="M983 0v1434h133v-1434h-133zM141 12v1422h133v-566q65 17 144 17q399 0 399 -424q0 -243 -111.5 -360t-316.5 -117q-148 0 -248 28zM401 104q131 0 205 87t74 255q0 92 -21.5 155.5t-62 98.5t-89 49.5t-112.5 14.5q-28 0 -66.5 -6.5t-54.5 -12.5v-626q43 -15 127 -15z M379 1624q0 41 24.5 66.5t63.5 25.5q36 0 60 -25.5t24 -66.5q0 -39 -24 -64.5t-60 -25.5q-38 0 -63 25t-25 65zM692 1624q0 41 24 66.5t60 25.5q38 0 62 -25.5t24 -66.5q0 -40 -24 -65t-62 -25q-36 0 -60 25.5t-24 64.5z" />
<glyph unicode="&#x4f9;" horiz-adv-x="1077" d="M254 512v-397q70 -13 119 -13q99 0 142.5 54t43.5 161q0 101 -42.5 155t-139.5 54q-77 0 -123 -14zM254 1024v-397q74 14 145 14q293 0 293 -301q0 -186 -82.5 -269t-267.5 -83q-101 0 -215 12v1024h127zM823 0v1024h127v-1024h-127zM295 1298q0 41 22.5 66t57.5 25 q34 0 56 -25t22 -66q0 -39 -22 -63.5t-56 -24.5q-35 0 -57.5 24t-22.5 64zM608 1298q0 41 22 66t56 25q35 0 57.5 -25t22.5 -66q0 -40 -22.5 -64t-57.5 -24q-34 0 -56 24.5t-22 63.5z" />
<glyph unicode="&#x4fc;" horiz-adv-x="1007" d="M791 -102q0 96 -23 172t-66 163l-149 297l-49 119l-43 -119l-268 -530h-148l383 729l-350 705h155l238 -502l41 -113l41 113l248 502h145l-360 -691l227 -442q105 -205 105 -369q0 -202 -66 -288t-207 -74v115q46 0 76.5 17t45 49.5t19.5 66t5 80.5z" />
<glyph unicode="&#x4fd;" horiz-adv-x="835" d="M500 532l157 -274q107 -193 107 -336q0 -190 -74 -276.5t-215 -71.5v115q90 0 126 46t36 146q0 148 -92 309l-76 136l-53 114l-49 -114l-179 -326h-143l297 524l-276 500h157l156 -297l47 -119l47 119l162 297h143z" />
<glyph unicode="&#x4fe;" horiz-adv-x="1011" d="M90 674v121h305l-317 639h155l238 -502l41 -113l41 113l248 502h145l-336 -639h318v-121h-307l342 -674h-152l-260 530l-47 119l-43 -119l-268 -530h-148l354 674h-309z" />
<glyph unicode="&#x4ff;" horiz-adv-x="831" d="M90 477v107h219l-243 440h151l162 -305l43 -111l43 111l166 305h139l-250 -440h230v-107h-228l264 -477h-143l-184 334l-45 117l-47 -117l-183 -334h-139l270 477h-225z" />
<glyph unicode="&#x510;" d="M674 692h-92q-22 0 -72 -4q-125 -10 -194.5 -75t-69.5 -203q0 -152 78 -233t215 -81q63 0 129 20t102 46l43 -107q-113 -80 -299 -80q-188 0 -296.5 108t-108.5 320q0 149 65.5 240t181.5 115v8q-103 39 -158 135.5t-55 206.5q0 175 104.5 262.5t270.5 87.5 q86 0 164 -19.5t119 -49.5l-39 -113q-46 26 -111 43.5t-123 17.5q-247 0 -247 -237q0 -117 69 -191.5t166 -93.5q49 -8 133 -8h25v-115z" />
<glyph unicode="&#x511;" horiz-adv-x="722" d="M516 467h-94q-213 0 -213 -172q0 -88 56 -142.5t159 -54.5q120 0 199 52l39 -105q-94 -61 -240 -61q-167 0 -253.5 79.5t-86.5 223.5q0 104 40.5 163.5t133.5 90.5v8q-68 28 -105.5 89.5t-37.5 147.5q0 122 72 186t198 64q166 0 272 -69l-41 -103q-94 58 -194 58 q-90 0 -135 -40.5t-45 -125.5q0 -68 50.5 -121t110.5 -53h115v-115z" />
<glyph unicode="&#x512;" horiz-adv-x="1021" d="M881 1434v-1491q0 -211 -61.5 -301.5t-203.5 -75.5v115q27 0 47 6.5t34 16.5t23.5 31t15 42.5t8 59.5t3.5 72.5t1 90.5v1313h-347q-16 -448 -42.5 -717.5t-75.5 -411.5q-34 -99 -81 -145.5t-114 -46.5q-56 0 -92 16l20 119q18 -6 35 -6q31 0 57.5 26t51.5 89 q103 256 119 1198h602z" />
<glyph unicode="&#x513;" horiz-adv-x="821" d="M567 0v909h-239q-3 -84 -5 -139t-6.5 -133.5t-9.5 -130.5t-12 -119t-17 -111t-23 -93.5t-29.5 -80.5t-37 -58t-46.5 -39.5t-56 -12.5q-58 0 -94 16l20 111q18 -6 37 -6q30 0 51 20t41.5 77.5t33.5 157.5t22.5 263.5t13.5 392.5h483v-1081q0 -207 -64 -295.5t-202 -73.5 v115q37 0 62.5 13t40.5 35t23 63.5t10.5 85.5t2.5 114z" />
<glyph unicode="&#x51a;" horiz-adv-x="1122" d="M1155 -209v-119q-71 -24 -156 -24q-74 0 -159.5 21.5t-150 47t-138.5 47t-127 21.5q-45 0 -74 -10v119q46 12 92 12q60 -1 134.5 -22.5t136 -47t143 -46.5t152.5 -21q67 0 147 22zM94 717q0 365 116.5 553t348.5 188q469 0 469 -741q0 -365 -117.5 -553.5t-351.5 -188.5 q-465 0 -465 742zM231 717q0 -126 19 -235t57 -197t103 -138.5t149 -50.5q163 0 247.5 155t84.5 466q0 127 -18.5 235t-57 196t-104 138.5t-152.5 50.5q-160 0 -244 -155t-84 -465z" />
<glyph unicode="&#x51b;" horiz-adv-x="880" d="M754 977v-1387h-127v496h-6q-73 -111 -218 -111q-164 0 -242.5 131.5t-78.5 405.5q0 259 101 393.5t296 134.5q79 0 156.5 -19.5t118.5 -43.5zM424 90q157 0 203 193v606q-56 37 -170 37q-116 0 -179 -105t-63 -309q0 -92 11 -166t34.5 -133t65 -91t98.5 -32z" />
<glyph unicode="&#x51c;" horiz-adv-x="1353" d="M154 1434l206 -983l29 -238h2l25 242l237 979h68l237 -983l27 -238h2l29 242l194 979h131l-321 -1459h-74l-233 979l-29 217h-6l-31 -219l-231 -977h-74l-328 1459h140z" />
<glyph unicode="&#x51d;" horiz-adv-x="1206" d="M565 1024h90l191 -614l41 -203h4l31 207l151 610h119l-277 -1049h-61l-217 695l-31 180h-4l-31 -182l-211 -693h-59l-287 1049h136l167 -614l27 -203h4l39 207z" />
<glyph unicode="&#x524;" horiz-adv-x="1142" d="M809 0v1313h-535v-1313h-133v1434h801v-1313h154v-387h-92l-25 266h-170z" />
<glyph unicode="&#x525;" horiz-adv-x="905" d="M623 0v909h-369v-909h-127v1024h623v-909h118v-381h-84l-24 266h-137z" />
<glyph unicode="&#x526;" horiz-adv-x="1054" d="M903 0h-168v487q0 151 -48 222t-155 71q-76 0 -145 -27.5t-113 -72.5v-680h-133v1434h133v-623q134 90 281 90q75 0 129.5 -18.5t97.5 -62.5t64.5 -123.5t21.5 -194.5v-381h152v-387h-92z" />
<glyph unicode="&#x527;" horiz-adv-x="940" d="M655 0v623q0 163 -37.5 237t-140.5 74q-76 0 -139.5 -55t-83.5 -138v-741h-127v1434h127v-506h6q99 121 254 121q142 0 205 -86.5t63 -303.5v-544h121v-381h-84l-24 266h-140z" />
<glyph unicode="&#x1e30;" horiz-adv-x="999" d="M774 0l-424 674h-76v-674h-133v1434h133v-674l74 28l389 646h152l-385 -621l-68 -65l82 -82l422 -666h-166zM340 1540l195 242h184v-39l-268 -203h-111z" />
<glyph unicode="&#x1e31;" horiz-adv-x="782" d="M610 0l-276 469h-80v-469h-127v1434h127v-879l72 29l256 440h147l-254 -416l-65 -65l82 -82l274 -461h-156zM385 1171l98 304h142v-39l-164 -265h-76z" />
<glyph unicode="&#x1e3e;" horiz-adv-x="1296" d="M1022 0v987l18 205h-8l-63 -195l-299 -647h-43l-318 647l-59 195h-8l26 -205v-987h-127v1434h105l354 -723l53 -166h2l50 168l339 721h111v-1434h-133zM555 1540l195 242h184v-39l-268 -203h-111z" />
<glyph unicode="&#x1e3f;" horiz-adv-x="1327" d="M735 0h-127v612q0 180 -30.5 251t-126.5 71q-70 0 -122.5 -56t-74.5 -137v-741h-127v1024h88l25 -106h6q47 64 107.5 97.5t146.5 33.5q81 0 129.5 -34.5t75.5 -119.5q38 72 107.5 113t150.5 41q93 0 146 -33.5t79 -116t26 -229.5v-670h-127v659q0 148 -30 211.5 t-123 63.5q-155 0 -199 -193v-741zM610 1171l99 304h141v-39l-164 -265h-76z" />
<glyph unicode="&#x1e54;" horiz-adv-x="915" d="M141 0v1419q104 31 275 31q67 0 126 -11.5t117.5 -42t100 -78t67 -125t25.5 -177.5q0 -124 -36.5 -216.5t-100.5 -146t-141.5 -79t-167.5 -25.5q-101 0 -132 8v-557h-133zM418 1329q-105 0 -144 -10v-639q25 -10 127 -10q314 0 314 346q0 85 -24 148t-66.5 98t-93.5 51 t-113 16zM342 1540l195 242h184v-39l-268 -203h-111z" />
</font>
</defs>
</svg>
